<svg width="84" height="84" viewBox="0 0 84 84" fill="none" xmlns="http://www.w3.org/2000/svg">
<path d="M20.6602 34.4433C15.3334 30.4296 10.3319 26.7404 6.65804 23.7647C2.90261 20.7228 2.85573 14.8017 6.3092 10.8289C9.76266 6.85614 15.635 6.07586 19.17 9.37139C20.8496 10.9335 22.7383 12.7886 24.778 14.8168L24.7806 14.8191L20.6602 34.4433Z" fill="#EB463C"/>
<path d="M78.8124 73.8544C75.3589 77.8272 69.4889 78.6048 65.9539 75.3093C64.2075 73.6799 62.2336 71.7414 60.0975 69.6108L60.0948 69.6085L64.2019 50.0423C69.6281 54.1285 74.7338 57.8897 78.4658 60.916C82.2213 63.9579 82.2655 69.8767 78.8124 73.8544Z" fill="#EB463C"/>
<path d="M24.388 37.2658C23.1354 36.3114 21.8911 35.3689 20.6603 34.4427L24.7807 14.8185C25.922 15.9543 27.1069 17.1466 28.3314 18.3734L24.388 37.2658Z" fill="#F2F2F2"/>
<path d="M60.0947 69.6075C58.9241 68.4414 57.7075 67.2216 56.4536 65.9646L56.4509 65.9623L60.3797 47.1454C61.6614 48.125 62.9397 49.0925 64.2018 50.0412L60.0947 69.6075Z" fill="#F2F2F2"/>
<path d="M56.4505 65.9626C50.6119 60.0942 43.9806 53.4253 37.6833 47.9512C33.5785 44.383 28.9476 40.7423 24.3877 37.2654L28.3311 18.373C34.2499 24.3251 41.0188 31.1506 47.4375 36.7303C51.4367 40.2067 55.9342 43.75 60.3793 47.1457L56.4505 65.9626Z" fill="#FF8C5B"/>
<path d="M31.9664 39.1031C31.335 39.8295 30.1124 39.8008 29.2381 39.0408C28.3611 38.2785 28.1652 37.0741 28.7967 36.3477L34.714 29.5406C35.3454 28.8142 36.568 28.8428 37.4423 29.6029C38.3193 30.3652 38.5152 31.5696 37.8837 32.296L31.9664 39.1031Z" fill="#EB463C"/>
<path d="M36.2468 32.403L34.9789 31.3008L30.7884 36.1215L32.0563 37.2237L36.2468 32.403Z" fill="#F2F2F2"/>
<path d="M37.2931 34.6994L32.4618 30.4997C32.2452 30.3114 32.2401 30.0612 32.4449 29.9377L33.0784 29.561C33.2858 29.4398 33.6267 29.4904 33.8433 29.6787L37.9904 33.2837C38.207 33.472 38.2944 33.7983 38.1877 34.0117L37.8701 34.6491C37.7634 34.8625 37.5021 34.8858 37.2855 34.6975L37.2931 34.6994Z" fill="#EB463C"/>
<path d="M34.4569 37.9613L29.6257 33.7616C29.4091 33.5733 29.1606 33.6031 29.0668 33.823L28.7819 34.5029C28.6908 34.7251 28.7884 35.0556 29.005 35.2439L33.152 38.849C33.3686 39.0372 33.704 39.0783 33.9004 38.943L34.4875 38.5397C34.6839 38.4044 34.6706 38.1424 34.454 37.9541L34.4569 37.9613Z" fill="#EB463C"/>
<path d="M49.2665 54.1432C48.635 54.8696 47.4124 54.841 46.5381 54.081C45.6611 53.3186 45.4653 52.1142 46.0967 51.3878L52.014 44.5808C52.6455 43.8544 53.8681 43.883 54.7424 44.643C55.6193 45.4054 55.8152 46.6098 55.1838 47.3362L49.2665 54.1432Z" fill="#EB463C"/>
<path d="M53.5463 47.4432L52.2784 46.3411L48.0879 51.1617L49.3558 52.2639L53.5463 47.4432Z" fill="#F2F2F2"/>
<path d="M54.5925 49.7396L49.7613 45.5399C49.5447 45.3516 49.5396 45.1014 49.7443 44.9779L50.3779 44.6012C50.5852 44.48 50.9262 44.5306 51.1428 44.7189L55.2899 48.3239C55.5065 48.5122 55.5938 48.8385 55.4872 49.0519L55.1695 49.6894C55.0629 49.9027 54.8015 49.926 54.5876 49.74L54.5925 49.7396Z" fill="#EB463C"/>
<path d="M51.7564 53.0015L46.9252 48.8018C46.7086 48.6135 46.4601 48.6433 46.3663 48.8632L46.0814 49.5431C45.9903 49.7653 46.0878 50.0959 46.3044 50.2841L50.4515 53.8892C50.6681 54.0774 51.0034 54.1185 51.1999 53.9832L51.7869 53.5799C51.9834 53.4446 51.97 53.1826 51.7561 52.9966L51.7564 53.0015Z" fill="#EB463C"/>
</svg>
