<svg width="276" height="295" viewBox="0 0 276 295" fill="none" xmlns="http://www.w3.org/2000/svg">
  <g clip-path="url(#clip0_179_723)">
    <path fill-rule="evenodd" clip-rule="evenodd" d="M162.462 82.7226L178.467 74.8333C179.46 74.3444 180.6 75.1249 180.548 76.2506L179.738 94.5093C179.69 95.6037 178.502 96.2271 177.618 95.6216L171.063 91.1487L174.766 85.6379C175.175 85.0279 175.027 84.1892 174.435 83.7676C173.843 83.346 173.029 83.4985 172.619 84.1085L168.886 89.6637L162.296 85.1669C161.413 84.5615 161.504 83.1935 162.462 82.7226ZM41.6382 92.576L41.7682 76.0439C41.7761 75.0215 42.8433 74.3724 43.7098 74.8674L57.7971 82.7906C58.6438 83.2653 58.6596 84.5026 57.8326 85.0057L51.6999 88.7191L48.8217 83.4316C48.5027 82.8474 47.786 82.6364 47.2149 82.965C46.6439 83.2937 46.443 84.032 46.762 84.6203L49.6641 89.9518L43.501 93.6835C42.674 94.1866 41.6304 93.5659 41.6382 92.576ZM86.5931 144.313C86.5931 150.735 81.5696 155.736 75.6208 155.736C69.6721 155.736 64.6485 150.735 64.6485 144.313C64.6485 137.891 69.6721 132.89 75.6208 132.89C81.5696 132.89 86.5931 137.891 86.5931 144.313ZM75.6208 159.736C83.8898 159.736 90.5931 152.831 90.5931 144.313C90.5931 135.795 83.8898 128.89 75.6208 128.89C67.3518 128.89 60.6485 135.795 60.6485 144.313C60.6485 152.831 67.3518 159.736 75.6208 159.736ZM75.6209 155.199C81.4571 155.199 86.1882 150.325 86.1882 144.313C86.1882 138.301 81.4571 133.427 75.6209 133.427C69.7848 133.427 65.0536 138.301 65.0536 144.313C65.0536 150.325 69.7848 155.199 75.6209 155.199ZM157.976 144.313C157.976 150.735 152.953 155.736 147.004 155.736C141.055 155.736 136.032 150.735 136.032 144.313C136.032 137.891 141.055 132.89 147.004 132.89C152.953 132.89 157.976 137.891 157.976 144.313ZM147.004 159.736C155.273 159.736 161.976 152.831 161.976 144.313C161.976 135.795 155.273 128.89 147.004 128.89C138.735 128.89 132.032 135.795 132.032 144.313C132.032 152.831 138.735 159.736 147.004 159.736ZM147.004 155.199C152.84 155.199 157.571 150.325 157.571 144.313C157.571 138.301 152.84 133.427 147.004 133.427C141.168 133.427 136.437 138.301 136.437 144.313C136.437 150.325 141.168 155.199 147.004 155.199ZM110.488 159.294C109.398 158.956 108.307 157.662 106.546 155.484C106.336 155.223 106.366 154.833 106.625 154.61C106.877 154.393 107.256 154.424 107.473 154.69C109.206 156.835 110.319 158.143 111.066 158.143C111.818 158.143 112.871 156.829 114.604 154.659L114.706 154.535C114.917 154.269 115.296 154.232 115.555 154.448C115.814 154.665 115.85 155.056 115.639 155.323L115.537 155.447C113.781 157.645 112.757 158.924 111.692 159.28V161.615C111.694 161.619 111.696 161.623 111.698 161.627C112.606 163.412 114.43 164.045 115.681 163.722C116.71 163.462 117.282 162.619 117.282 161.36C117.282 161.02 117.553 160.741 117.884 160.741C118.215 160.741 118.486 161.02 118.486 161.36C118.486 163.195 117.547 164.528 115.97 164.925C114.279 165.353 112.372 164.578 111.192 163.071C110.271 164.355 108.773 165.173 107.347 165.173C107.088 165.173 106.835 165.148 106.588 165.092C105.054 164.751 104.133 163.406 104.133 161.491C104.133 161.15 104.404 160.871 104.735 160.871C105.066 160.871 105.337 161.15 105.337 161.491C105.337 162.817 105.872 163.66 106.841 163.877C108.006 164.141 109.686 163.42 110.488 161.935V159.294Z" fill="#4D315A"/>
    <path d="M53.2557 297.583L53.0025 299.809H55.2429H164.243H166.624L166.213 297.464L142.686 163.068L142.396 161.413H140.716H70.5321H68.7467L68.5449 163.187L53.2557 297.583Z" fill="#211D21" stroke="#A6C942" stroke-width="4"/>
    <path d="M84.3961 95.7365L39.0093 122.536L39.3863 75.1524C39.3863 75.1523 39.3863 75.1522 39.3863 75.1521C39.4017 73.288 41.3804 72.1415 42.9824 73.0188C42.9826 73.0189 42.9828 73.019 42.9829 73.0191C42.983 73.0191 42.9831 73.0192 42.9831 73.0192L84.3961 95.7365Z" fill="#211D21" stroke="#A6C942" stroke-width="4"/>
    <path fill-rule="evenodd" clip-rule="evenodd" d="M46.3639 99.4454L46.4821 84.7822C46.4893 83.8754 47.4601 83.2996 48.2483 83.7386L61.0629 90.7662C61.8331 91.1872 61.8474 92.2847 61.0951 92.7309L55.5165 96.0245L52.8984 91.3348C52.6082 90.8166 51.9562 90.6295 51.4368 90.9209C50.9173 91.2124 50.7346 91.8673 51.0248 92.3891L53.6646 97.1179L48.0584 100.428C47.3061 100.874 46.3567 100.323 46.3639 99.4454Z" fill="#A6C942"/>
    <path d="M180.567 75.2158L180.567 75.216L178.413 122.553L134.523 93.3478L177.092 72.8925C177.092 72.8925 177.092 72.8925 177.093 72.8924C178.737 72.1024 180.652 73.3532 180.567 75.2158Z" fill="#211D21" stroke="#A6C942" stroke-width="4"/>
    <path fill-rule="evenodd" clip-rule="evenodd" d="M156.271 90.7059L170.83 83.7085C171.733 83.2748 172.771 83.967 172.723 84.9655L171.987 101.16C171.943 102.131 170.862 102.684 170.058 102.147L164.095 98.1796L167.464 93.2916C167.836 92.7506 167.701 92.0067 167.163 91.6328C166.624 91.2588 165.884 91.3941 165.511 91.9351L162.116 96.8624L156.121 92.874C155.317 92.3369 155.4 91.1236 156.271 90.7059Z" fill="#A6C942"/>
    <path d="M187.764 147.533C187.764 162.934 179.249 177.046 165.144 187.381C151.041 197.715 131.46 204.168 109.743 204.168C88.0263 204.168 68.4456 197.715 54.3422 187.381C40.2375 177.046 31.7226 162.934 31.7226 147.533C31.7226 132.133 40.2375 118.021 54.3422 107.686C68.4456 97.3517 88.0263 90.8989 109.743 90.8989C131.46 90.8989 151.041 97.3517 165.144 107.686C179.249 118.021 187.764 132.133 187.764 147.533Z" fill="#211D21" stroke="#A6C942" stroke-width="4"/>
    <path d="M88.8958 145.334C88.8958 151.793 83.6852 157.014 77.2762 157.014C70.8672 157.014 65.6566 151.793 65.6566 145.334C65.6566 138.875 70.8672 133.654 77.2762 133.654C83.6852 133.654 88.8958 138.875 88.8958 145.334Z" stroke="#A6C942" stroke-width="4"/>
    <path d="M77.2762 154.989C82.5851 154.989 86.8887 150.666 86.8887 145.334C86.8887 140.002 82.5851 135.679 77.2762 135.679C71.9673 135.679 67.6637 140.002 67.6637 145.334C67.6637 150.666 71.9673 154.989 77.2762 154.989Z" fill="#211D21"/>
    <path d="M153.83 145.334C153.83 151.793 148.619 157.014 142.21 157.014C135.801 157.014 130.591 151.793 130.591 145.334C130.591 138.875 135.801 133.654 142.21 133.654C148.619 133.654 153.83 138.875 153.83 145.334Z" stroke="#A6C942" stroke-width="4"/>
    <path d="M142.21 154.989C147.519 154.989 151.823 150.666 151.823 145.334C151.823 140.002 147.519 135.679 142.21 135.679C136.901 135.679 132.598 140.002 132.598 145.334C132.598 150.666 136.901 154.989 142.21 154.989Z" fill="#211D21"/>
    <path d="M105.475 155.528C105.234 155.239 104.812 155.205 104.531 155.441L105.475 155.528ZM105.475 155.528C107.402 157.853 108.64 159.272 109.47 159.272M105.475 155.528L109.47 159.272M104.21 155.057L104.21 155.057C104.703 154.645 105.44 154.706 105.859 155.208L105.86 155.209L105.86 155.209C106.827 156.376 107.602 157.292 108.235 157.916C108.551 158.228 108.816 158.451 109.037 158.593C109.264 158.739 109.4 158.772 109.47 158.772C109.539 158.772 109.671 158.74 109.89 158.595C110.105 158.453 110.362 158.23 110.671 157.915C111.29 157.284 112.048 156.361 113.017 155.178L113.022 155.171L113.022 155.171L113.133 155.041C113.545 154.538 114.28 154.472 114.778 154.879C115.282 155.291 115.348 156.029 114.943 156.528L114.937 156.537L114.937 156.537L114.826 156.668L114.82 156.675C113.669 158.08 112.771 159.176 111.974 159.915C111.168 160.661 110.39 161.116 109.47 161.116C108.56 161.116 107.762 160.655 106.941 159.914C106.121 159.175 105.204 158.087 104.06 156.708L104.21 155.057ZM104.21 155.057L104.21 155.058M104.21 155.057L104.21 155.058M104.21 155.058C103.71 155.478 103.651 156.215 104.059 156.707L104.21 155.058ZM109.47 159.272C110.306 159.272 111.477 157.847 113.404 155.494L109.47 159.272Z" fill="#A6C942" stroke="#A6C942"/>
    <path d="M104.88 165L104.879 165C104.464 164.909 104.16 164.697 103.951 164.374C103.735 164.041 103.599 163.556 103.599 162.901C103.599 162.257 103.076 161.729 102.43 161.729C101.784 161.729 101.261 162.257 101.261 162.901C101.261 165.152 102.394 166.863 104.384 167.294C104.698 167.363 105.016 167.393 105.334 167.393C106.902 167.393 108.509 166.619 109.625 165.385C111.05 166.846 113.134 167.581 115.042 167.11C117.05 166.617 118.22 164.946 118.22 162.76C118.22 162.116 117.697 161.588 117.051 161.588C116.405 161.588 115.882 162.116 115.882 162.76C115.882 163.366 115.741 163.829 115.51 164.161C115.284 164.486 114.947 164.72 114.482 164.835L114.48 164.836C113.319 165.127 111.523 164.554 110.616 162.819C110.424 162.445 110.011 162.161 109.537 162.193C109.09 162.21 108.701 162.483 108.519 162.882L108.519 162.883C108.161 163.674 107.539 164.272 106.847 164.638C106.149 165.008 105.424 165.12 104.88 165Z" fill="#A6C942" stroke="#A6C942"/>
    <path d="M108.327 163.714C108.327 164.358 108.85 164.886 109.496 164.886C110.143 164.886 110.665 164.358 110.665 163.714V160.065C110.665 159.421 110.143 158.893 109.496 158.893C108.85 158.893 108.327 159.421 108.327 160.065V163.714Z" fill="#A6C942" stroke="#A6C942"/>
    <path d="M193.486 327.994V259.943C193.486 258.21 192.087 256.78 190.334 256.78H29.1575C27.405 256.78 26 258.204 26 259.943V327.994C26 329.733 27.405 331.156 29.1575 331.156H190.334C192.087 331.156 193.486 329.727 193.486 327.994Z" fill="#211D21" stroke="#A6C942" stroke-width="4"/>
    <path d="M69.025 27.2633C69.6917 27.1713 70.2165 27.2673 70.6068 27.5533C70.9971 27.8393 71.2023 28.1949 71.2323 28.6267C71.2478 28.8923 71.1713 29.1611 70.9941 29.4506C70.8216 29.7374 70.5362 30.0021 70.1426 30.242C69.1562 30.5936 68.0985 30.8866 66.962 31.1191C65.8255 31.3515 64.6747 31.5049 63.5002 31.5846C61.7334 31.7009 60.0716 31.6193 58.522 31.3419C57.7043 30.9659 57.3033 30.4553 57.3116 29.8079L56.3391 14.387C55.9963 14.2919 55.7413 14.1211 55.5721 13.882C55.4029 13.6429 55.3075 13.3799 55.2859 13.0929C55.2629 12.7818 55.3594 12.4827 55.5682 12.1936C55.777 11.9046 56.1162 11.6462 56.5837 11.426C57.8941 10.9308 59.26 10.597 60.676 10.4152C62.09 10.2407 63.5303 10.101 64.9829 10.0041C65.5073 9.96927 66.0291 9.92981 66.5408 9.8837C67.0524 9.83759 67.5614 9.7868 68.0603 9.72937C68.6587 9.71425 69.1688 9.84993 69.6001 10.131C70.0267 10.4148 70.2492 10.7354 70.2723 11.0901C70.2954 11.4448 70.1775 11.7937 69.9225 12.1219C69.6675 12.4502 69.2571 12.6935 68.6913 12.852C68.2166 12.908 67.7076 12.9587 67.1718 13.0063C66.6359 13.0539 66.09 13.0949 65.5414 13.1312C64.565 13.1963 63.6014 13.2727 62.6626 13.3597C61.7192 13.4494 60.7766 13.5948 59.8301 13.7985L60.2102 19.7736C60.4534 19.7828 60.6784 19.7714 60.8953 19.7459C61.1121 19.7204 61.3485 19.6961 61.6097 19.6824C62.5378 19.6203 63.4765 19.5333 64.4165 19.4269C65.3538 19.3157 66.3139 19.179 67.2874 19.022C67.9541 18.93 68.4816 19.0307 68.8726 19.3287C69.2637 19.6268 69.4708 19.975 69.4947 20.3854C69.5179 20.7401 69.4066 21.0789 69.163 21.3943C68.9193 21.7098 68.523 21.945 67.9814 22.102C66.9396 22.2922 65.8909 22.449 64.8455 22.5789C63.8 22.7089 62.7385 22.8107 61.6654 22.8818C61.3994 22.8982 61.1919 22.9182 61.0382 22.9447C60.8845 22.9711 60.6736 22.9744 60.4089 22.9714L60.7527 28.406C61.2074 28.424 61.6474 28.4381 62.0699 28.4435C62.4877 28.4516 62.9262 28.4415 63.3829 28.4085C64.3593 28.3434 65.3248 28.216 66.2739 28.0169C67.2211 27.8252 68.1285 27.5754 68.9968 27.2796L69.025 27.2633Z" fill="#A6C942"/>
    <path d="M74.5783 10.8134C74.6865 10.3392 74.9086 9.98628 75.2371 9.75281C75.5682 9.52402 75.9233 9.41248 76.3048 9.42286C76.6621 9.43472 77.0137 9.55596 77.3502 9.792C77.6867 10.028 77.9247 10.3647 78.0568 10.7999C78.0486 10.9918 78.0384 11.191 78.0195 11.4078C78.0006 11.6246 77.9904 11.8239 77.9822 12.0158C77.9409 12.6385 77.9022 13.266 77.871 13.8954C77.8425 14.5295 77.8174 15.1803 77.7957 15.8479C77.7365 17.8284 77.8192 19.8269 78.0475 21.8285C78.2759 23.8301 78.7941 25.6829 79.6059 27.3723C79.6989 27.4683 79.808 27.5924 79.9354 27.7372C80.0627 27.882 80.1711 27.994 80.2654 28.0705L80.8348 28.2656L81.2347 28.1343L81.9745 27.5072C82.5789 26.4718 83.0609 25.376 83.4185 24.2274C83.7761 23.0788 84.0637 21.8957 84.2767 20.681C84.4897 19.4662 84.651 18.2376 84.7484 16.996C84.8458 15.7544 84.9365 14.523 85.0185 13.309C85.0299 13.0466 85.0393 12.7917 85.0607 12.536C85.0802 12.2877 85.1064 12.0292 85.1373 11.7681C85.2469 11.318 85.4669 10.9725 85.7981 10.7437C86.1293 10.5149 86.4843 10.4034 86.8658 10.4138C87.2231 10.4256 87.5747 10.5469 87.9159 10.7802C88.2524 11.0163 88.4904 11.3529 88.6198 11.7834C88.5767 12.5007 88.5364 13.2227 88.4987 13.9495C88.4637 14.6808 88.4362 15.4142 88.4113 16.1522C88.3534 18.1133 88.4339 20.0756 88.6481 22.0417C88.8623 24.0078 89.3999 25.8619 90.259 27.6114L90.9552 28.2758C91.2645 28.3779 91.4614 28.4263 91.5433 28.4164C91.6252 28.4065 91.7427 28.3823 91.8856 28.3371C92.6017 27.6364 93.1361 26.7724 93.4886 25.7453C93.8458 24.7154 94.1298 23.6779 94.3527 22.6321C94.7225 20.7777 94.9821 18.9059 95.1342 17.0214C95.2863 15.1369 95.4135 13.2417 95.5178 11.3287C95.626 10.8544 95.848 10.5015 96.1765 10.2681C96.5077 10.0393 96.8748 9.92699 97.2832 9.94055C97.6183 9.94652 97.9532 10.0712 98.297 10.3092C98.6382 10.5426 98.8715 10.8819 99.0036 11.3171C98.9065 12.8954 98.8012 14.4597 98.6804 16.008C98.5597 17.5562 98.3839 19.1176 98.1457 20.6901C97.906 22.2384 97.5991 23.757 97.2196 25.2365C96.8381 26.7233 96.2207 28.1593 95.3674 29.5444C94.9172 30.2287 94.3282 30.7375 93.5983 31.0781C92.8685 31.4187 92.0965 31.5778 91.2871 31.5526C90.5194 31.5346 89.7773 31.3333 89.059 30.956C88.3407 30.5788 87.7596 30.0599 87.3307 29.4031C87.0588 28.9426 86.8258 28.4846 86.6372 28.0384C86.4486 27.5921 86.2862 27.137 86.1601 26.6796C85.9812 27.1073 85.7621 27.5521 85.5081 28.0232C85.2542 28.4944 84.9874 28.9542 84.7126 29.4C84.2624 30.0843 83.6774 30.5783 82.9609 30.8987C82.2418 31.2144 81.4812 31.3606 80.6671 31.3382C79.853 31.3157 79.0941 31.1179 78.3879 30.7399C77.6816 30.3619 77.1093 29.8255 76.6748 29.1158C76.1282 28.1466 75.6962 27.1048 75.3695 25.996C75.0428 24.8872 74.7945 23.7517 74.6295 22.5869C74.4598 21.4248 74.3667 20.2434 74.3406 19.0482C74.3145 17.853 74.3255 16.6677 74.3566 15.4956C74.3819 14.6824 74.4134 13.8907 74.4455 13.111C74.4804 12.3361 74.5233 11.5751 74.5677 10.8383L74.5783 10.8134ZM99.8074 31.7077C99.7835 32.545 99.6228 33.2429 99.3322 33.7914C99.0395 34.3473 98.5429 34.7777 97.8386 35.0974C96.7974 35.5492 95.7105 35.7592 94.5854 35.7293C92.5052 35.6711 91.4776 35.1919 91.5047 34.2841C91.515 33.8789 91.664 33.562 91.9448 33.3436C92.2256 33.1252 92.5712 33.0191 92.977 33.0279C93.3585 33.0383 93.693 33.0758 93.976 33.1432C94.2589 33.2105 94.5351 33.2443 94.7977 33.2548C96.1122 33.2875 96.8247 32.7324 96.9304 31.592C96.6266 31.2498 95.9053 31.0302 94.7612 30.924C93.1571 30.834 92.3663 30.5049 92.3836 29.9272C92.3882 29.8809 92.394 29.8151 92.4086 29.7318C92.4231 29.6486 92.4617 29.5202 92.5264 29.3393C92.5938 29.1632 92.6838 28.9178 92.8019 28.6125C92.9199 28.3072 93.0928 27.9017 93.3211 27.4079C93.5769 26.8422 94.0436 26.5662 94.7119 26.5856C95.6913 26.6124 96.1681 27.0917 96.1424 28.0236C96.1357 28.2832 96.0873 28.5358 96.0114 28.773C98.589 29.2051 99.8517 30.1786 99.8074 31.7077Z" fill="#A6C942"/>
    <path d="M110.419 7.59965C110.382 7.88296 110.262 8.15201 110.051 8.40487C109.84 8.65773 109.579 8.87737 109.265 9.07116C108.951 9.26496 108.615 9.40925 108.255 9.51144C107.894 9.61363 107.546 9.63993 107.212 9.60243C106.621 9.53232 106.127 9.26237 105.738 8.79456C105.349 8.32675 105.193 7.80585 105.259 7.23728C105.296 6.95397 105.428 6.68416 105.666 6.43449C105.904 6.18482 106.18 5.96912 106.506 5.77458C106.83 5.58743 107.173 5.4451 107.534 5.35499C107.895 5.26487 108.204 5.23612 108.466 5.26602C109.057 5.33614 109.548 5.6014 109.941 6.05443C110.334 6.51953 110.493 7.03305 110.419 7.59965ZM114.199 29.4393C114.868 29.4707 115.372 29.6601 115.703 30.0176C116.035 30.3751 116.169 30.7593 116.121 31.1862C116.09 31.4474 115.962 31.7024 115.736 31.9513C115.511 32.2002 115.185 32.4068 114.756 32.5738C113.725 32.7392 112.626 32.8312 111.468 32.8519C110.309 32.8725 109.146 32.8086 107.983 32.6696C106.228 32.4605 104.609 32.0734 103.136 31.5151C102.404 30.9957 102.101 30.416 102.229 29.7806L104.124 14.4372C103.806 14.2775 103.586 14.0683 103.461 13.7974C103.338 13.5312 103.291 13.2531 103.327 12.9698C103.363 12.6623 103.514 12.3817 103.774 12.1379C104.034 11.8941 104.411 11.7013 104.91 11.5687C106.291 11.3261 107.691 11.2469 109.115 11.3286C110.542 11.415 111.974 11.5423 113.425 11.7144C113.948 11.7742 114.463 11.8321 114.98 11.8825C115.49 11.931 115.997 11.9748 116.499 12.0092C117.092 12.1035 117.566 12.3286 117.934 12.6839C118.297 13.0418 118.458 13.3977 118.418 13.7515C118.373 14.1079 118.198 14.4216 117.889 14.6999C117.577 14.9735 117.128 15.1393 116.544 15.1899C116.066 15.1539 115.562 15.1148 115.025 15.0631C114.488 15.0115 113.949 14.9551 113.401 14.8847C112.426 14.768 111.472 14.6646 110.528 14.5799C109.589 14.4925 108.631 14.4595 107.667 14.4924L106.934 20.4368C107.17 20.4876 107.395 20.5198 107.609 20.5332C107.824 20.5466 108.063 20.5707 108.324 20.6006C109.253 20.7129 110.185 20.7983 111.13 20.8635C112.075 20.9288 113.038 20.9711 114.022 20.9951C114.691 21.0265 115.193 21.2233 115.522 21.5882C115.852 21.9531 115.99 22.3346 115.941 22.7373C115.896 23.0938 115.725 23.4048 115.428 23.6703C115.13 23.9357 114.703 24.0953 114.138 24.1471C113.078 24.1423 112.022 24.1033 110.97 24.0374C109.918 23.9715 108.855 23.8748 107.787 23.7492C107.526 23.7193 107.314 23.6985 107.161 23.6934C107.007 23.6883 106.794 23.6555 106.539 23.6034L105.87 29.0182C106.317 29.1214 106.745 29.2113 107.153 29.3C107.565 29.3859 107.994 29.4564 108.448 29.5059C109.423 29.6226 110.392 29.6743 111.359 29.6582C112.326 29.6421 113.261 29.5699 114.173 29.4361L114.199 29.4393ZM117.69 8.18302C117.65 8.49318 117.528 8.76963 117.317 9.02249C117.106 9.27535 116.842 9.4903 116.533 9.66931C116.223 9.84833 115.896 9.9872 115.559 10.0758C115.225 10.1691 114.909 10.1959 114.628 10.1648C114.036 10.0947 113.551 9.83876 113.188 9.3936C112.82 8.95115 112.671 8.44428 112.745 7.87767C112.782 7.59437 112.909 7.32727 113.132 7.07366C113.358 6.82474 113.622 6.60978 113.937 6.42806C114.246 6.24904 114.573 6.11017 114.91 6.02155C115.247 5.93292 115.546 5.89754 115.807 5.92744C116.398 5.99755 116.884 6.25346 117.252 6.69591C117.608 7.13911 117.756 7.63391 117.69 8.18302Z" fill="#A6C942"/>
    <path d="M142.527 37.7553C142.343 38.3045 142.054 38.6712 141.658 38.8749C141.267 39.0759 140.858 39.1254 140.442 39.0227C140.048 38.9259 139.71 38.7093 139.421 38.371C139.137 38.03 139.038 37.5878 139.123 37.0399L141.248 28.4317C140.947 28.7556 140.623 29.0735 140.271 29.3957C139.923 29.7151 139.519 29.992 139.067 30.2282C138.67 30.4514 138.306 30.612 137.991 30.7065C137.672 30.8037 137.348 30.8722 137.016 30.9145C135.992 30.8638 135.19 30.5596 134.602 29.995C134.016 29.4352 133.583 28.7496 133.315 27.9497C133.045 27.1451 132.91 26.2812 132.902 25.3562C132.894 24.4312 132.966 23.5789 133.107 22.8046C133.177 22.4271 133.243 22.0524 133.313 21.675C133.383 21.2976 133.471 20.8851 133.582 20.4276C133.694 19.9701 133.824 19.4582 133.98 18.8816C134.136 18.3051 134.338 17.6143 134.582 16.8118C134.814 16.3784 135.12 16.0833 135.506 15.9287C135.888 15.7767 136.264 15.7462 136.636 15.8371C137.052 15.9399 137.406 16.1845 137.693 16.5738C137.981 16.9631 138.025 17.4425 137.836 18.0138C137.7 18.4728 137.563 18.9198 137.433 19.3566C137.304 19.7934 137.181 20.2322 137.071 20.6703C136.973 21.064 136.863 21.5892 136.736 22.2487C136.61 22.9083 136.518 23.585 136.452 24.2844C136.391 24.9811 136.371 25.6413 136.39 26.2603C136.409 26.8793 136.525 27.3616 136.732 27.7098C136.754 27.7157 136.814 27.7435 136.916 27.7905C137.014 27.8402 137.174 27.8036 137.403 27.6902C137.964 27.2098 138.482 26.686 138.958 26.1115C139.434 25.537 139.882 24.9352 140.311 24.3007C140.74 23.6661 141.151 23.0229 141.547 22.3638C141.945 21.7093 142.342 21.0621 142.749 20.4217C142.908 20.1671 143.084 19.885 143.267 19.5853C143.451 19.2857 143.656 19.0114 143.879 18.7578C144.102 18.5042 144.353 18.3094 144.629 18.1809C144.906 18.0524 145.217 18.0283 145.567 18.1134C145.916 18.1984 146.226 18.3877 146.496 18.6932C146.768 18.9914 146.923 19.3694 146.957 19.818L142.527 37.7553Z" fill="#A6C942"/>
    <path d="M154.448 22.3481C154.547 21.7485 154.809 21.3351 155.242 21.0976C155.674 20.8602 156.113 20.8185 156.568 20.9673C156.816 21.0489 157.055 21.2037 157.284 21.427C157.513 21.6503 157.687 21.9618 157.806 22.3541L157.996 27.0228C158.053 28.0755 158.107 29.0364 158.157 29.9054C158.211 30.7791 158.243 31.7461 158.271 32.8152L161.338 29.7019C161.465 29.5414 161.611 29.3822 161.761 29.2203C161.917 29.0557 162.055 28.8945 162.185 28.7388C162.513 28.343 162.879 27.9255 163.279 27.489C163.678 27.0526 164.1 26.6462 164.556 26.2643C165.007 25.8852 165.476 25.5583 165.957 25.2864C166.439 25.0144 166.924 24.8585 167.415 24.8185C167.824 24.8006 168.178 24.8513 168.486 24.9608C168.788 25.0729 169.03 25.2324 169.215 25.4439C169.4 25.6554 169.508 25.8861 169.554 26.1401C169.593 26.392 169.58 26.6302 169.506 26.8601C169.327 27.4065 168.839 27.7758 168.042 27.9679C167.989 27.9736 167.906 28.0029 167.785 28.054C167.669 28.1023 167.545 28.1682 167.419 28.2535C167.124 28.5357 166.86 28.7942 166.629 29.0338C166.398 29.2733 166.153 29.521 165.894 29.7769C165.635 30.0327 165.344 30.3316 165.027 30.6831C164.711 31.0345 164.316 31.4562 163.85 31.9622C162.892 32.9588 162.109 33.7606 161.506 34.3647C160.901 34.9761 160.415 35.4688 160.05 35.8547C159.684 36.2407 159.386 36.5377 159.166 36.7524C158.941 36.9697 158.753 37.1654 158.591 37.3402C158.129 37.8193 157.738 38.2262 157.41 38.5589C157.085 38.8963 156.808 39.175 156.584 39.4045C156.359 39.6339 156.164 39.8277 156.009 39.9923C155.854 40.1569 155.7 40.3142 155.549 40.464C155.238 40.7933 154.917 41.1038 154.582 41.391C154.245 41.6855 153.885 41.9306 153.502 42.1335C153.118 42.3365 152.702 42.4833 152.242 42.5747C151.786 42.6634 151.295 42.6597 150.771 42.5637C150.437 42.5067 150.122 42.4268 149.828 42.3287C149.533 42.2306 149.268 42.0847 149.03 41.8789C148.363 41.3847 147.76 40.7411 147.214 39.9463C146.668 39.1515 146.2 38.3616 145.805 37.5792C145.537 37.0168 145.478 36.5141 145.618 36.0839C145.74 35.7203 145.984 35.4484 146.361 35.2677C146.734 35.0896 147.151 35.0736 147.606 35.2224C147.809 35.2922 148.013 35.3862 148.208 35.5171C148.407 35.6453 148.567 35.8147 148.694 36.0346C148.86 36.2133 149.034 36.5054 149.22 36.9033C149.401 37.304 149.628 37.697 149.888 38.0831C150.148 38.4692 150.449 38.7946 150.775 39.0556C151.1 39.3165 151.502 39.3837 151.975 39.2601L154.968 36.1586C154.919 34.4029 154.863 32.6572 154.795 30.9123C154.732 29.1647 154.661 27.4151 154.59 25.6535L154.448 22.3481Z" fill="#A6C942"/>
    <path d="M187.235 32.8144C187.607 33.1548 187.854 33.5175 187.961 33.8986C188.071 34.2842 188.053 34.6124 187.907 34.8903C187.741 35.2106 187.483 35.447 187.123 35.5928C186.763 35.7386 186.306 35.7595 185.751 35.6556L180.883 33.64C179.767 36.2623 178.654 38.8893 177.539 41.5237C176.426 44.1627 175.313 46.7897 174.194 49.4074C173.931 49.9711 173.57 50.3108 173.114 50.431C172.658 50.5512 172.236 50.5263 171.841 50.3617C171.468 50.2031 171.173 49.9306 170.961 49.5415C170.749 49.1524 170.722 48.6938 170.871 48.1589L177.612 32.255L172.689 30.1773C172.184 29.833 171.867 29.4674 171.739 29.0731C171.607 28.6815 171.627 28.3145 171.803 27.9692C171.975 27.6268 172.266 27.3714 172.671 27.2059C173.076 27.0404 173.591 27.0861 174.206 27.3486C176.517 28.3277 178.452 29.1434 180.016 29.8051C181.581 30.4669 182.859 31.0009 183.856 31.4046C184.85 31.8156 185.606 32.1276 186.126 32.345C186.646 32.5625 187.019 32.7211 187.235 32.8144Z" fill="#A6C942"/>
    <path d="M188.132 56.61C187.174 56.1216 186.464 55.3901 185.997 54.4063C185.691 54.8952 185.33 55.1913 184.908 55.2851C184.486 55.3789 184.083 55.3312 183.696 55.137C183.333 54.9535 183.055 54.6654 182.867 54.2748C182.679 53.8843 182.687 53.4308 182.892 52.919C184.27 50.2635 185.642 47.6061 186.996 44.9521C188.35 42.2981 189.71 39.6219 191.085 36.9376C191.39 36.5554 191.733 36.3259 192.117 36.2537C192.501 36.1816 192.875 36.2336 193.238 36.4171C193.558 36.5815 193.818 36.8368 194.011 37.1931C194.209 37.5467 194.271 37.9475 194.205 38.3973L191.595 43.5176C192.463 43.3404 193.327 43.4276 194.197 43.7858C195.084 44.1526 195.749 44.6858 196.199 45.3799C196.65 46.0741 196.928 46.8491 197.033 47.693C197.138 48.5368 197.105 49.3916 196.935 50.2573C196.765 51.123 196.508 51.8826 196.171 52.5454C195.716 53.4384 195.11 54.2873 194.351 55.0876C193.597 55.8852 192.699 56.4663 191.66 56.8235C190.373 57.2179 189.199 57.1474 188.132 56.61ZM189.51 49.4945C189.378 49.8079 189.261 50.0937 189.15 50.3573C189.042 50.6256 188.963 50.9334 188.916 51.2851L188.883 51.2726C188.856 51.4753 188.848 51.6988 188.847 51.9362C188.846 52.1737 188.853 52.3816 188.873 52.5572C188.911 53.1654 189.099 53.556 189.444 53.7309C189.681 53.8495 189.959 53.8639 190.288 53.7733C190.618 53.6827 190.95 53.5096 191.299 53.2579C191.64 52.9485 191.968 52.6158 192.27 52.2604C192.572 51.905 192.833 51.511 193.05 51.0857C193.255 50.6806 193.415 50.1886 193.52 49.6104C193.624 49.0322 193.687 48.522 193.702 48.0705C193.649 47.7515 193.567 47.4683 193.448 47.2188C193.332 46.9741 193.191 46.8059 193.016 46.7198C192.866 46.6442 192.678 46.6219 192.447 46.6556C192.216 46.6892 191.963 46.7921 191.685 46.9715C191.64 47.0034 191.51 47.1034 191.29 47.2745C191.069 47.4456 190.905 47.5841 190.797 47.6901C190.322 48.1458 189.94 48.6661 189.646 49.2414L189.51 49.4945Z" fill="#A6C942"/>
    <path d="M198.731 56.3776C198.265 55.9921 197.98 55.5954 197.876 55.1876C197.772 54.7797 197.809 54.4212 197.992 54.1095C198.184 53.7803 198.513 53.5468 198.966 53.4099C199.419 53.2729 199.924 53.3677 200.482 53.6943L204.532 56.0706C204.986 56.3381 205.431 56.599 205.876 56.8598C206.32 57.1207 206.729 57.3523 207.105 57.5592C207.481 57.7662 207.808 57.952 208.089 58.1139C208.365 58.2786 208.571 58.3967 208.694 58.469C209.076 58.8598 209.298 59.2434 209.359 59.6321C209.425 60.0181 209.37 60.3559 209.197 60.6427C209.027 60.9342 208.753 61.1304 208.366 61.2415C207.984 61.3499 207.519 61.3253 206.969 61.1751C206.289 60.7761 205.593 60.3733 204.875 59.9645C204.16 59.5604 203.472 59.1595 202.811 58.7739L198.731 56.3776Z" fill="#A6C942"/>
    <path d="M218.852 74.0065C218.49 74.4528 218.089 74.7028 217.651 74.7565C217.21 74.8055 216.816 74.7087 216.46 74.4714C216.121 74.2428 215.879 73.921 215.731 73.5013C215.583 73.0817 215.644 72.6345 215.914 72.1479L220.899 64.8073C220.505 65.0036 220.089 65.194 219.649 65.3739C219.208 65.5537 218.735 65.6774 218.231 65.7375C217.776 65.8067 217.385 65.8333 217.054 65.8126C216.723 65.7918 216.395 65.7442 216.07 65.6698C215.132 65.2698 214.485 64.7016 214.132 63.97C213.779 63.2383 213.611 62.4492 213.642 61.6018C213.673 60.7544 213.841 59.8961 214.159 59.0261C214.477 58.1561 214.837 57.3804 215.239 56.6991C215.435 56.3672 215.627 56.038 215.824 55.7061C216.02 55.3742 216.247 55.0186 216.511 54.6292C216.769 54.2426 217.074 53.8047 217.424 53.3155C217.769 52.8291 218.199 52.2502 218.708 51.5816C219.075 51.2513 219.465 51.0818 219.879 51.0732C220.291 51.0599 220.656 51.161 220.97 51.3791C221.328 51.621 221.57 51.9743 221.698 52.4364C221.83 52.9031 221.709 53.366 221.331 53.8399C221.046 54.2234 220.759 54.5948 220.487 54.958C220.21 55.324 219.945 55.6892 219.688 56.0684C219.458 56.4073 219.169 56.8612 218.824 57.4348C218.479 58.0085 218.153 58.6149 217.85 59.2513C217.548 59.8878 217.299 60.4991 217.101 61.0879C216.902 61.6768 216.844 62.1722 216.915 62.5675C216.936 62.5808 216.982 62.6288 217.06 62.7088C217.137 62.7888 217.301 62.8126 217.551 62.7802C218.242 62.5244 218.913 62.2116 219.554 61.8354C220.197 61.4638 220.828 61.0493 221.452 60.6014C222.071 60.1562 222.68 59.6922 223.28 59.2143C223.881 58.7363 224.479 58.2657 225.079 57.8072C225.318 57.6253 225.578 57.4251 225.856 57.202C226.132 56.9863 226.422 56.794 226.718 56.6352C227.015 56.4764 227.317 56.3826 227.621 56.3566C227.926 56.3305 228.227 56.4185 228.525 56.6206C228.823 56.8227 229.043 57.1071 229.191 57.4831C229.34 57.8592 229.353 58.2629 229.231 58.7017L218.852 74.0065Z" fill="#A6C942"/>
    <path d="M235.366 63.6632C235.663 63.1361 236.058 62.8332 236.544 62.7644C237.027 62.691 237.46 62.8023 237.832 63.0992C238.038 63.2609 238.206 63.4879 238.342 63.7775C238.478 64.0671 238.53 64.4176 238.51 64.8282L237.067 69.2803C236.752 70.2857 236.471 71.209 236.214 72.0437C235.96 72.8831 235.659 73.8052 235.308 74.8129L239.266 72.9504C239.441 72.8427 239.627 72.7416 239.832 72.6417C240.033 72.5445 240.223 72.4407 240.399 72.333C240.845 72.0753 241.332 71.8127 241.857 71.5405C242.382 71.2683 242.921 71.0315 243.475 70.8302C244.028 70.6288 244.583 70.4832 245.126 70.394C245.669 70.3048 246.178 70.3291 246.653 70.4596C247.044 70.5833 247.359 70.7504 247.607 70.9628C247.852 71.1706 248.026 71.4069 248.121 71.6699C248.222 71.9302 248.244 72.1857 248.195 72.4382C248.147 72.6907 248.048 72.91 247.899 73.096C247.539 73.547 246.958 73.721 246.147 73.6281C246.095 73.6143 246.003 73.6176 245.879 73.6203C245.751 73.6258 245.614 73.6488 245.463 73.6799C245.087 73.8412 244.756 73.9949 244.452 74.1397C244.155 74.2864 243.838 74.4319 243.505 74.5809C243.171 74.7298 242.796 74.9153 242.377 75.1325C241.958 75.3498 241.442 75.6166 240.832 75.9256C239.588 76.5256 238.578 77.0094 237.799 77.3724C237.019 77.7355 236.396 78.0331 235.917 78.2662C235.438 78.4992 235.061 78.68 234.777 78.8065C234.493 78.933 234.248 79.0499 234.036 79.1599C233.439 79.4487 232.929 79.6933 232.509 79.8985C232.086 80.099 231.732 80.2662 231.442 80.4028C231.151 80.5395 230.906 80.6564 230.701 80.7562C230.495 80.8561 230.3 80.9506 230.108 81.0423C229.705 81.244 229.293 81.4196 228.878 81.5785C228.463 81.7374 228.037 81.846 227.614 81.9036C227.185 81.964 226.741 81.9526 226.285 81.879C225.822 81.8034 225.366 81.6305 224.911 81.363C224.62 81.1944 224.352 81.0123 224.108 80.8166C223.866 80.6256 223.668 80.3907 223.519 80.1213C223.066 79.4226 222.722 78.6104 222.491 77.6775C222.259 76.7445 222.095 75.8414 221.998 74.968C221.944 74.3438 222.057 73.8548 222.346 73.5002C222.586 73.1996 222.909 73.0319 223.324 72.9917C223.739 72.9516 224.132 73.08 224.503 73.3768C224.674 73.5092 224.824 73.672 224.963 73.8596C225.103 74.0472 225.198 74.2666 225.242 74.5159C225.335 74.7427 225.396 75.0757 225.431 75.5168C225.464 75.9533 225.534 76.3996 225.648 76.8576C225.759 77.3111 225.926 77.7199 226.143 78.0747C226.363 78.4342 226.71 78.6332 227.195 78.6832L231.074 76.8038C231.635 75.1389 232.19 73.4766 232.734 71.8151C233.277 70.1537 233.823 68.4848 234.368 66.8038L235.366 63.6632Z" fill="#A6C942"/>
    <path d="M262.461 84.8417C262.693 85.2876 262.796 85.7149 262.763 86.1142C262.731 86.5135 262.601 86.8196 262.37 87.0276C262.106 87.2741 261.778 87.4009 261.391 87.4127C261.003 87.4245 260.566 87.2843 260.08 86.9969L256.22 83.4195C254.265 85.4976 252.309 87.5757 250.357 89.6706C248.402 91.7608 246.445 93.8463 244.494 95.9217C244.051 96.3584 243.594 96.5538 243.126 96.5124C242.658 96.471 242.269 96.2964 241.956 96.0032C241.658 95.726 241.482 95.3662 241.418 94.9292C241.354 94.4923 241.485 94.0481 241.813 93.5967L253.643 80.9912L249.752 77.3382C249.398 76.844 249.228 76.3869 249.245 75.9716C249.257 75.559 249.405 75.218 249.686 74.956C249.966 74.694 250.325 74.5556 250.765 74.5381C251.206 74.5207 251.668 74.7465 252.155 75.201C253.983 76.9148 255.515 78.3562 256.747 79.5157C257.984 80.6725 258.995 81.6227 259.79 82.3489C260.58 83.0778 261.18 83.6295 261.59 84.016C261.996 84.4052 262.287 84.6804 262.461 84.8417Z" fill="#A6C942"/>
    <path d="M255.05 107.493C254.32 106.704 253.907 105.771 253.816 104.681C253.364 105.036 252.919 105.187 252.491 105.129C252.063 105.07 251.701 104.887 251.41 104.568C251.133 104.273 250.976 103.902 250.934 103.471C250.892 103.04 251.054 102.616 251.43 102.205C253.644 100.183 255.845 98.1628 258.032 96.1383C260.219 94.1138 262.419 92.069 264.636 90.0208C265.053 89.7673 265.452 89.6676 265.842 89.7356C266.229 89.7989 266.56 89.982 266.837 90.2774C267.082 90.5409 267.23 90.8733 267.29 91.2694C267.352 91.6701 267.273 92.065 267.054 92.4661L262.837 96.3747C263.713 96.5048 264.493 96.8903 265.178 97.524C265.878 98.1736 266.318 98.9047 266.504 99.7145C266.682 100.522 266.674 101.344 266.482 102.172C266.291 103.001 265.961 103.796 265.5 104.549C265.039 105.302 264.533 105.931 263.992 106.437C263.253 107.12 262.39 107.706 261.409 108.198C260.426 108.685 259.384 108.919 258.284 108.899C256.934 108.837 255.863 108.37 255.05 107.493ZM258.798 101.285C258.57 101.529 258.357 101.758 258.161 101.971C257.965 102.184 257.786 102.45 257.623 102.763L257.602 102.737C257.508 102.922 257.418 103.124 257.337 103.352C257.253 103.575 257.187 103.776 257.15 103.94C256.976 104.527 257.018 104.958 257.279 105.238C257.458 105.428 257.717 105.54 258.053 105.57C258.39 105.601 258.763 105.553 259.176 105.433C259.603 105.262 260.025 105.061 260.432 104.833C260.838 104.604 261.215 104.324 261.572 103.999C261.905 103.688 262.221 103.281 262.519 102.778C262.818 102.275 263.053 101.815 263.222 101.392C263.284 101.076 263.305 100.777 263.282 100.509C263.257 100.237 263.182 100.031 263.052 99.8936C262.939 99.7722 262.768 99.6834 262.54 99.6345C262.311 99.5856 262.035 99.5954 261.715 99.6685C261.662 99.6862 261.507 99.7321 261.238 99.819C260.974 99.9032 260.772 99.9762 260.632 100.038C260.029 100.305 259.487 100.656 259.015 101.097L258.798 101.285Z" fill="#A6C942"/>
    <path d="M7.92194 262.337L7.81556 262.47L7.73306 262.618C6.73291 264.42 6.81677 266.473 7.61839 268.075C8.4229 269.683 10.0533 271 12.1977 271H207.804C209.946 271 211.574 269.677 212.378 268.075C213.18 266.476 213.272 264.421 212.268 262.617L212.184 262.466L212.076 262.332L184.786 228.551C183.869 227.021 182.25 226 180.417 226H39.4117C37.576 226 35.9536 227.019 35.0386 228.556L7.92194 262.337Z" fill="#211D21" stroke="#A6C942" stroke-width="4"/>
  </g>
  <defs>
    <clipPath id="clip0_179_723">
      <rect width="276" height="337" fill="white"/>
    </clipPath>
  </defs>
</svg>
