<svg width="303" height="323" viewBox="0 0 303 323" fill="none" xmlns="http://www.w3.org/2000/svg">
<g clip-path="url(#clip0_59_304)">
<path d="M218.275 274.385V353.588C218.275 354.336 217.679 354.941 216.949 354.941H31.4883C30.7523 354.941 30.1564 354.336 30.1564 353.588V274.385C30.1564 273.637 30.7523 273.031 31.4883 273.031H216.949C217.679 273.031 218.275 273.637 218.275 274.385Z" fill="#4D315A"/>
<path d="M244.505 292.522H4.19212C1.10894 292.522 -0.755306 288.005 0.855229 284.508L34.2891 234.296C34.9951 232.743 36.2636 231.797 37.626 231.797H210.858C212.215 231.797 213.483 232.743 214.195 234.296L247.842 284.508C249.452 287.997 247.572 292.522 244.505 292.522Z" fill="#4D315A"/>
<path fill-rule="evenodd" clip-rule="evenodd" d="M197.399 74.6064L150.575 97.6816C142.281 95.7345 133.46 94.6853 124.312 94.6853C113.781 94.6853 103.682 96.0761 94.3221 98.6265L51.9783 74.8043C48.7468 72.988 44.7991 75.3747 44.769 79.1685L44.3499 133.2C39.2103 141.598 36.3441 150.943 36.3441 160.793C36.3441 197.303 75.7289 226.9 124.312 226.9C172.896 226.9 212.281 197.303 212.281 160.793C212.281 149.644 208.608 139.14 202.123 129.926L204.367 79.3611C204.536 75.5735 200.721 72.9699 197.399 74.6064Z" fill="#4D315A"/>
<path d="M52.0466 345.411L72.6035 165.195H166.968L198.602 345.411H52.0466Z" fill="#4D315A"/>
<path d="M67.6671 311.583L67.4139 313.809H69.6543H178.655H181.035L180.625 311.464L157.097 177.068L156.807 175.413H155.127H84.9435H83.1581L82.9563 177.187L67.6671 311.583Z" fill="#211D21" stroke="#A6C942" stroke-width="4"/>
<path d="M98.8075 109.736L53.4207 136.536L53.7977 89.1524C53.7977 89.1523 53.7977 89.1522 53.7977 89.1521C53.8131 87.2879 55.7918 86.1414 57.3938 87.0188C57.394 87.0189 57.3942 87.019 57.3943 87.0191C57.3944 87.0191 57.3945 87.0191 57.3945 87.0192L98.8075 109.736Z" fill="#211D21" stroke="#A6C942" stroke-width="4"/>
<path fill-rule="evenodd" clip-rule="evenodd" d="M60.7753 113.445L60.8935 98.7822C60.9007 97.8754 61.8715 97.2996 62.6597 97.7386L75.4743 104.766C76.2445 105.187 76.2588 106.285 75.5065 106.731L69.9279 110.025L67.3098 105.335C67.0196 104.817 66.3676 104.629 65.8482 104.921C65.3287 105.212 65.146 105.867 65.4362 106.389L68.0761 111.118L62.4698 114.428C61.7175 114.874 60.7681 114.323 60.7753 113.445Z" fill="#A6C942"/>
<path d="M194.979 89.2158L194.979 89.216L192.824 136.553L148.934 107.348L191.504 86.8925C191.504 86.8925 191.504 86.8925 191.504 86.8924C193.149 86.1024 195.064 87.3532 194.979 89.2158Z" fill="#211D21" stroke="#A6C942" stroke-width="4"/>
<path fill-rule="evenodd" clip-rule="evenodd" d="M170.683 104.706L185.242 97.7085C186.145 97.2749 187.182 97.9671 187.135 98.9656L186.398 115.16C186.355 116.131 185.273 116.684 184.469 116.147L178.507 112.18L181.875 107.292C182.248 106.751 182.113 106.007 181.574 105.633C181.036 105.259 180.295 105.394 179.923 105.935L176.527 110.862L170.532 106.874C169.728 106.337 169.811 105.124 170.683 104.706Z" fill="#A6C942"/>
<path d="M202.175 161.533C202.175 176.934 193.66 191.046 179.556 201.381C165.452 211.715 145.871 218.168 124.155 218.168C102.438 218.168 82.857 211.715 68.7536 201.381C54.6489 191.046 46.134 176.934 46.134 161.533C46.134 146.133 54.6489 132.021 68.7536 121.686C82.857 111.352 102.438 104.899 124.155 104.899C145.871 104.899 165.452 111.352 179.556 121.686C193.66 132.021 202.175 146.133 202.175 161.533Z" fill="#211D21" stroke="#A6C942" stroke-width="4"/>
<path d="M103.307 159.334C103.307 165.793 98.0967 171.014 91.6876 171.014C85.2786 171.014 80.0681 165.793 80.0681 159.334C80.0681 152.875 85.2786 147.654 91.6876 147.654C98.0966 147.654 103.307 152.875 103.307 159.334Z" stroke="#A6C942" stroke-width="4"/>
<path d="M91.6876 168.989C96.9965 168.989 101.3 164.666 101.3 159.334C101.3 154.002 96.9965 149.679 91.6876 149.679C86.3788 149.679 82.0751 154.002 82.0751 159.334C82.0751 164.666 86.3788 168.989 91.6876 168.989Z" fill="#211D21"/>
<path d="M168.241 159.334C168.241 165.793 163.031 171.014 156.622 171.014C150.213 171.014 145.002 165.793 145.002 159.334C145.002 152.875 150.213 147.654 156.622 147.654C163.031 147.654 168.241 152.875 168.241 159.334Z" stroke="#A6C942" stroke-width="4"/>
<path d="M156.622 168.989C161.93 168.989 166.234 164.666 166.234 159.334C166.234 154.002 161.93 149.679 156.622 149.679C151.313 149.679 147.009 154.002 147.009 159.334C147.009 164.666 151.313 168.989 156.622 168.989Z" fill="#211D21"/>
<path d="M119.886 169.528C119.645 169.239 119.224 169.205 118.943 169.441L119.886 169.528ZM119.886 169.528C121.813 171.854 123.051 173.272 123.881 173.272M119.886 169.528L123.881 173.272M118.622 169.057L118.622 169.057C119.114 168.645 119.852 168.706 120.27 169.208L120.271 169.209L120.271 169.209C121.238 170.376 122.013 171.292 122.646 171.916C122.962 172.228 123.227 172.451 123.448 172.593C123.675 172.739 123.812 172.772 123.881 172.772C123.95 172.772 124.082 172.74 124.302 172.595C124.517 172.453 124.774 172.23 125.082 171.915C125.701 171.285 126.459 170.361 127.429 169.178L127.434 169.171L127.434 169.171L127.545 169.041C127.956 168.538 128.691 168.472 129.189 168.879C129.694 169.291 129.759 170.029 129.355 170.528L129.348 170.537L129.348 170.537L129.237 170.668L129.231 170.675C128.08 172.08 127.183 173.176 126.385 173.915C125.58 174.661 124.802 175.116 123.881 175.116C122.971 175.116 122.174 174.655 121.352 173.914C120.533 173.175 119.615 172.087 118.471 170.708L118.622 169.057ZM118.622 169.057L118.621 169.058M118.622 169.057L118.621 169.058M118.621 169.058C118.122 169.478 118.062 170.215 118.471 170.708L118.621 169.058ZM123.881 173.272C124.717 173.272 125.888 171.847 127.815 169.494L123.881 173.272Z" fill="#A6C942" stroke="#A6C942"/>
<path d="M119.291 179L119.29 179C118.875 178.909 118.572 178.697 118.363 178.374C118.147 178.041 118.011 177.556 118.011 176.901C118.011 176.257 117.488 175.729 116.842 175.729C116.195 175.729 115.672 176.257 115.672 176.901C115.672 179.152 116.805 180.863 118.796 181.294C119.11 181.364 119.427 181.393 119.746 181.393C121.314 181.393 122.921 180.619 124.037 179.385C125.461 180.846 127.545 181.581 129.454 181.11C131.462 180.617 132.631 178.946 132.631 176.76C132.631 176.116 132.108 175.588 131.462 175.588C130.816 175.588 130.293 176.116 130.293 176.76C130.293 177.366 130.152 177.829 129.922 178.161C129.695 178.486 129.358 178.72 128.893 178.835L128.891 178.836C127.73 179.127 125.934 178.554 125.027 176.819C124.835 176.445 124.423 176.161 123.948 176.193C123.502 176.21 123.112 176.483 122.931 176.882L122.93 176.883C122.573 177.674 121.95 178.272 121.259 178.638C120.561 179.008 119.835 179.12 119.291 179Z" fill="#A6C942" stroke="#A6C942"/>
<path d="M122.738 177.714C122.738 178.358 123.261 178.886 123.908 178.886C124.554 178.886 125.077 178.358 125.077 177.714V174.065C125.077 173.421 124.554 172.893 123.908 172.893C123.261 172.893 122.738 173.421 122.738 174.065V177.714Z" fill="#A6C942" stroke="#A6C942"/>
<path d="M207.898 341.994V273.943C207.898 272.209 206.498 270.78 204.745 270.78H43.5689C41.8164 270.78 40.4114 272.204 40.4114 273.943V341.994C40.4114 343.733 41.8164 345.156 43.5689 345.156H204.745C206.498 345.156 207.898 343.727 207.898 341.994Z" fill="#211D21" stroke="#A6C942" stroke-width="4"/>
<path d="M18.3492 277.092L18.3489 277.092L208.66 242.461L206.954 243.504L208.657 242.457L208.658 242.458C207.639 240.795 205.826 239.781 203.882 239.781H44.427C42.4816 239.781 40.665 240.792 39.6491 242.461C39.6479 242.463 39.6468 242.465 39.6456 242.467L18.3492 277.092ZM229.959 277.091L228.256 278.139L229.96 277.092C229.96 277.091 229.959 277.091 229.959 277.091Z" fill="#211D21" stroke="#A6C942" stroke-width="4"/>
<g filter="url(#filter0_d_59_304)">
<path d="M93.2607 32.6573C93.9274 32.5653 94.4522 32.6613 94.8425 32.9473C95.2328 33.2333 95.438 33.5889 95.468 34.0207C95.4835 34.2862 95.407 34.555 95.2298 34.8446C95.0573 35.1314 94.7719 35.3961 94.3782 35.636C93.3919 35.9876 92.3341 36.2806 91.1977 36.5131C90.0612 36.7455 88.9104 36.8989 87.7359 36.9786C85.9691 37.0949 84.3072 37.0133 82.7577 36.7359C81.9399 36.3599 81.5389 35.8493 81.5473 35.2019L80.5748 19.781C80.232 19.6859 79.977 19.5151 79.8078 19.276C79.6386 19.0369 79.5431 18.7739 79.5216 18.4869C79.4986 18.1758 79.5951 17.8767 79.8039 17.5876C80.0127 17.2986 80.3519 17.0402 80.8194 16.82C82.1298 16.3248 83.4957 15.991 84.9117 15.8091C86.3257 15.6347 87.766 15.4949 89.2185 15.398C89.743 15.3633 90.2648 15.3238 90.7764 15.2777C91.2881 15.2316 91.7971 15.1808 92.296 15.1234C92.8944 15.1082 93.4045 15.2439 93.8358 15.525C94.2624 15.8088 94.4849 16.1294 94.508 16.4841C94.5311 16.8388 94.4132 17.1876 94.1582 17.5159C93.9032 17.8442 93.4928 18.0875 92.927 18.246C92.4523 18.3019 91.9433 18.3527 91.4075 18.4003C90.8716 18.4479 90.3257 18.4889 89.777 18.5252C88.8006 18.5903 87.837 18.6667 86.8983 18.7537C85.9549 18.8434 85.0123 18.9888 84.0658 19.1925L84.4459 25.1676C84.6891 25.1768 84.9141 25.1654 85.131 25.1399C85.3478 25.1144 85.5842 25.0901 85.8454 25.0764C86.7735 25.0143 87.7122 24.9273 88.6522 24.8208C89.5895 24.7097 90.5496 24.5729 91.5231 24.416C92.1898 24.3239 92.7173 24.4246 93.1083 24.7227C93.4993 25.0208 93.7065 25.369 93.7304 25.7794C93.7535 26.1341 93.6423 26.4729 93.3987 26.7883C93.155 27.1038 92.7587 27.339 92.2171 27.496C91.1752 27.6862 90.1265 27.843 89.0811 27.9729C88.0357 28.1028 86.9741 28.2047 85.901 28.2757C85.6351 28.2921 85.4276 28.3122 85.2739 28.3387C85.1202 28.3651 84.9093 28.3684 84.6446 28.3654L84.9884 33.8C85.4431 33.818 85.8831 33.832 86.3056 33.8375C86.7234 33.8456 87.1619 33.8355 87.6186 33.8025C88.595 33.7374 89.5604 33.61 90.5096 33.4109C91.4568 33.2192 92.3642 32.9694 93.2325 32.6735L93.2607 32.6573Z" fill="#A6C942"/>
<path d="M98.814 16.2075C98.9222 15.7332 99.1443 15.3803 99.4728 15.1469C99.8039 14.9181 100.159 14.8066 100.54 14.8169C100.898 14.8288 101.249 14.95 101.586 15.1861C101.922 15.4221 102.16 15.7587 102.292 16.1939C102.284 16.3858 102.274 16.5851 102.255 16.8019C102.236 17.0187 102.226 17.218 102.218 17.4099C102.177 18.0326 102.138 18.6601 102.107 19.2895C102.078 19.9235 102.053 20.5744 102.031 21.242C101.972 23.2225 102.055 25.221 102.283 27.2226C102.512 29.2241 103.03 31.077 103.842 32.7664C103.935 32.8624 104.044 32.9865 104.171 33.1313C104.298 33.276 104.407 33.3881 104.501 33.4646L105.07 33.6596L105.47 33.5284L106.21 32.9013C106.815 31.8658 107.297 30.7701 107.654 29.6215C108.012 28.4729 108.299 27.2898 108.512 26.075C108.725 24.8602 108.887 23.6317 108.984 22.3901C109.081 21.1485 109.172 19.917 109.254 18.7031C109.266 18.4407 109.275 18.1858 109.296 17.93C109.316 17.6817 109.342 17.4233 109.373 17.1622C109.483 16.7121 109.703 16.3666 110.034 16.1378C110.365 15.909 110.72 15.7975 111.101 15.8078C111.459 15.8197 111.81 15.941 112.152 16.1743C112.488 16.4103 112.726 16.7469 112.856 17.1774C112.812 17.8948 112.772 18.6168 112.734 19.3435C112.699 20.0749 112.672 20.8083 112.647 21.5463C112.589 23.5074 112.67 25.4696 112.884 27.4358C113.098 29.4019 113.636 31.256 114.495 33.0054L115.191 33.6699C115.5 33.772 115.697 33.8204 115.779 33.8105C115.861 33.8006 115.978 33.7764 116.121 33.7312C116.837 33.0305 117.372 32.1665 117.724 31.1394C118.082 30.1095 118.366 29.072 118.588 28.0262C118.958 26.1718 119.218 24.3 119.37 22.4155C119.522 20.5309 119.649 18.6358 119.753 16.7227C119.862 16.2485 120.084 15.8956 120.412 15.6621C120.743 15.4334 121.11 15.3211 121.519 15.3346C121.854 15.3406 122.189 15.4653 122.533 15.7033C122.874 15.9366 123.107 16.276 123.239 16.7112C123.142 18.2895 123.037 19.8537 122.916 21.402C122.795 22.9503 122.62 24.5117 122.381 26.0842C122.142 27.6325 121.835 29.1511 121.455 30.6305C121.074 32.1174 120.456 33.5534 119.603 34.9385C119.153 35.6228 118.564 36.1316 117.834 36.4722C117.104 36.8128 116.332 36.9719 115.523 36.9467C114.755 36.9287 114.013 36.7273 113.295 36.3501C112.576 35.9729 111.995 35.4539 111.566 34.7972C111.294 34.3367 111.062 33.8787 110.873 33.4324C110.684 32.9862 110.522 32.5311 110.396 32.0737C110.217 32.5014 109.998 32.9462 109.744 33.4173C109.49 33.8884 109.223 34.3483 108.948 34.794C108.498 35.4784 107.913 35.9723 107.197 36.2927C106.477 36.6085 105.717 36.7547 104.903 36.7323C104.089 36.7098 103.33 36.512 102.624 36.134C101.917 35.756 101.345 35.2196 100.911 34.5099C100.364 33.5406 99.9319 32.4989 99.6052 31.3901C99.2784 30.2813 99.0302 29.1458 98.8652 27.981C98.6955 26.8189 98.6023 25.6375 98.5763 24.4423C98.5502 23.2471 98.5611 22.0617 98.5922 20.8897C98.6176 20.0765 98.649 19.2848 98.6812 18.5051C98.7161 17.7301 98.759 16.9692 98.8034 16.2324L98.814 16.2075ZM124.043 37.1017C124.019 37.939 123.859 38.637 123.568 39.1855C123.275 39.7414 122.779 40.1718 122.074 40.4914C121.033 40.9433 119.946 41.1533 118.821 41.1234C116.741 41.0652 115.713 40.5859 115.74 39.6782C115.751 39.2729 115.9 38.9561 116.18 38.7377C116.461 38.5193 116.807 38.4131 117.213 38.422C117.594 38.4324 117.929 38.4699 118.212 38.5372C118.495 38.6046 118.771 38.6384 119.033 38.6488C120.348 38.6816 121.06 38.1264 121.166 36.9861C120.862 36.6439 120.141 36.4243 118.997 36.318C117.393 36.2281 116.602 35.8989 116.619 35.3213C116.624 35.2749 116.63 35.2092 116.644 35.1259C116.659 35.0426 116.697 34.9143 116.762 34.7334C116.829 34.5572 116.919 34.3119 117.038 34.0066C117.156 33.7013 117.328 33.2957 117.557 32.802C117.813 32.2362 118.279 31.9603 118.948 31.9796C119.927 32.0064 120.404 32.4858 120.378 33.4177C120.371 33.6773 120.323 33.9298 120.247 34.1671C122.825 34.5992 124.087 35.5727 124.043 37.1017Z" fill="#A6C942"/>
<path d="M134.655 12.9937C134.618 13.277 134.498 13.546 134.287 13.7989C134.076 14.0517 133.815 14.2714 133.501 14.4652C133.187 14.659 132.851 14.8033 132.49 14.9055C132.13 15.0076 131.782 15.0339 131.448 14.9964C130.856 14.9263 130.363 14.6564 129.974 14.1886C129.585 13.7208 129.428 13.1999 129.495 12.6313C129.532 12.348 129.664 12.0782 129.902 11.8285C130.139 11.5788 130.416 11.3631 130.741 11.1686C131.065 10.9814 131.409 10.8391 131.77 10.749C132.131 10.6589 132.44 10.6301 132.701 10.66C133.293 10.7301 133.784 10.9954 134.176 11.4484C134.57 11.9135 134.728 12.4271 134.655 12.9937ZM138.435 34.8333C139.104 34.8647 139.608 35.0541 139.939 35.4116C140.271 35.7691 140.405 36.1533 140.357 36.5802C140.326 36.8414 140.198 37.0964 139.972 37.3453C139.746 37.5942 139.421 37.8008 138.992 37.9679C137.96 38.1332 136.862 38.2253 135.703 38.2459C134.545 38.2665 133.381 38.2026 132.218 38.0636C130.464 37.8545 128.845 37.4674 127.371 36.9091C126.64 36.3897 126.337 35.81 126.465 35.1747L128.36 19.8312C128.042 19.6716 127.821 19.4623 127.696 19.1914C127.574 18.9252 127.526 18.6471 127.563 18.3638C127.599 18.0564 127.75 17.7757 128.01 17.5319C128.27 17.2882 128.646 17.0953 129.146 16.9627C130.527 16.7201 131.927 16.6409 133.351 16.7227C134.778 16.809 136.209 16.9363 137.661 17.1084C138.183 17.1682 138.699 17.2261 139.216 17.2765C139.726 17.325 140.233 17.3688 140.735 17.4033C141.328 17.4975 141.802 17.7226 142.169 18.0779C142.532 18.4358 142.694 18.7917 142.654 19.1455C142.609 19.5019 142.433 19.8156 142.124 20.0939C141.813 20.3675 141.364 20.5333 140.78 20.5839C140.302 20.5479 139.798 20.5088 139.261 20.4571C138.724 20.4055 138.185 20.3491 137.637 20.2787C136.662 20.162 135.707 20.0586 134.763 19.9739C133.824 19.8865 132.866 19.8536 131.903 19.8864L131.17 25.8308C131.406 25.8817 131.631 25.9138 131.845 25.9272C132.059 25.9407 132.299 25.9647 132.56 25.9946C133.488 26.1069 134.42 26.1923 135.365 26.2575C136.311 26.3228 137.274 26.3651 138.258 26.3891C138.927 26.4205 139.429 26.6173 139.758 26.9822C140.087 27.3471 140.226 27.7286 140.177 28.1314C140.132 28.4878 139.961 28.7988 139.663 29.0643C139.366 29.3297 138.939 29.4894 138.374 29.5412C137.313 29.5363 136.258 29.4973 135.206 29.4314C134.154 29.3655 133.091 29.2688 132.023 29.1433C131.762 29.1133 131.549 29.0925 131.396 29.0874C131.243 29.0824 131.03 29.0495 130.775 28.9974L130.106 34.4122C130.553 34.5154 130.981 34.6053 131.388 34.694C131.801 34.78 132.23 34.8504 132.684 34.8999C133.659 35.0166 134.628 35.0683 135.595 35.0522C136.562 35.0361 137.497 34.9639 138.408 34.8302L138.435 34.8333ZM141.926 13.577C141.886 13.8872 141.764 14.1636 141.553 14.4165C141.342 14.6694 141.078 14.8843 140.768 15.0633C140.458 15.2423 140.132 15.3812 139.795 15.4698C139.461 15.5631 139.144 15.5899 138.863 15.5588C138.272 15.4887 137.787 15.2328 137.423 14.7876C137.055 14.3452 136.907 13.8383 136.981 13.2717C137.018 12.9884 137.145 12.7213 137.368 12.4677C137.594 12.2188 137.858 12.0038 138.172 11.8221C138.482 11.6431 138.809 11.5042 139.146 11.4156C139.483 11.3269 139.781 11.2915 140.043 11.3215C140.634 11.3916 141.12 11.6475 141.488 12.0899C141.843 12.5331 141.991 13.0279 141.926 13.577Z" fill="#A6C942"/>
<path d="M166.763 43.1493C166.579 43.6985 166.29 44.0652 165.894 44.2689C165.503 44.4699 165.094 44.5194 164.677 44.4167C164.284 44.3199 163.946 44.1033 163.657 43.765C163.372 43.424 163.274 42.9818 163.358 42.4339L165.484 33.8257C165.182 34.1496 164.859 34.4675 164.506 34.7897C164.159 35.1091 163.755 35.386 163.303 35.6222C162.906 35.8454 162.542 36.006 162.227 36.1005C161.908 36.1977 161.584 36.2662 161.252 36.3085C160.227 36.2578 159.426 35.9536 158.837 35.389C158.251 34.8292 157.818 34.1436 157.551 33.3437C157.281 32.5391 157.145 31.6752 157.138 30.7502C157.13 29.8252 157.201 28.9729 157.343 28.1986C157.413 27.8211 157.479 27.4464 157.549 27.069C157.619 26.6916 157.706 26.2791 157.818 25.8216C157.93 25.3641 158.06 24.8522 158.216 24.2756C158.371 23.6991 158.574 23.0083 158.818 22.2058C159.05 21.7724 159.355 21.4773 159.742 21.3227C160.123 21.1707 160.5 21.1402 160.872 21.2311C161.288 21.3339 161.642 21.5785 161.929 21.9678C162.216 22.3571 162.261 22.8365 162.071 23.4078C161.935 23.8668 161.799 24.3138 161.669 24.7506C161.539 25.1874 161.417 25.6262 161.307 26.0642C161.208 26.458 161.098 26.9832 160.972 27.6427C160.845 28.3022 160.754 28.979 160.688 29.6784C160.626 30.3751 160.607 31.0353 160.626 31.6543C160.645 32.2733 160.761 32.7556 160.968 33.1038C160.99 33.1097 161.05 33.1375 161.152 33.1845C161.249 33.2342 161.41 33.1976 161.639 33.0842C162.2 32.6038 162.718 32.08 163.194 31.5055C163.67 30.931 164.118 30.3292 164.546 29.6947C164.975 29.0601 165.387 28.4169 165.782 27.7577C166.181 27.1032 166.578 26.4561 166.984 25.8157C167.144 25.5611 167.319 25.279 167.503 24.9793C167.687 24.6797 167.892 24.4054 168.115 24.1518C168.338 23.8982 168.589 23.7034 168.865 23.5749C169.141 23.4464 169.453 23.4223 169.802 23.5074C170.152 23.5924 170.461 23.7817 170.731 24.0872C171.004 24.3854 171.159 24.7634 171.193 25.212L166.763 43.1493Z" fill="#A6C942"/>
<path d="M178.684 27.7422C178.783 27.1426 179.045 26.7291 179.477 26.4917C179.91 26.2542 180.349 26.2126 180.804 26.3614C181.051 26.443 181.291 26.5978 181.52 26.8211C181.749 27.0444 181.922 27.3559 182.042 27.7482L182.232 32.4169C182.289 33.4696 182.342 34.4305 182.393 35.2995C182.446 36.1732 182.479 37.1402 182.507 38.2092L185.574 35.096C185.7 34.9355 185.846 34.7763 185.997 34.6144C186.152 34.4498 186.291 34.2886 186.42 34.1328C186.749 33.7371 187.115 33.3196 187.514 32.8831C187.913 32.4467 188.336 32.0402 188.792 31.6584C189.243 31.2793 189.711 30.9524 190.193 30.6805C190.674 30.4085 191.16 30.2525 191.65 30.2126C192.059 30.1946 192.414 30.2454 192.721 30.3549C193.024 30.467 193.266 30.6265 193.451 30.838C193.635 31.0495 193.743 31.2802 193.79 31.5341C193.829 31.7861 193.816 32.0243 193.742 32.2542C193.563 32.8006 193.075 33.1699 192.278 33.362C192.225 33.3677 192.142 33.397 192.021 33.4481C191.905 33.4964 191.78 33.5623 191.654 33.6476C191.36 33.9298 191.096 34.1883 190.865 34.4279C190.634 34.6674 190.389 34.9151 190.13 35.171C189.87 35.4268 189.58 35.7257 189.263 36.0772C188.946 36.4286 188.551 36.8503 188.086 37.3563C187.127 38.3529 186.344 39.1547 185.742 39.7587C185.137 40.3702 184.651 40.8629 184.285 41.2488C183.92 41.6348 183.622 41.9318 183.401 42.1465C183.176 42.3638 182.989 42.5595 182.827 42.7342C182.365 43.2134 181.973 43.6203 181.646 43.953C181.321 44.2904 181.044 44.5691 180.819 44.7986C180.595 45.028 180.4 45.2218 180.245 45.3864C180.089 45.551 179.936 45.7083 179.785 45.8581C179.474 46.1874 179.152 46.4979 178.817 46.7851C178.48 47.0796 178.121 47.3247 177.737 47.5276C177.354 47.7305 176.938 47.8774 176.477 47.9688C176.021 48.0574 175.531 48.0538 175.006 47.9578C174.673 47.9008 174.358 47.8209 174.063 47.7228C173.769 47.6247 173.503 47.4788 173.266 47.273C172.599 46.7788 171.996 46.1352 171.45 45.3404C170.904 44.5456 170.435 43.7556 170.04 42.9733C169.772 42.4109 169.714 41.9081 169.854 41.478C169.976 41.1143 170.219 40.8425 170.597 40.6617C170.97 40.4837 171.386 40.4677 171.841 40.6165C172.044 40.6863 172.249 40.7803 172.443 40.9112C172.642 41.0394 172.803 41.2088 172.93 41.4287C173.095 41.6074 173.27 41.8995 173.456 42.2974C173.637 42.6981 173.864 43.0911 174.124 43.4772C174.384 43.8633 174.685 44.1887 175.01 44.4496C175.336 44.7106 175.738 44.7778 176.211 44.6541L179.203 41.5527C179.154 39.797 179.099 38.0513 179.031 36.3064C178.968 34.5588 178.897 32.8092 178.826 31.0476L178.684 27.7422Z" fill="#A6C942"/>
<path d="M211.471 38.2084C211.843 38.5489 212.089 38.9116 212.197 39.2926C212.306 39.6783 212.289 40.0064 212.143 40.2843C211.977 40.6047 211.719 40.8411 211.359 40.9868C210.999 41.1326 210.541 41.1536 209.987 41.0497L205.119 39.034C204.003 41.6564 202.89 44.2833 201.775 46.9177C200.662 49.5568 199.549 52.1838 198.43 54.8014C198.167 55.3652 197.806 55.7048 197.35 55.825C196.893 55.9452 196.472 55.9204 196.077 55.7558C195.703 55.5971 195.409 55.3246 195.197 54.9355C194.985 54.5464 194.958 54.0878 195.106 53.5529L201.848 37.6491L196.925 35.5714C196.42 35.227 196.102 34.8614 195.975 34.4671C195.843 34.0755 195.863 33.7085 196.039 33.3633C196.211 33.0208 196.502 32.7654 196.907 32.5999C197.312 32.4344 197.827 32.4802 198.441 32.7426C200.752 33.7217 202.687 34.5375 204.252 35.1992C205.817 35.8609 207.095 36.395 208.092 36.7986C209.086 37.2097 209.842 37.5216 210.362 37.7391C210.881 37.9565 211.254 38.1152 211.471 38.2084Z" fill="#A6C942"/>
<path d="M212.368 62.0041C211.41 61.5156 210.7 60.7842 210.233 59.8004C209.926 60.2893 209.565 60.5853 209.144 60.6791C208.722 60.773 208.319 60.7252 207.932 60.5311C207.569 60.3475 207.29 60.0595 207.102 59.6689C206.915 59.2783 206.922 58.8248 207.128 58.3131C208.506 55.6576 209.877 53.0001 211.231 50.3461C212.586 47.6921 213.946 45.016 215.32 42.3317C215.626 41.9494 215.969 41.7199 216.353 41.6478C216.737 41.5756 217.111 41.6276 217.474 41.8112C217.794 41.9755 218.054 42.2308 218.247 42.5872C218.444 42.9408 218.507 43.3415 218.441 43.7914L215.83 48.9116C216.698 48.7345 217.562 48.8217 218.432 49.1799C219.32 49.5466 219.984 50.0798 220.435 50.7739C220.885 51.4681 221.163 52.2431 221.268 53.087C221.374 53.9309 221.341 54.7857 221.171 55.6514C221 56.5171 220.744 57.2766 220.406 57.9395C219.951 58.8324 219.346 59.6814 218.587 60.4817C217.833 61.2792 216.935 61.8603 215.896 62.2176C214.609 62.612 213.435 62.5414 212.368 62.0041ZM213.746 54.8885C213.613 55.2019 213.497 55.4877 213.386 55.7514C213.278 56.0197 213.199 56.3274 213.151 56.6792L213.119 56.6666C213.092 56.8694 213.083 57.0928 213.083 57.3303C213.082 57.5677 213.089 57.7756 213.109 57.9513C213.147 58.5594 213.335 58.95 213.68 59.1249C213.917 59.2435 214.195 59.2579 214.524 59.1673C214.854 59.0767 215.186 58.9036 215.535 58.6519C215.876 58.3426 216.203 58.0098 216.505 57.6545C216.807 57.2991 217.068 56.905 217.286 56.4798C217.49 56.0747 217.651 55.5827 217.756 55.0045C217.86 54.4263 217.923 53.9161 217.937 53.4646C217.885 53.1456 217.803 52.8624 217.684 52.6129C217.568 52.3681 217.427 52.1999 217.252 52.1138C217.102 52.0383 216.914 52.016 216.683 52.0496C216.452 52.0832 216.199 52.1861 215.92 52.3656C215.876 52.3974 215.746 52.4975 215.525 52.6686C215.305 52.8396 215.141 52.9782 215.033 53.0841C214.557 53.5399 214.175 54.0601 213.881 54.6355L213.746 54.8885Z" fill="#A6C942"/>
<path d="M222.967 61.7717C222.501 61.3862 222.215 60.9895 222.111 60.5817C222.008 60.1738 222.045 59.8153 222.228 59.5036C222.42 59.1744 222.748 58.9409 223.202 58.804C223.655 58.667 224.16 58.7618 224.718 59.0884L228.767 61.4647C229.222 61.7322 229.667 61.9931 230.111 62.2539C230.556 62.5148 230.965 62.7464 231.341 62.9533C231.717 63.1603 232.043 63.3461 232.325 63.508C232.601 63.6727 232.807 63.7908 232.93 63.8631C233.312 64.2539 233.533 64.6375 233.595 65.0262C233.661 65.4122 233.605 65.75 233.433 66.0368C233.263 66.3283 232.988 66.5246 232.602 66.6356C232.22 66.744 231.755 66.7194 231.205 66.5692C230.524 66.1702 229.829 65.7674 229.111 65.3586C228.396 64.9545 227.708 64.5536 227.047 64.168L222.967 61.7717Z" fill="#A6C942"/>
<path d="M243.087 79.4005C242.725 79.8468 242.325 80.0968 241.886 80.1505C241.445 80.1996 241.052 80.1027 240.696 79.8655C240.357 79.6368 240.115 79.315 239.967 78.8954C239.819 78.4757 239.88 78.0286 240.15 77.5419L245.135 70.2014C244.741 70.3977 244.325 70.5881 243.884 70.7679C243.443 70.9477 242.97 71.0714 242.467 71.1316C242.012 71.2008 241.621 71.2274 241.289 71.2066C240.958 71.1859 240.63 71.1383 240.306 71.0638C239.368 70.6638 238.721 70.0956 238.368 69.364C238.014 68.6323 237.847 67.8432 237.878 66.9958C237.908 66.1484 238.077 65.2901 238.395 64.4201C238.713 63.5501 239.073 62.7745 239.474 62.0932C239.671 61.7612 239.863 61.432 240.059 61.1001C240.256 60.7682 240.483 60.4126 240.746 60.0233C241.005 59.6366 241.31 59.1987 241.659 58.7095C242.005 58.2231 242.434 57.6442 242.944 56.9756C243.31 56.6453 243.701 56.4759 244.115 56.4673C244.527 56.454 244.892 56.555 245.205 56.7731C245.564 57.015 245.805 57.3684 245.934 57.8304C246.066 58.2971 245.945 58.7601 245.567 59.234C245.281 59.6174 244.995 59.9888 244.723 60.3521C244.446 60.718 244.181 61.0832 243.924 61.4625C243.693 61.8013 243.405 62.2552 243.06 62.8289C242.715 63.4025 242.388 64.0089 242.086 64.6454C241.783 65.2818 241.535 65.8931 241.337 66.482C241.138 67.0708 241.08 67.5662 241.151 67.9615C241.171 67.9748 241.218 68.0228 241.295 68.1028C241.373 68.1829 241.537 68.2067 241.787 68.1742C242.478 67.9184 243.149 67.6057 243.789 67.2294C244.432 66.8578 245.063 66.4434 245.687 65.9955C246.307 65.5502 246.915 65.0863 247.516 64.6083C248.116 64.1303 248.715 63.6598 249.314 63.2012C249.553 63.0193 249.814 62.8191 250.092 62.596C250.368 62.3804 250.657 62.188 250.954 62.0292C251.25 61.8704 251.553 61.7767 251.857 61.7506C252.161 61.7246 252.462 61.8126 252.761 62.0147C253.059 62.2167 253.279 62.5011 253.427 62.8772C253.575 63.2532 253.589 63.657 253.467 64.0958L243.087 79.4005Z" fill="#A6C942"/>
<path d="M259.602 69.0572C259.898 68.5302 260.293 68.2273 260.779 68.1585C261.263 68.0851 261.696 68.1964 262.068 68.4933C262.274 68.655 262.442 68.882 262.578 69.1716C262.714 69.4612 262.766 69.8117 262.746 70.2223L261.303 74.6743C260.988 75.6798 260.707 76.6031 260.45 77.4378C260.195 78.2771 259.895 79.1993 259.544 80.2069L263.501 78.3445C263.677 78.2367 263.863 78.1357 264.068 78.0358C264.269 77.9386 264.459 77.8348 264.635 77.7271C265.081 77.4694 265.567 77.2068 266.093 76.9346C266.618 76.6623 267.157 76.4255 267.711 76.2242C268.264 76.0229 268.819 75.8773 269.362 75.7881C269.905 75.6988 270.413 75.7232 270.889 75.8537C271.28 75.9774 271.595 76.1444 271.843 76.3569C272.088 76.5646 272.262 76.801 272.357 77.064C272.457 77.3243 272.479 77.5797 272.431 77.8322C272.383 78.0847 272.284 78.304 272.135 78.4901C271.775 78.941 271.193 79.115 270.382 79.0221C270.331 79.0084 270.239 79.0116 270.115 79.0144C269.987 79.0199 269.85 79.0429 269.699 79.074C269.323 79.2353 268.992 79.389 268.687 79.5337C268.39 79.6805 268.074 79.826 267.74 79.9749C267.407 80.1239 267.032 80.3093 266.613 80.5266C266.194 80.7438 265.678 81.0106 265.067 81.3196C263.824 81.9196 262.814 82.4035 262.034 82.7665C261.255 83.1295 260.632 83.4272 260.153 83.6602C259.674 83.8933 259.296 84.0741 259.013 84.2006C258.729 84.3271 258.483 84.444 258.271 84.554C257.674 84.8428 257.165 85.0874 256.745 85.2926C256.322 85.4931 255.968 85.6603 255.678 85.7969C255.387 85.9335 255.142 86.0504 254.936 86.1503C254.731 86.2502 254.535 86.3446 254.344 86.4364C253.941 86.6381 253.529 86.8137 253.114 86.9726C252.699 87.1314 252.273 87.2401 251.849 87.2977C251.421 87.358 250.976 87.3467 250.521 87.2731C250.058 87.1975 249.601 87.0246 249.147 86.7571C248.855 86.5885 248.588 86.4064 248.343 86.2107C248.102 86.0197 247.904 85.7848 247.754 85.5154C247.301 84.8166 246.958 84.0045 246.726 83.0715C246.495 82.1386 246.33 81.2354 246.233 80.3621C246.18 79.7379 246.292 79.2489 246.582 78.8943C246.822 78.5936 247.144 78.426 247.559 78.3858C247.974 78.3457 248.367 78.474 248.739 78.7709C248.909 78.9033 249.059 79.066 249.199 79.2537C249.339 79.4413 249.434 79.6607 249.477 79.9099C249.571 80.1367 249.631 80.4697 249.667 80.9109C249.7 81.3473 249.769 81.7936 249.883 82.2517C249.995 82.7051 250.162 83.1139 250.379 83.4688C250.599 83.8283 250.945 84.0273 251.431 84.0773L255.31 82.1979C255.87 80.5329 256.426 78.8707 256.969 77.2092C257.513 75.5477 258.059 73.8789 258.603 72.1979L259.602 69.0572Z" fill="#A6C942"/>
<path d="M286.697 90.2357C286.929 90.6816 287.031 91.1089 286.999 91.5082C286.966 91.9075 286.836 92.2136 286.606 92.4216C286.341 92.6681 286.014 92.7949 285.626 92.8067C285.239 92.8185 284.801 92.6783 284.316 92.3909L280.456 88.8135C278.501 90.8916 276.545 92.9697 274.593 95.0646C272.638 97.1548 270.68 99.2403 268.73 101.316C268.287 101.752 267.83 101.948 267.362 101.906C266.894 101.865 266.505 101.69 266.192 101.397C265.894 101.12 265.718 100.76 265.654 100.323C265.589 99.8863 265.721 99.4421 266.049 98.9907L277.879 86.3852L273.987 82.7322C273.633 82.238 273.464 81.781 273.481 81.3656C273.493 80.953 273.641 80.6121 273.921 80.3501C274.202 80.088 274.56 79.9496 275.001 79.9322C275.441 79.9147 275.903 80.1405 276.391 80.595C278.218 82.3088 279.751 83.7502 280.983 84.9097C282.22 86.0665 283.231 87.0167 284.026 87.7429C284.815 88.4718 285.415 89.0235 285.826 89.41C286.232 89.7992 286.522 90.0744 286.697 90.2357Z" fill="#A6C942"/>
<path d="M279.286 112.887C278.556 112.098 278.142 111.165 278.052 110.075C277.6 110.43 277.155 110.581 276.727 110.523C276.299 110.464 275.936 110.281 275.646 109.962C275.369 109.667 275.212 109.296 275.169 108.865C275.127 108.434 275.289 108.01 275.666 107.599C277.879 105.577 280.081 103.557 282.268 101.532C284.454 99.5077 286.654 97.463 288.871 95.4148C289.288 95.1613 289.688 95.0616 290.077 95.1296C290.464 95.1929 290.795 95.376 291.072 95.6714C291.318 95.9348 291.466 96.2673 291.526 96.6633C291.588 97.0641 291.509 97.459 291.29 97.8601L287.073 101.769C287.949 101.899 288.729 102.284 289.413 102.918C290.114 103.568 290.554 104.299 290.74 105.108C290.918 105.916 290.91 106.738 290.718 107.566C290.526 108.395 290.197 109.19 289.736 109.943C289.275 110.696 288.768 111.325 288.228 111.831C287.489 112.514 286.625 113.1 285.645 113.592C284.661 114.079 283.62 114.313 282.52 114.293C281.169 114.231 280.099 113.764 279.286 112.887ZM283.034 106.679C282.805 106.923 282.593 107.152 282.397 107.365C282.201 107.578 282.022 107.844 281.858 108.157L281.837 108.131C281.744 108.316 281.654 108.518 281.572 108.746C281.488 108.969 281.422 109.17 281.386 109.334C281.212 109.921 281.254 110.352 281.515 110.632C281.694 110.822 281.952 110.934 282.289 110.964C282.626 110.995 282.999 110.947 283.412 110.827C283.838 110.656 284.261 110.455 284.667 110.227C285.074 109.998 285.45 109.718 285.807 109.393C286.141 109.082 286.457 108.675 286.755 108.172C287.053 107.669 287.289 107.209 287.458 106.786C287.52 106.47 287.541 106.171 287.518 105.903C287.492 105.631 287.417 105.425 287.288 105.288C287.174 105.166 287.004 105.077 286.776 105.028C286.547 104.98 286.271 104.989 285.95 105.062C285.898 105.08 285.743 105.126 285.474 105.213C285.209 105.297 285.007 105.37 284.868 105.432C284.265 105.699 283.722 106.05 283.251 106.491L283.034 106.679Z" fill="#A6C942"/>
</g>
</g>
<defs>
<filter id="filter0_d_59_304" x="79.5182" y="6.64868" width="215.028" height="107.646" filterUnits="userSpaceOnUse" color-interpolation-filters="sRGB">
<feFlood flood-opacity="0" result="BackgroundImageFix"/>
<feColorMatrix in="SourceAlpha" type="matrix" values="0 0 0 0 0 0 0 0 0 0 0 0 0 0 0 0 0 0 127 0" result="hardAlpha"/>
<feOffset dx="3" dy="-4"/>
<feComposite in2="hardAlpha" operator="out"/>
<feColorMatrix type="matrix" values="0 0 0 0 0.301961 0 0 0 0 0.192157 0 0 0 0 0.352941 0 0 0 1 0"/>
<feBlend mode="normal" in2="BackgroundImageFix" result="effect1_dropShadow_59_304"/>
<feBlend mode="normal" in="SourceGraphic" in2="effect1_dropShadow_59_304" result="shape"/>
</filter>
<clipPath id="clip0_59_304">
<rect width="303" height="365" fill="white"/>
</clipPath>
</defs>
</svg>
