<svg width="149" height="149" viewBox="0 0 149 149" fill="none" xmlns="http://www.w3.org/2000/svg">
<circle cx="74.9259" cy="74.9259" r="74.0741" fill="#A6C942"/>
<path d="M65.1409 102.361C64.5139 102.359 63.8941 102.228 63.3198 101.976C62.7456 101.724 62.2293 101.357 61.803 100.898L39.5807 77.2579C38.75 76.3726 38.305 75.1936 38.3436 73.9802C38.3822 72.7669 38.9012 71.6185 39.7865 70.7878C40.6718 69.9571 41.8508 69.5121 43.0641 69.5507C44.2775 69.5893 45.4258 70.1083 46.2565 70.9936L65.0951 91.0667L103.55 49C103.94 48.514 104.425 48.113 104.976 47.8215C105.527 47.53 106.132 47.3542 106.753 47.3049C107.374 47.2556 107.999 47.3338 108.589 47.5347C109.179 47.7357 109.722 48.0551 110.184 48.4734C110.646 48.8918 111.017 49.4001 111.276 49.9673C111.534 50.5344 111.674 51.1484 111.686 51.7715C111.699 52.3947 111.584 53.0138 111.348 53.5908C111.113 54.1678 110.762 54.6906 110.317 55.1271L68.5245 100.852C68.1022 101.32 67.5877 101.695 67.0132 101.955C66.4388 102.215 65.8169 102.353 65.1866 102.361H65.1409Z" fill="#F7FFEB"/>
</svg>
