<svg width="85" height="96" viewBox="0 0 85 96" fill="none" xmlns="http://www.w3.org/2000/svg">
<g clip-path="url(#clip0_332_5169)">
<path fill-rule="evenodd" clip-rule="evenodd" d="M39.0977 3.2502L49.9906 8.50298L64.0158 15.5418L79.1265 23.0059L82.2655 67.8963L58.7836 84.0737L57.6158 68.0049L43.7609 77.1048L44.8421 92.5671L16.293 78.5242L4.86636 72.8073L1.7622 28.4157L16.1327 18.8901L28.5779 10.5015L39.0977 3.2502ZM40.5352 31.6077L53.4443 22.6854L39.454 16.1454L27.0089 24.534L40.5352 31.6077Z" fill="#EB463C"/>
<path fill-rule="evenodd" clip-rule="evenodd" d="M56.4288 52.7657L57.496 68.0284L43.7609 77.1049L29.2718 70.5998L28.1569 54.6563L27.1791 40.6729L13.154 33.6341L27.0089 24.5341L40.5352 31.6078L27.1791 40.6729L41.7379 48.1756L55.5061 38.3452L68.2805 29.6884L69.2849 44.0533L56.4288 52.7657Z" fill="#5B76FF"/>
<path fill-rule="evenodd" clip-rule="evenodd" d="M64.0158 15.5419L79.1265 23.0061L82.2655 67.8964L58.7836 84.0739L57.6158 68.0049L70.6115 59.6894L69.6 45.2247L68.5536 30.2613L53.9948 22.7586L64.0158 15.5419ZM49.9906 8.50314L39.0977 3.2502L28.5779 10.5017L16.1327 18.8903L1.76221 28.4159L4.86637 72.8075L16.293 78.5243L14.9779 63.3579L13.9107 48.0952L12.9216 33.9509L13.104 33.8273L26.6409 24.6538L39.454 16.1454L49.9906 8.50314Z" fill="#5B76FF"/>
<path fill-rule="evenodd" clip-rule="evenodd" d="M57.6158 68.005L43.7676 77.1045L42.7494 62.6403L28.1906 55.1376L14.1305 47.6L13.1539 33.6341L27.1791 40.6729L41.7229 47.8627L42.0029 48.0001L55.5398 38.8265L40.858 31.6262L53.9948 22.7587L68.5536 30.2614L69.6 45.2248L56.6043 53.5403L57.6158 68.005Z" fill="#F2F2F2"/>
<path fill-rule="evenodd" clip-rule="evenodd" d="M57.6157 68.0047L56.6043 53.54L42.7494 62.64L41.7447 48.1751L27.1791 40.6726L28.1905 55.1373L42.7494 62.64L43.7676 77.1042L57.6157 68.0047Z" fill="#199D46"/>
<path d="M1.7273 27.9168L4.86634 72.8072L16.293 78.524L14.9779 63.3579L13.9107 48.0952L13.1539 33.6336L27.0088 24.5337L16.1327 18.8899L1.7273 27.9168Z" fill="#199D46"/>
<path fill-rule="evenodd" clip-rule="evenodd" d="M79.1265 23.006L64.0158 15.5421L53.9948 22.7587L68.5536 30.2614L69.6 45.2249L80.2077 38.4685L79.1265 23.006ZM16.1327 18.8904L28.5779 10.5019L39.454 16.1456L26.6409 24.6538L16.1327 18.8904Z" fill="#199D46"/>
<path fill-rule="evenodd" clip-rule="evenodd" d="M4.86637 72.8078L2.70392 41.8833L14.1305 47.6L15.2466 63.561L16.293 78.5246L4.86637 72.8078Z" fill="#FF8C5B"/>
<path d="M1.72736 27.9172L2.72997 42.2553L14.1306 47.6L13.154 33.6341L1.72736 27.9172Z" fill="#FF8C5B"/>
<path fill-rule="evenodd" clip-rule="evenodd" d="M64.0158 15.5421L79.0734 23.0099L68.5536 30.2614L53.4443 22.6856L64.0158 15.5421ZM28.5779 10.5019L16.1327 18.8904L27.0088 24.5342L39.454 16.1456L28.5779 10.5019Z" fill="#FF8C5B"/>
<path fill-rule="evenodd" clip-rule="evenodd" d="M56.6044 53.5403L57.6158 68.005L43.7092 76.997L42.6978 62.5323L56.6044 53.5403ZM42.102 47.6806L41.8437 47.8555L41.8219 47.5432L42.102 47.6806Z" fill="#FF8C5B"/>
<path d="M3.83398 58.0435L4.86637 72.8072L16.293 78.5241L15.2466 63.5606L3.83398 58.0435Z" fill="#F2CE4F"/>
<path d="M14.1306 47.5996L15.2467 63.5606L29.2719 70.6001L28.1906 55.1378L14.1306 47.5996Z" fill="#F2CE4F"/>
<path fill-rule="evenodd" clip-rule="evenodd" d="M41.7447 48.1751L27.1791 40.6729L40.5352 31.6078L53.4443 22.6856L68.5536 30.2614L55.5398 38.8265L42.003 48.0001L41.7447 48.1751Z" fill="#F2CE4F"/>
<path d="M39.454 16.1454L27.0088 24.534L40.5352 31.6077L53.4443 22.6854L39.454 16.1454Z" fill="#F2F2F2"/>
<path d="M58.7319 83.9659L44.7904 92.4591L43.7092 76.9969L57.6158 68.0049L58.7319 83.9659Z" fill="#F2CE4F"/>
</g>
<defs>
<clipPath id="clip0_332_5169">
<rect width="78" height="90" fill="white" transform="translate(0.192688 5.9707) rotate(-4)"/>
</clipPath>
</defs>
</svg>
