<svg width="130" height="72" viewBox="0 0 130 72" fill="none" xmlns="http://www.w3.org/2000/svg">
<g filter="url(#filter0_d_30_450)">
<path d="M78.2308 29.1377L56.7113 64L59.629 28.0365L18.0486 45.2846L47.5926 17.7617L2 19.5963L38.1094 6.01831L2 -21.5046L41.7568 -14.8991V-56L56.7113 -14.8991L78.2308 -51.2294L70.5715 -10.8625L101.939 -42.422L78.2308 -3.89L115.07 -18.5688L78.2308 10.4218H122L78.2308 29.1377Z" fill="#211D21"/>
<path d="M78.2308 29.1377L56.7113 64L59.629 28.0365L18.0486 45.2846L47.5926 17.7617L2 19.5963L38.1094 6.01831L2 -21.5046L41.7568 -14.8991V-56L56.7113 -14.8991L78.2308 -51.2294L70.5715 -10.8625L101.939 -42.422L78.2308 -3.89L115.07 -18.5688L78.2308 10.4218H122L78.2308 29.1377Z" stroke="#A6C942" stroke-width="4" stroke-linejoin="round"/>
</g>
<defs>
<filter id="filter0_d_30_450" x="-0.000244141" y="-58.0002" width="130" height="130" filterUnits="userSpaceOnUse" color-interpolation-filters="sRGB">
<feFlood flood-opacity="0" result="BackgroundImageFix"/>
<feColorMatrix in="SourceAlpha" type="matrix" values="0 0 0 0 0 0 0 0 0 0 0 0 0 0 0 0 0 0 127 0" result="hardAlpha"/>
<feOffset dx="6" dy="6"/>
<feComposite in2="hardAlpha" operator="out"/>
<feColorMatrix type="matrix" values="0 0 0 0 0.301961 0 0 0 0 0.192157 0 0 0 0 0.352941 0 0 0 1 0"/>
<feBlend mode="normal" in2="BackgroundImageFix" result="effect1_dropShadow_30_450"/>
<feBlend mode="normal" in="SourceGraphic" in2="effect1_dropShadow_30_450" result="shape"/>
</filter>
</defs>
</svg>
