<svg width="84" height="84" viewBox="0 0 84 84" fill="none" xmlns="http://www.w3.org/2000/svg">
<g clip-path="url(#clip0_332_5555)">
<path d="M6.2381 21.2631C6.80238 21.2236 7.32788 20.9616 7.69898 20.5347C8.07008 20.1078 8.2564 19.5509 8.21694 18.9867L7.78784 12.8501L13.9238 12.4211C14.488 12.3816 15.0135 12.1196 15.3846 11.6927C15.7557 11.2658 15.9421 10.709 15.9026 10.1447C15.8631 9.5804 15.6011 9.0549 15.1742 8.6838C14.7473 8.31269 14.1905 8.12638 13.6262 8.16584L5.36266 8.74368C4.79838 8.78314 4.27289 9.04514 3.90179 9.47204C3.53068 9.89895 3.34437 10.4558 3.38382 11.0201L3.96171 19.2842C4.00117 19.8485 4.26317 20.374 4.69008 20.7451C5.11698 21.1162 5.67383 21.3025 6.2381 21.2631Z" fill="#F2CE4F"/>
<path d="M74.1416 3.93415L65.8764 4.51211C65.597 4.53165 65.3242 4.60603 65.0735 4.731C64.8229 4.85597 64.5993 5.02909 64.4155 5.24048C64.2318 5.45186 64.0914 5.69737 64.0026 5.96298C63.9137 6.22859 63.878 6.5091 63.8976 6.78851C63.9171 7.06791 63.9915 7.34073 64.1164 7.59138C64.2414 7.84204 64.4145 8.06563 64.6259 8.24938C64.8373 8.43313 65.0828 8.57345 65.3484 8.66233C65.614 8.7512 65.8945 8.78688 66.174 8.76734L72.3116 8.33816L72.7407 14.4747C72.7801 15.039 73.0421 15.5645 73.4691 15.9356C73.896 16.3067 74.4528 16.493 75.0171 16.4535C75.5814 16.4141 76.1069 16.1521 76.478 15.7252C76.8491 15.2983 77.0354 14.7414 76.9959 14.1771L76.418 5.91299C76.3786 5.34871 76.1166 4.82322 75.6897 4.45211C75.2628 4.08101 74.7059 3.89469 74.1416 3.93415Z" fill="#F2CE4F"/>
<path d="M18.4103 76.5821L12.2744 77.0112L11.8453 70.8746C11.8058 70.3103 11.5438 69.7848 11.1169 69.4137C10.69 69.0426 10.1332 68.8563 9.5689 68.8958C9.00462 68.9352 8.47913 69.1972 8.10803 69.6241C7.73692 70.0511 7.5506 70.6079 7.59006 71.1722L8.16795 79.4363C8.20741 80.0006 8.46941 80.5261 8.89631 80.8972C9.32322 81.2683 9.88006 81.4546 10.4443 81.4152L18.7079 80.8373C19.2722 80.7979 19.7977 80.5359 20.1688 80.109C20.5399 79.682 20.7262 79.1252 20.6867 78.5609C20.6473 77.9966 20.3853 77.4712 19.9584 77.1C19.5315 76.7289 18.9746 76.5426 18.4103 76.5821Z" fill="#F2CE4F"/>
<path d="M78.3478 64.0862C77.7835 64.1257 77.258 64.3877 76.8869 64.8146C76.5158 65.2415 76.3295 65.7984 76.369 66.3626L76.7981 72.4992L70.6605 72.9284C70.0962 72.9678 69.5707 73.2298 69.1996 73.6567C68.8285 74.0836 68.6422 74.6405 68.6816 75.2048C68.7211 75.769 68.9831 76.2945 69.41 76.6656C69.8369 77.0367 70.3937 77.2231 70.958 77.1836L79.2233 76.6056C79.7875 76.5662 80.313 76.3042 80.6841 75.8773C81.0552 75.4504 81.2416 74.8935 81.2021 74.3292L80.6242 66.0651C80.5848 65.5008 80.3228 64.9753 79.8958 64.6042C79.4689 64.2331 78.9121 64.0468 78.3478 64.0862Z" fill="#F2CE4F"/>
<path d="M42.8071 53.943C49.3609 53.4847 54.3022 47.8004 53.8439 41.2466C53.3857 34.6928 47.7013 29.7515 41.1475 30.2098C34.5938 30.668 29.6524 36.3524 30.1107 42.9062C30.569 49.4599 36.2533 54.4013 42.8071 53.943Z" fill="#EB463C"/>
<path d="M40.7543 25.1108C41.3186 25.0714 41.8441 24.8094 42.2152 24.3825C42.5863 23.9556 42.7726 23.3987 42.7331 22.8344L42.349 17.3403C42.3095 16.776 42.0475 16.2505 41.6206 15.8794C41.1937 15.5083 40.6368 15.322 40.0726 15.3615C39.5083 15.4009 38.9828 15.6629 38.6117 16.0898C38.2406 16.5168 38.0543 17.0736 38.0937 17.6379L38.4779 23.132C38.5174 23.6963 38.7794 24.2218 39.2063 24.5929C39.6332 24.964 40.19 25.1503 40.7543 25.1108Z" fill="#FF8C5B"/>
<path d="M43.1274 59.0473C42.5631 59.0867 42.0376 59.3487 41.6665 59.7756C41.2954 60.2025 41.1091 60.7594 41.1485 61.3237L41.5327 66.8179C41.5722 67.3822 41.8342 67.9077 42.2611 68.2788C42.688 68.6499 43.2448 68.8362 43.8091 68.7967C44.3734 68.7573 44.8989 68.4953 45.27 68.0684C45.6411 67.6415 45.8274 67.0846 45.788 66.5203L45.4038 61.0261C45.3643 60.4618 45.1023 59.9363 44.6754 59.5652C44.2485 59.1941 43.6917 59.0078 43.1274 59.0473Z" fill="#FF8C5B"/>
<path d="M66.416 38.1929L60.9219 38.5771C60.3576 38.6165 59.8322 38.8785 59.4611 39.3054C59.09 39.7323 58.9036 40.2892 58.9431 40.8534C58.9825 41.4177 59.2446 41.9432 59.6715 42.3143C60.0984 42.6854 60.6552 42.8717 61.2195 42.8323L66.7136 42.4481C67.2779 42.4086 67.8034 42.1466 68.1745 41.7197C68.5456 41.2928 68.7319 40.736 68.6924 40.1717C68.653 39.6074 68.391 39.0819 67.9641 38.7108C67.5372 38.3397 66.9803 38.1534 66.416 38.1929Z" fill="#FF8C5B"/>
<path d="M22.7301 41.2477L17.236 41.6319C16.6717 41.6713 16.1462 41.9333 15.7751 42.3602C15.404 42.7871 15.2177 43.344 15.2572 43.9083C15.2966 44.4725 15.5586 44.998 15.9855 45.3691C16.4124 45.7402 16.9693 45.9266 17.5336 45.8871L23.0277 45.5029C23.592 45.4635 24.1175 45.2015 24.4886 44.7745C24.8597 44.3476 25.046 43.7908 25.0065 43.2265C24.9671 42.6622 24.7051 42.1367 24.2782 41.7656C23.8513 41.3945 23.2944 41.2082 22.7301 41.2477Z" fill="#FF8C5B"/>
<path d="M39.5847 7.85965C32.8173 8.33288 26.3422 10.8022 20.9782 14.9555C15.6142 19.1087 11.6022 24.7593 9.44963 31.1927C7.29705 37.6261 7.10052 44.5533 8.8849 51.0984C10.6693 57.6434 14.3544 63.5124 19.4743 67.963C24.5942 72.4137 30.9189 75.2462 37.6486 76.1024C44.3783 76.9585 51.2108 75.7998 57.282 72.7729C63.3532 69.7459 68.3904 64.9866 71.7568 59.0968C75.1231 53.207 76.6673 46.4512 76.1941 39.6838C75.8799 35.1904 74.6838 30.8029 72.6739 26.7717C70.6641 22.7406 67.8799 19.1448 64.4804 16.1896C61.0809 13.2345 57.1327 10.9778 52.861 9.54859C48.5894 8.11933 44.0781 7.54543 39.5847 7.85965ZM66.9262 45.4876L63.5479 45.7238C62.8754 49.6887 61.1239 53.3918 58.4855 56.4269C55.8472 59.462 52.424 61.7119 48.5913 62.9297L48.8275 66.3079C48.9233 67.6783 48.4708 69.0306 47.5696 70.0674C46.6683 71.1041 45.3921 71.7404 44.0217 71.8363C42.6513 71.9321 41.299 71.4796 40.2622 70.5783C39.2255 69.6771 38.5892 68.4009 38.4933 67.0305L38.2558 63.6336C34.3059 62.9497 30.6196 61.1946 27.5988 58.5595C24.5779 55.9245 22.3384 52.5107 21.1244 48.6903L17.7461 48.9266C16.3757 49.0224 15.0234 48.5699 13.9866 47.6687C12.9498 46.7674 12.3136 45.4912 12.2177 44.1208C12.1219 42.7504 12.5744 41.3981 13.4756 40.3613C14.3769 39.3246 15.6531 38.6883 17.0235 38.5924L20.4203 38.3549C21.1021 34.4178 22.8484 30.7423 25.4698 27.7267C28.0913 24.7111 31.4879 22.4703 35.2919 21.2472L35.0543 17.8502C34.9585 16.4798 35.411 15.1275 36.3122 14.0907C37.2135 13.0539 38.4897 12.4176 39.8601 12.3218C41.2305 12.226 42.5828 12.6785 43.6196 13.5797C44.6563 14.481 45.2926 15.7572 45.3885 17.1276L45.6247 20.5059C49.5768 21.1764 53.269 22.9191 56.2988 25.5438C59.3286 28.1686 61.5797 31.5748 62.8066 35.391L66.2035 35.1534C67.5739 35.0576 68.9263 35.5101 69.963 36.4113C70.9998 37.3126 71.6361 38.5888 71.7319 39.9592C71.8278 41.3296 71.3753 42.6819 70.474 43.7187C69.5728 44.7555 68.2966 45.3918 66.9262 45.4876Z" fill="#FF8C5B"/>
</g>
<defs>
<clipPath id="clip0_332_5555">
<rect width="78" height="78" fill="white" transform="translate(0.351868 5.89197) rotate(-4)"/>
</clipPath>
</defs>
</svg>
