<svg width="84" height="84" viewBox="0 0 84 84" fill="none" xmlns="http://www.w3.org/2000/svg">
<g clip-path="url(#clip0_332_6047)">
<path d="M68.3905 24.0484L75.0031 21.7715C75.0031 21.7715 76.2647 20.8952 77.1842 23.0202C78.1037 25.1452 79.961 31.0847 79.961 31.0847C79.961 31.0847 78.8185 32.3068 77.2503 31.2337C75.6821 30.1607 74.1104 29.7352 72.7676 30.2472C71.4249 30.7593 71.2169 30.7812 71.2169 30.7812L68.3954 24.0467L68.3905 24.0484Z" fill="#302F2F"/>
<path d="M11.1433 43.76L4.5306 46.0369C4.5306 46.0369 2.99697 46.1231 3.58066 48.3637C4.1693 50.6026 6.35752 56.4283 6.35752 56.4283C6.35752 56.4283 8.01018 56.6878 8.5853 54.8768C9.16042 53.0657 10.137 51.7628 11.5104 51.3396C12.8838 50.9164 13.0611 50.8056 13.0611 50.8056L11.1383 43.7617L11.1433 43.76Z" fill="#302F2F"/>
<path d="M56.6499 52.3915C51.9682 54.0036 48.61 52.4808 46.6266 51.5175C45.9959 51.2099 45.3193 51.2661 44.908 52.1093C43.9431 54.0877 42.2294 57.3569 37.5477 58.9689C28.8609 61.96 19.5475 57.019 15.9458 54.7569C14.5281 53.8641 13.1931 52.1528 12.6234 50.4984L11.3277 46.7353C9.73434 42.1079 12.205 37.0424 16.8323 35.4491L58.4886 21.1057C63.116 19.5123 68.1815 21.983 69.7748 26.6103L71.0706 30.3735C71.6402 32.0279 71.6435 34.2032 71.0693 35.7764C69.6239 39.7763 65.3268 49.4038 56.6449 52.3932L56.6499 52.3915Z" fill="#EB463C"/>
<path d="M66.323 27.7988L67.6188 31.5619C67.9011 32.3817 67.9308 33.7194 67.6366 34.5333C67.4178 35.1334 67.1296 35.8845 66.7531 36.7322C66.2314 37.9283 65.5463 39.3076 64.6831 40.7152C64.2036 41.5045 63.6696 42.296 63.0743 43.07C61.7664 44.7742 60.18 46.3756 58.2856 47.5637C57.4107 48.1191 56.4722 48.5859 55.4598 48.9345C49.7361 50.9053 47.4187 46.3891 44.2729 47.4723C41.127 48.5555 42.0814 53.541 36.3577 55.5118C29.1524 57.9928 21.0057 53.6167 17.896 51.6603C17.163 51.2001 16.3629 50.1277 16.0806 49.308L14.7849 45.5448C13.8445 42.8138 15.2969 39.8445 18.0229 38.9059L59.6841 24.5608C62.4101 23.6221 65.3827 25.0678 66.323 27.7988Z" fill="#FF8C5B"/>
<path opacity="0.3" d="M63.0746 43.0701C61.7667 44.7744 60.1803 46.3758 58.2859 47.5639L31.2238 34.3607L39.4266 31.5363L63.0746 43.0701Z" fill="#F2F2F2"/>
<path opacity="0.3" d="M66.753 36.7322C66.2313 37.9283 65.5462 39.3077 64.683 40.7152L43.1993 30.2369L49.1996 28.1709L66.753 36.7322Z" fill="#F2F2F2"/>
</g>
<defs>
<clipPath id="clip0_332_6047">
<rect width="78" height="78" fill="white" transform="translate(0.491089 5.86804) rotate(-4)"/>
</clipPath>
</defs>
</svg>
