<svg width="84" height="85" viewBox="0 0 84 85" fill="none" xmlns="http://www.w3.org/2000/svg">
<g clip-path="url(#clip0_332_6285)">
<path d="M11.1964 39.7498L14.0019 79.8706L74.791 75.6198L71.9855 35.499L40.0607 15.7403L11.1964 39.7498Z" fill="#964C1E"/>
<path d="M40.4857 21.8192L64.6908 36.0091L71.9855 35.499L40.0607 15.7403L11.1964 39.7498L19.7069 39.1547L40.4857 21.8192Z" fill="#854219"/>
<path d="M26.1258 43.5928L21.2627 43.9329L21.4327 46.3644L26.2959 46.0244L26.1258 43.5928Z" fill="#854219"/>
<path d="M25.5901 53.4039L23.1586 53.574L23.3286 56.0055L25.7602 55.8355L25.5901 53.4039Z" fill="#854219"/>
<path d="M29.9176 62.8751L27.4861 63.0452L27.6561 65.4767L30.0877 65.3067L29.9176 62.8751Z" fill="#854219"/>
<path d="M22.0873 73.1966L18.4399 73.4517L18.61 75.8832L22.2573 75.6282L22.0873 73.1966Z" fill="#854219"/>
<path d="M60.1678 41.2123L57.7362 41.3823L57.9062 43.8139L60.3378 43.6439L60.1678 41.2123Z" fill="#854219"/>
<path d="M68.1426 50.4285L64.4952 50.6836L64.6653 53.1152L68.3126 52.8601L68.1426 50.4285Z" fill="#854219"/>
<path d="M58.4163 51.1085L55.9847 51.2786L56.1548 53.7101L58.5863 53.5401L58.4163 51.1085Z" fill="#854219"/>
<path d="M63.9595 60.4948L61.528 60.6648L61.698 63.0964L64.1295 62.9263L63.9595 60.4948Z" fill="#854219"/>
<path d="M62.2081 70.391L59.7765 70.561L59.9465 72.9926L62.3781 72.8226L62.2081 70.391Z" fill="#854219"/>
<path d="M30.2238 32.3107L27.7922 32.4807L28.0473 36.1281L30.4788 35.958L30.2238 32.3107Z" fill="#854219"/>
<path d="M58.4418 34.0026L56.0103 34.1726L56.2653 37.82L58.6969 37.6499L58.4418 34.0026Z" fill="#854219"/>
<path d="M38.4793 28.0682L36.0477 28.2383L36.3028 31.8856L38.7343 31.7156L38.4793 28.0682Z" fill="#854219"/>
<path d="M72.6656 45.2253L11.8766 49.4761L12.0466 51.9076L72.8357 47.6569L72.6656 45.2253Z" fill="#663318"/>
<path d="M73.3457 54.9516L12.5566 59.2024L12.7267 61.634L73.5157 57.3832L73.3457 54.9516Z" fill="#663318"/>
<path d="M71.9855 35.499L11.1964 39.7498L11.3664 42.1813L72.1555 37.9305L71.9855 35.499Z" fill="#663318"/>
<path d="M74.0259 64.6777L13.2368 68.9285L13.4068 71.36L74.1959 67.1092L74.0259 64.6777Z" fill="#663318"/>
<path d="M61.3442 28.9127L20.8174 31.7466L17.6112 34.4142L64.8905 31.1081L61.3442 28.9127Z" fill="#663318"/>
<path d="M50.7019 22.3267L30.4397 23.7436L27.2323 26.4113L54.2494 24.5221L50.7019 22.3267Z" fill="#663318"/>
<path d="M14.0019 79.8706C16.6877 79.6828 18.7127 77.3532 18.5249 74.6674C18.3371 71.9815 16.0076 69.9565 13.3217 70.1443C10.6359 70.3321 8.61087 72.6617 8.79868 75.3475C8.98649 78.0333 11.316 80.0584 14.0019 79.8706Z" fill="#A65C2E"/>
<path d="M13.3218 70.1442C16.0076 69.9564 18.0327 67.6269 17.8449 64.9411C17.6571 62.2552 15.3275 60.2302 12.6417 60.418C9.95586 60.6058 7.93082 62.9354 8.11863 65.6212C8.30644 68.307 10.636 70.3321 13.3218 70.1442Z" fill="#A65C2E"/>
<path d="M12.6416 60.4182C15.3275 60.2304 17.3525 57.9008 17.1647 55.215C16.9769 52.5292 14.6473 50.5041 11.9615 50.6919C9.27568 50.8797 7.25064 53.2093 7.43845 55.8951C7.62626 58.5809 9.95581 60.606 12.6416 60.4182Z" fill="#A65C2E"/>
<path d="M11.9616 50.6919C14.6474 50.504 16.6725 48.1745 16.4846 45.4887C16.2968 42.8028 13.9673 40.7778 11.2815 40.9656C8.59563 41.1534 6.57059 43.483 6.7584 46.1688C6.94621 48.8546 9.27576 50.8797 11.9616 50.6919Z" fill="#A65C2E"/>
<path d="M74.7909 75.6198C77.4768 75.432 79.5018 73.1025 79.314 70.4166C79.1262 67.7308 76.7966 65.7058 74.1108 65.8936C71.425 66.0814 69.3999 68.4109 69.5877 71.0968C69.7756 73.7826 72.1051 75.8076 74.7909 75.6198Z" fill="#A65C2E"/>
<path d="M74.1109 65.8935C76.7967 65.7057 78.8218 63.3762 78.6339 60.6903C78.4461 58.0045 76.1166 55.9794 73.4308 56.1673C70.7449 56.3551 68.7199 58.6846 68.9077 61.3704C69.0955 64.0563 71.425 66.0813 74.1109 65.8935Z" fill="#A65C2E"/>
<path d="M73.4307 56.1672C76.1165 55.9794 78.1416 53.6498 77.9538 50.964C77.766 48.2782 75.4364 46.2531 72.7506 46.4409C70.0647 46.6288 68.0397 48.9583 68.2275 51.6441C68.4153 54.33 70.7449 56.355 73.4307 56.1672Z" fill="#A65C2E"/>
<path d="M72.7506 46.4411C75.4365 46.2533 77.4615 43.9238 77.2737 41.2379C77.0859 38.5521 74.7564 36.5271 72.0705 36.7149C69.3847 36.9027 67.3596 39.2322 67.5475 41.9181C67.7353 44.6039 70.0648 46.6289 72.7506 46.4411Z" fill="#A65C2E"/>
<path d="M69.1289 29.5901L55.0751 20.799L54.395 11.0728L67.7686 10.1376L69.1289 29.5901Z" fill="#964C1E"/>
<path d="M68.6443 5.18947L52.8391 6.29468L53.1792 11.1578L68.9843 10.0526L68.6443 5.18947Z" fill="#EB463C"/>
<path d="M60.7289 14.2951L54.65 14.7202L54.8201 17.1518L60.899 16.7267L60.7289 14.2951Z" fill="#854219"/>
<path d="M68.2787 17.4322L64.6313 17.6873L64.8014 20.1188L68.4487 19.8638L68.2787 17.4322Z" fill="#854219"/>
<path d="M39.4655 7.22986L5.99322 35.2267L6.58833 43.7372L40.0607 15.7403L77.1036 38.8063L76.5085 30.2958L39.4655 7.22986Z" fill="#EB463C"/>
<path d="M12.7522 44.528L10.3207 44.698L10.4907 47.1296L12.9223 46.9595L12.7522 44.528Z" fill="#C47747"/>
<path d="M13.4324 54.254L11.0009 54.4241L11.1709 56.8556L13.6024 56.6856L13.4324 54.254Z" fill="#C47747"/>
<path d="M14.1125 63.9804L11.6809 64.1504L11.8509 66.582L14.2825 66.4119L14.1125 63.9804Z" fill="#C47747"/>
<path d="M14.7926 73.7067L12.3611 73.8767L12.5311 76.3083L14.9627 76.1382L14.7926 73.7067Z" fill="#C47747"/>
<path d="M73.5413 40.277L71.1097 40.447L71.2798 42.8786L73.7113 42.7086L73.5413 40.277Z" fill="#C47747"/>
<path d="M74.2215 50.0033L71.7899 50.1733L71.9599 52.6049L74.3915 52.4349L74.2215 50.0033Z" fill="#C47747"/>
<path d="M74.9015 59.7296L72.47 59.8997L72.64 62.3312L75.0716 62.1612L74.9015 59.7296Z" fill="#C47747"/>
<path d="M75.5817 69.4559L73.1501 69.626L73.3202 72.0575L75.7517 71.8875L75.5817 69.4559Z" fill="#C47747"/>
<path d="M54.1738 42.8532L29.8582 44.5535L32.2386 78.5953L56.5542 76.895L54.1738 42.8532Z" fill="#964C1E"/>
<path d="M38.3687 43.9584L35.9371 44.1284L38.3176 78.1703L40.7491 78.0003L38.3687 43.9584Z" fill="#854219"/>
<path d="M43.2317 43.6183L40.8002 43.7883L43.1806 77.8302L45.6122 77.6602L43.2317 43.6183Z" fill="#854219"/>
<path d="M48.0949 43.2782L45.6633 43.4482L48.0438 77.4901L50.4753 77.3201L48.0949 43.2782Z" fill="#854219"/>
<path d="M48.0694 60.3843C49.4123 60.2903 50.4248 59.1256 50.3309 57.7827C50.237 56.4397 49.0722 55.4272 47.7293 55.5211C46.3864 55.615 45.3739 56.7798 45.4678 58.1227C45.5617 59.4656 46.7264 60.4782 48.0694 60.3843Z" fill="#C47747"/>
<path d="M51.7423 43.023L32.2898 44.3833L32.4598 46.8149L51.9123 45.4546L51.7423 43.023Z" fill="#854219"/>
<path d="M33.2505 40.651L29.6031 40.906L32.2386 78.5952L35.886 78.3402L33.2505 40.651Z" fill="#663318"/>
<path d="M53.9188 39.2059L50.2715 39.4609L52.907 77.1502L56.5543 76.8951L53.9188 39.2059Z" fill="#663318"/>
<path d="M53.9188 39.2057L29.6031 40.906L29.8582 44.5533L54.1738 42.853L53.9188 39.2057Z" fill="#663318"/>
<path d="M53.9188 39.2057L29.6031 40.906L29.8582 44.5533L54.1738 42.853L53.9188 39.2057Z" fill="#A65C2E"/>
<path d="M67.7686 10.1376L54.395 11.0728L54.5651 13.5043L67.9386 12.5691L67.7686 10.1376Z" fill="#854219"/>
</g>
<defs>
<clipPath id="clip0_332_6285">
<rect width="78" height="78" fill="white" transform="translate(0.305542 6.30298) rotate(-4)"/>
</clipPath>
</defs>
</svg>
