<svg width="85" height="85" viewBox="0 0 85 85" fill="none" xmlns="http://www.w3.org/2000/svg">
<g clip-path="url(#clip0_332_5163)">
<path d="M30.0764 60.9854C33.8436 63.5145 38.2421 64.8026 42.8639 64.7188L42.9433 64.7133C43.2608 64.691 43.6634 64.7427 43.981 64.7205C51.2856 64.2097 57.4725 60.2665 61.1387 54.5048C61.1387 54.5048 61.1387 54.5048 61.2126 54.4199C61.3547 54.1706 61.5707 53.8364 61.7129 53.5871C61.7867 53.5021 61.7812 53.4227 61.855 53.3378C61.9971 53.0885 62.0654 52.9241 62.2076 52.6748C62.2814 52.5899 62.2759 52.5105 62.3497 52.4255C62.4918 52.1762 62.5546 51.9325 62.6967 51.6832C62.6967 51.6832 62.6967 51.6832 62.6912 51.6038C64.3008 48.3796 65.0037 44.74 64.7372 40.9289C64.7317 40.8495 64.7261 40.7701 64.7206 40.6907C64.7039 40.4525 64.6817 40.1349 64.6651 39.8968C64.6484 39.6586 64.6373 39.4998 64.5412 39.2671C64.5357 39.1877 64.5246 39.0289 64.519 38.9495C64.5024 38.7113 64.4008 38.3993 64.3841 38.1611C64.3786 38.0817 64.3786 38.0817 64.373 38.0023C63.5396 34.0713 61.7018 30.6094 59.1883 27.7533L55.496 32.0008L53.6499 34.1245C50.9276 30.565 46.4624 28.324 41.6191 28.6627C34.3939 29.1679 28.9016 35.0572 28.6811 42.1736L27.0932 42.2847L20.3443 42.7566C20.3777 43.233 20.326 43.6355 20.3593 44.1119C20.4037 44.7471 20.4482 45.3823 20.572 46.0119C20.5886 46.2501 20.6847 46.4828 20.7069 46.8003C20.718 46.9591 20.8085 47.1124 20.8252 47.3506C20.9268 47.6626 20.9434 47.9008 21.045 48.2128C21.0506 48.2922 21.1411 48.4455 21.1522 48.6043C21.2593 48.9957 21.3665 49.3872 21.5531 49.773C21.5586 49.8524 21.5586 49.8524 21.6436 49.9263L19.8713 51.9651L19.5759 52.3049C18.5248 49.8252 17.8597 47.159 17.6654 44.3801C16.938 33.979 22.668 24.6422 31.3735 20.2037L31.4013 20.6007L31.5845 23.2209C26.0622 26.3995 22.0506 31.7864 20.7425 38.1809C20.7425 38.1809 20.7425 38.1809 20.748 38.2603C20.6908 38.5835 20.6281 38.8272 20.5709 39.1504C20.5764 39.2298 20.582 39.3092 20.5026 39.3147C20.4343 39.4791 20.451 39.7173 20.4676 39.9555L26.1843 39.5557C27.282 33.5748 31.6444 28.6421 37.335 26.7283L37.2351 25.2991L36.4578 14.1834L36.3356 12.4366C21.4738 15.5503 10.8605 29.2178 11.9376 44.621C12.3762 50.8935 14.6982 56.7151 18.547 61.5523L19.7285 60.193L26.9654 51.868L27.9254 50.7636C27.3824 49.8441 26.9133 48.8397 26.6029 47.8242L29.4612 47.6243C31.6022 53.1394 37.205 56.8168 43.398 56.3837C46.6533 56.1561 49.5927 54.8335 51.9153 52.6764L47.6678 48.9841C46.3052 50.0369 44.7561 50.7037 43.0094 50.8258C38.4043 51.1479 34.4116 47.6771 34.0896 43.072C33.7676 38.4669 37.3178 34.4687 41.9228 34.1467C46.5279 33.8247 50.5206 37.2955 50.8426 41.9005C50.9647 43.6473 50.5255 45.3535 49.6727 46.8493C49.6727 46.8493 49.6727 46.8493 49.6783 46.9287L53.9258 50.621C53.9258 50.621 53.9258 50.621 53.9996 50.536C55.8124 47.9359 56.7075 44.7617 56.4798 41.5063C56.4354 40.8712 56.3061 40.1621 56.1822 39.5325L58.3976 36.984C58.889 38.306 59.1477 39.7241 59.2532 41.2326C59.8973 50.4428 52.9557 58.4281 43.7456 59.0721C39.2993 59.383 34.9691 57.9305 31.6505 54.9711L29.5267 53.125L25.323 58.0465L24.363 59.1509L24.0677 59.4907L20.3754 63.7382L20.3015 63.8232L22.4253 65.6693C27.8621 70.3954 34.6686 73.0311 41.8589 73.1666L41.4647 67.5294C36.7413 67.3012 32.1729 65.8653 28.3096 63.1036L28.605 62.7638L30.0764 60.9854Z" fill="#EB463C"/>
<path d="M39.7853 3.57857C18.3479 5.07762 2.10176 23.7666 3.60081 45.2041C5.03324 65.6887 22.1748 81.4845 42.4418 81.5035L42.0532 75.9456C24.8827 75.7102 10.3801 62.283 9.15867 44.8154C7.87059 26.3951 21.7536 10.4245 40.174 9.13643C57.7209 7.90942 73.0413 20.4816 75.5903 37.5371L75.1933 37.5649L72.8114 37.7315C72.8003 37.5727 72.7892 37.4139 72.7781 37.2551C72.7614 37.0169 72.6654 36.7842 72.6487 36.546C72.6321 36.3078 72.5305 35.9958 72.5138 35.7576C72.4972 35.5194 72.4067 35.3662 72.39 35.128C72.2884 34.8159 72.2717 34.5777 72.1701 34.2657C72.159 34.1069 72.0685 33.9537 72.0574 33.7949C71.9558 33.4828 71.8542 33.1708 71.7526 32.8587C71.7415 32.6999 71.6565 32.6261 71.6454 32.4673C71.5383 32.0759 71.3573 31.7694 71.2501 31.3779C71.2446 31.2985 71.1596 31.2247 71.1541 31.1453C70.9675 30.7594 70.8604 30.368 70.6738 29.9821C70.6738 29.9821 70.6682 29.9027 70.5888 29.9082C67.288 22.6392 61.3082 16.9936 54.0031 14.0736C54.0031 14.0736 53.9237 14.0791 53.9181 13.9997C53.5894 13.8631 53.1813 13.7321 52.8526 13.5955C52.6883 13.5272 52.6089 13.5328 52.4445 13.4645C52.2008 13.4017 51.957 13.339 51.7077 13.1969C51.464 13.1341 51.2202 13.0714 50.9765 13.0086C50.8915 12.9348 50.7328 12.9459 50.6534 12.9514C47.8872 12.1874 45.0694 11.826 42.1206 11.8726L41.4854 11.917C41.1678 11.9392 40.8502 11.9614 40.612 11.9781C40.1356 12.0114 39.6592 12.0447 39.2623 12.0725L39.6509 17.6303L39.6787 18.0273L39.8452 20.4093L40.2339 25.9671C40.7102 25.9338 41.1811 25.8211 41.5781 25.7933L41.5725 25.7139L42.769 25.7101C46.9199 25.7389 50.6999 27.3097 53.6676 29.8149L57.3599 25.5674C54.0469 22.6874 49.9215 20.7419 45.4197 20.2588L45.2532 17.8769L45.2254 17.4799C57.2739 18.632 66.8882 28.3319 67.7544 40.718C68.2041 47.1493 66.2274 53.1119 62.5685 57.8357L66.816 61.528C70.8497 56.4588 73.2011 50.1508 73.3644 43.3576L76.1433 43.1633C75.5991 58.2011 65.0375 71.4661 50.3622 74.9657L50.1623 72.1074C55.8862 70.6699 60.8583 67.6095 64.7261 63.5891L60.4786 59.8968C56.9062 63.5774 52.1445 66.2241 46.7049 67.163L44.2658 67.6527L45.2263 81.3886L44.1147 81.4663C44.5117 81.4385 44.8293 81.4163 45.2263 81.3886L45.2319 81.468L48.2323 81.0188C68.2145 78.1056 82.8266 60.0095 81.4108 39.7631C79.9118 18.3256 61.2228 2.07952 39.7853 3.57857Z" fill="#FF8C5B"/>
<path d="M36.9479 42.8723C37.1645 45.9688 39.7979 48.2581 42.8944 48.0415C43.9266 47.9693 44.8627 47.6645 45.6972 47.0477C46.0776 46.7817 46.4579 46.5158 46.7477 46.0966C47.0431 45.7568 47.333 45.3376 47.5434 44.9239C47.9587 44.0172 48.2097 43.0422 48.143 42.0895C47.9265 38.993 45.2931 36.7037 42.1965 36.9203C39.1 37.1368 36.7314 39.7758 36.9479 42.8723ZM45.2847 42.2893C45.318 42.7657 45.1926 43.2532 44.9877 43.7463C44.9249 43.99 44.7772 44.1599 44.6295 44.3298C44.4819 44.4997 44.3342 44.6696 44.1015 44.7657C43.7212 45.0316 43.2559 45.2237 42.7001 45.2626C41.1916 45.3681 39.8324 44.1866 39.7269 42.678C39.6214 41.1694 40.8029 39.8102 42.3115 39.7047C43.82 39.5992 45.1792 40.7808 45.2847 42.2893Z" fill="#FF8C5B"/>
</g>
<defs>
<clipPath id="clip0_332_5163">
<rect width="78" height="78" fill="white" transform="translate(0.88031 6.29907) rotate(-4)"/>
</clipPath>
</defs>
</svg>
