<svg width="84" height="85" viewBox="0 0 84 85" fill="none" xmlns="http://www.w3.org/2000/svg">
<g clip-path="url(#clip0_332_5552)">
<path fill-rule="evenodd" clip-rule="evenodd" d="M63.0755 18.694L61.0898 19.6513L60.6543 18.7254C60.4844 18.3643 60.1801 18.0861 59.8084 17.9521C59.4366 17.8181 59.0279 17.8391 58.6721 18.0107C58.3162 18.1822 58.0425 18.4902 57.911 18.8669C57.7795 19.2435 57.8011 19.658 57.971 20.0191L58.3809 20.8905L55.5769 22.2424C55.2211 22.4139 54.9473 22.7219 54.8159 23.0985C54.6844 23.4752 54.706 23.8896 54.8759 24.2507C55.0457 24.6118 55.35 24.89 55.7218 25.024C56.0935 25.1581 56.5022 25.137 56.8581 24.9655L59.6621 23.6136L60.072 24.485C60.2419 24.8461 60.5462 25.1242 60.918 25.2583C61.2897 25.3923 61.6984 25.3712 62.0543 25.1997C62.4101 25.0281 62.6838 24.7202 62.8153 24.3435C62.9468 23.9669 62.9252 23.5524 62.7553 23.1913L62.3454 22.3199L64.331 21.3626L64.7409 22.234C64.9108 22.5951 65.2151 22.8733 65.5869 23.0073C65.9586 23.1413 66.3673 23.1203 66.7231 22.9487C67.079 22.7771 67.3527 22.4692 67.4842 22.0925C67.6157 21.7159 67.5941 21.3014 67.4242 20.9403L67.0142 20.0689L70.6903 18.2966C71.0462 18.125 71.3199 17.8171 71.4514 17.4404C71.5829 17.0638 71.5613 16.6493 71.3914 16.2882C71.2215 15.9271 70.9172 15.6489 70.5455 15.5149C70.1738 15.3809 69.765 15.4019 69.4092 15.5735L65.7331 17.3458L65.3232 16.4744C65.1533 16.1133 64.849 15.8352 64.4772 15.7011C64.1055 15.5671 63.6968 15.5882 63.3409 15.7597C62.9851 15.9313 62.7114 16.2392 62.5799 16.6159C62.4484 16.9925 62.47 17.407 62.6399 17.7681L63.0755 18.694Z" fill="#F2CE4F"/>
<path d="M78.3264 13.0123C78.8096 14.0117 78.9891 15.1337 78.842 16.2356C78.6949 17.3375 78.2278 18.3696 77.5001 19.2005C76.7725 20.0314 75.8171 20.6236 74.7555 20.9019C73.694 21.1802 72.5741 21.1319 71.5384 20.7633C70.5028 20.3947 69.598 19.7223 68.9392 18.8316C68.2804 17.941 67.8973 16.8723 67.8387 15.7616C67.7801 14.6508 68.0486 13.5481 68.61 12.5936C69.1714 11.6392 70.0004 10.8761 70.9916 10.4015C72.3047 9.76836 73.8125 9.68748 75.1863 10.1765C76.5601 10.6655 77.6888 11.6848 78.3264 13.0123Z" fill="#EB463C"/>
<path d="M47.3202 19.8764L52.8349 19.0383C53.1664 18.9732 53.5101 19.0245 53.8094 19.1838C54.1088 19.3431 54.3459 19.6009 54.4817 19.9148L57.9856 27.3624C58.1407 27.667 58.189 28.0158 58.1225 28.3515C58.0561 28.6871 57.8788 28.9896 57.6199 29.2091L53.5017 33.0153L47.3202 19.8764Z" fill="#FF8C5B"/>
<path d="M10.0849 32.9184C9.58509 33.1683 9.20064 33.6051 9.01233 34.1371C8.91606 34.401 8.87213 34.6817 8.88306 34.963C8.89398 35.2444 8.95954 35.5209 9.07599 35.7768L17.1984 53.0412C17.3205 53.2944 17.4911 53.5206 17.7001 53.7066C17.9091 53.8926 18.1524 54.0347 18.4159 54.1246C18.9429 54.3163 19.5223 54.2943 20.0329 54.0633L23.3468 52.4656L26.7027 72.2285C26.7601 72.5612 26.8927 72.876 27.0901 73.1484C27.2875 73.4207 27.5443 73.643 27.8405 73.798C28.1366 73.953 28.464 74.0364 28.797 74.0416C29.13 74.0468 29.4595 73.9738 29.7597 73.8282L38.8023 69.4685C39.2254 69.2641 39.5715 68.9261 39.7889 68.5051C40.0062 68.0841 40.0831 67.6029 40.008 67.1333C39.1104 61.9369 36.4277 46.1589 36.4277 46.1589L51.4541 38.9144C52.4861 38.391 53.277 37.4818 53.6602 36.378C54.0434 35.2742 53.9891 34.0619 53.5088 32.9961L47.3337 19.8708C46.8342 18.8092 45.9397 17.9913 44.8468 17.5973C43.7539 17.2032 42.5522 17.2652 41.506 17.7695L10.0849 32.9184Z" fill="#EB463C"/>
<path d="M10.9878 40.0502L35.2446 28.3555C36.3654 27.8151 37.6529 27.7487 38.8239 28.1709C39.9949 28.5931 40.9534 29.4693 41.4885 30.6068C42.0237 31.7443 42.0916 33.0499 41.6775 34.2363C41.2633 35.4227 40.401 36.3929 39.2801 36.9332L15.0234 48.628L10.9878 40.0502Z" fill="#FF8C5B"/>
<path fill-rule="evenodd" clip-rule="evenodd" d="M9.37307 36.618L3.72478 39.3412C3.22495 39.5911 2.8405 40.0279 2.65219 40.5599C2.46416 41.0939 2.48697 41.6813 2.71585 42.1995L8.14146 53.7319C8.39467 54.2383 8.83084 54.6265 9.35893 54.8153C9.88558 55.0025 10.4629 54.9756 10.9696 54.7403L16.6179 52.0171L9.37307 36.618Z" fill="#F2CE4F"/>
<path d="M32.1186 53.1966C31.6958 53.4047 31.3507 53.7456 31.1346 54.1688C30.9186 54.5919 30.843 55.0747 30.9193 55.5454L33.71 71.9728L38.8217 69.5084C39.2447 69.304 39.5909 68.966 39.8082 68.545C40.0256 68.124 40.1024 67.6428 40.0273 67.1732L37.2302 50.7322L32.1186 53.1966Z" fill="#FF8C5B"/>
<path fill-rule="evenodd" clip-rule="evenodd" d="M36.2323 31.4697L30.3023 34.3287C29.9465 34.5002 29.6727 34.8082 29.5412 35.1848C29.4098 35.5615 29.4313 35.9759 29.6012 36.3371C29.7711 36.6982 30.0754 36.9763 30.4471 37.1104C30.8189 37.2444 31.2276 37.2233 31.5834 37.0518L37.5135 34.1928C37.8693 34.0212 38.143 33.7132 38.2745 33.3366C38.406 32.96 38.3844 32.5455 38.2145 32.1844C38.0446 31.8233 37.7404 31.5451 37.3686 31.4111C36.9969 31.277 36.5881 31.2981 36.2323 31.4697Z" fill="#F2CE4F"/>
</g>
<defs>
<clipPath id="clip0_332_5552">
<rect width="78" height="78" fill="white" transform="translate(0.0814819 6.41895) rotate(-4)"/>
</clipPath>
</defs>
</svg>
