<svg width="170" height="170" viewBox="0 0 170 170" fill="none" xmlns="http://www.w3.org/2000/svg">
<path d="M158 85C158 125.317 125.317 158 85 158C44.6832 158 12 125.317 12 85C12 44.6832 44.6832 12 85 12C125.317 12 158 44.6832 158 85Z" fill="#211D21" stroke="#A6C942" stroke-width="20"/>
<path d="M156.03 94.4192L156.012 94.4181C155.341 94.374 154.731 94.2377 154.181 94.0092C153.63 93.7926 153.163 93.4793 152.781 93.0694C152.398 92.6715 152.112 92.1836 151.921 91.6059C151.731 91.0282 151.66 90.3681 151.709 89.6257L152.02 84.8839L154.606 85.0538L154.439 87.6043L154.426 87.8019L154.29 89.8674C154.282 89.9872 154.308 90.1512 154.366 90.3595C154.436 90.5805 154.548 90.7923 154.703 90.9949C154.858 91.2095 155.056 91.3969 155.298 91.5571C155.54 91.7173 155.84 91.8092 156.2 91.8328C156.547 91.8556 156.851 91.8034 157.112 91.6763C157.385 91.5499 157.612 91.3904 157.793 91.1979C157.973 91.0173 158.106 90.8216 158.192 90.6108C158.289 90.4127 158.342 90.2538 158.35 90.1341L158.354 90.0622L158.445 88.6792C158.505 87.7692 158.765 87.0166 159.225 86.4215C159.697 85.8271 160.366 85.5164 161.234 85.4892L161.577 85.4936C162.056 85.5251 162.475 85.6368 162.835 85.8289C163.195 86.0328 163.484 86.2924 163.704 86.6075C163.924 86.9226 164.08 87.2876 164.173 87.7026C164.278 88.1303 164.314 88.5837 164.282 89.0627L164.192 90.4457L161.605 90.2758L161.641 89.7369L161.697 88.8748C161.718 88.5635 161.694 88.3695 161.627 88.293C161.559 88.2284 161.483 88.1933 161.4 88.1878C161.376 88.1862 161.346 88.1843 161.31 88.1819C161.273 88.1915 161.236 88.2131 161.197 88.2467C161.158 88.2922 161.124 88.3561 161.095 88.4384C161.064 88.5326 161.044 88.6635 161.033 88.8312L160.976 89.6933L160.941 90.2321C160.892 90.9745 160.735 91.6197 160.471 92.1675C160.206 92.7153 159.858 93.1615 159.427 93.506C158.995 93.8624 158.491 94.1119 157.917 94.2546C157.341 94.4092 156.718 94.4645 156.048 94.4204L156.03 94.4192Z" fill="#211D21"/>
<path d="M149.711 102.494L150.213 99.9689L156.781 101.274L157.426 98.0253L150.858 96.7203L151.36 94.1957L163.63 96.6336L163.128 99.1583L159.95 98.5269L159.305 101.775L162.483 102.407L161.982 104.931L149.711 102.494Z" fill="#211D21"/>
<path d="M159.905 111.456L157.451 110.68L158.357 107.814L157.722 107.613L156.816 110.479L154.362 109.703L155.268 106.837L151.338 105.594L150.432 108.46L147.978 107.684L149.66 102.363L161.588 106.136L159.905 111.456Z" fill="#211D21"/>
<path d="M149.67 112.131L146.731 110.809L147.787 108.462L159.196 113.592L157.27 117.877C156.965 118.555 156.593 119.105 156.154 119.526C155.725 119.952 155.249 120.251 154.724 120.423C154.195 120.606 153.636 120.664 153.048 120.597C152.465 120.545 151.868 120.382 151.255 120.106C150.642 119.831 150.11 119.493 149.658 119.092C149.213 118.708 148.869 118.257 148.628 117.741C148.469 117.393 148.362 117.016 148.307 116.61L145.659 117.629L144.001 116.884L144.746 115.226L149.006 113.608L149.67 112.131ZM152.017 113.186L151.132 115.156C151.038 115.364 150.991 115.586 150.99 115.823C150.995 116.075 151.051 116.317 151.157 116.549C151.258 116.792 151.402 117.014 151.587 117.216C151.779 117.434 152.017 117.607 152.301 117.735C152.619 117.877 152.922 117.935 153.211 117.907C153.511 117.884 153.774 117.811 153.999 117.689C154.231 117.583 154.424 117.446 154.579 117.279C154.739 117.127 154.844 116.996 154.893 116.887L155.793 114.884L152.017 113.186Z" fill="#211D21"/>
<path d="M151.738 128.075L149.531 126.75L151.079 124.173L150.508 123.83L148.961 126.407L146.754 125.081L148.302 122.504L144.769 120.381L143.221 122.958L141.014 121.633L143.888 116.849L154.611 123.292L151.738 128.075Z" fill="#211D21"/>
<path d="M144.076 133.042L140.597 137.312L140.02 137.167C139.221 136.95 138.487 136.568 137.817 136.023C137.148 135.477 136.617 134.836 136.226 134.099C135.837 133.38 135.598 132.62 135.507 131.819C135.426 131.025 135.494 130.229 135.711 129.431C135.93 128.649 136.307 127.92 136.844 127.242C137.389 126.572 138.03 126.042 138.766 125.651C139.503 125.26 140.271 125.02 141.072 124.93C141.866 124.848 142.662 124.916 143.46 125.133C144.251 125.36 144.981 125.746 145.651 126.291C146.321 126.837 146.85 127.47 147.239 128.189C147.621 128.918 147.852 129.679 147.933 130.473C148.023 131.274 147.96 132.073 147.743 132.872C147.519 133.679 147.133 134.418 146.588 135.088L144.564 133.44C145.216 132.639 145.483 131.742 145.364 130.748C145.262 129.752 144.816 128.931 144.025 128.287C143.634 127.969 143.206 127.744 142.741 127.612C142.275 127.481 141.798 127.44 141.308 127.49C140.819 127.54 140.368 127.676 139.955 127.897C139.535 128.127 139.17 128.433 138.859 128.815C138.535 129.232 138.303 129.669 138.162 130.127C138.021 130.585 137.983 131.05 138.048 131.521C138.098 132.01 138.239 132.465 138.469 132.885C138.7 133.305 139.01 133.674 139.401 133.993C139.513 134.084 139.637 134.169 139.773 134.249L142.08 131.416L144.076 133.042Z" fill="#211D21"/>
<path d="M136.811 145.21L135.065 143.318L137.274 141.279L136.822 140.79L134.614 142.829L132.868 140.937L135.077 138.898L132.281 135.869L130.072 137.908L128.326 136.017L132.426 132.232L140.911 141.425L136.811 145.21Z" fill="#211D21"/>
<path d="M123.127 145.691L123.116 145.677C122.721 145.133 122.435 144.577 122.258 144.008C122.072 143.446 122.014 142.887 122.085 142.331C122.146 141.782 122.337 141.25 122.659 140.734C122.981 140.217 123.443 139.74 124.044 139.303L127.887 136.507L129.412 138.603L127.345 140.107L127.185 140.224L125.511 141.441C125.414 141.512 125.304 141.636 125.181 141.815C125.056 142.01 124.965 142.231 124.909 142.48C124.843 142.736 124.825 143.008 124.857 143.297C124.889 143.585 125.011 143.875 125.223 144.166C125.427 144.448 125.662 144.648 125.927 144.767C126.198 144.896 126.466 144.968 126.73 144.984C126.984 145.007 127.22 144.984 127.437 144.915C127.651 144.863 127.807 144.802 127.904 144.731L127.962 144.689L129.083 143.873C129.82 143.337 130.565 143.055 131.316 143.027C132.075 143.01 132.742 143.326 133.319 143.975L133.534 144.241C133.817 144.629 133.999 145.023 134.082 145.423C134.156 145.829 134.141 146.218 134.04 146.589C133.939 146.959 133.758 147.313 133.499 147.65C133.237 148.004 132.912 148.322 132.524 148.604L131.403 149.42L129.878 147.324L130.315 147.006L131.014 146.498C131.266 146.314 131.4 146.172 131.416 146.071C131.422 145.978 131.4 145.897 131.351 145.829C131.337 145.81 131.319 145.786 131.298 145.756C131.267 145.734 131.227 145.719 131.176 145.711C131.116 145.711 131.045 145.725 130.963 145.755C130.872 145.792 130.758 145.86 130.622 145.959L129.923 146.467L129.487 146.785C128.885 147.223 128.289 147.515 127.699 147.663C127.109 147.81 126.543 147.828 126.002 147.717C125.452 147.613 124.938 147.386 124.461 147.036C123.974 146.692 123.532 146.249 123.137 145.706L123.127 145.691Z" fill="#211D21"/>
<path d="M112.887 145.972L115.15 144.745L118.34 150.632L121.252 149.054L118.062 143.167L120.324 141.94L126.285 152.938L124.022 154.165L122.479 151.317L119.567 152.895L121.111 155.744L118.848 156.97L112.887 145.972Z" fill="#211D21"/>
<path d="M102.497 155.42C102.551 155.666 102.555 155.911 102.51 156.154C102.465 156.397 102.378 156.619 102.25 156.819C102.125 157.031 101.961 157.208 101.758 157.35C101.556 157.493 101.332 157.591 101.086 157.645C100.839 157.699 100.595 157.703 100.352 157.658C100.108 157.613 99.8854 157.52 99.6828 157.38C99.4711 157.255 99.294 157.091 99.1515 156.888C99.0091 156.686 98.9109 156.462 98.8571 156.216C98.8033 155.97 98.799 155.725 98.8441 155.482C98.8892 155.238 98.9817 155.016 99.1217 154.813C99.25 154.613 99.4152 154.442 99.6174 154.299C99.8197 154.157 100.044 154.059 100.29 154.005C100.536 153.951 100.781 153.947 101.024 153.992C101.267 154.037 101.489 154.123 101.689 154.252C101.889 154.38 102.06 154.545 102.203 154.747C102.345 154.95 102.443 155.174 102.497 155.42Z" fill="#211D21"/>
<path d="M74.8585 155.963L74.8599 155.945C74.9091 155.275 75.0501 154.666 75.2828 154.117C75.5036 153.568 75.8205 153.104 76.2333 152.725C76.6342 152.346 77.1242 152.063 77.7034 151.877C78.2826 151.691 78.9432 151.625 79.6852 151.679L84.4244 152.027L84.2346 154.612L81.6855 154.425L81.488 154.411L79.4236 154.259C79.3039 154.25 79.1397 154.274 78.931 154.331C78.7094 154.399 78.4967 154.51 78.2929 154.663C78.0772 154.816 77.8883 155.013 77.7262 155.253C77.5642 155.494 77.4699 155.794 77.4436 156.153C77.4181 156.5 77.4679 156.805 77.5931 157.066C77.7174 157.34 77.8751 157.568 78.0663 157.751C78.2454 157.933 78.4401 158.067 78.6503 158.155C78.8476 158.254 79.006 158.307 79.1257 158.316L79.1975 158.321L80.5798 158.423C81.4894 158.49 82.2399 158.755 82.8315 159.22C83.4222 159.696 83.7278 160.369 83.7483 161.236L83.7412 161.579C83.7061 162.058 83.5911 162.476 83.3963 162.835C83.1896 163.193 82.9278 163.48 82.611 163.698C82.2943 163.915 81.928 164.069 81.5123 164.159C81.0838 164.259 80.6302 164.292 80.1515 164.257L78.7692 164.156L78.959 161.571L79.4975 161.61L80.3592 161.673C80.6704 161.696 80.8645 161.674 80.9416 161.608C81.0067 161.54 81.0423 161.465 81.0485 161.381C81.0502 161.357 81.0524 161.327 81.055 161.291C81.0457 161.255 81.0244 161.217 80.9912 161.178C80.9459 161.139 80.8823 161.104 80.8003 161.074C80.7063 161.043 80.5755 161.021 80.408 161.009L79.5463 160.946L79.0077 160.906C78.2657 160.852 77.6218 160.69 77.0761 160.422C76.5303 160.153 76.0868 159.801 75.7457 159.367C75.3926 158.932 75.1469 158.427 75.0087 157.851C74.8585 157.275 74.808 156.651 74.8572 155.981L74.8585 155.963Z" fill="#211D21"/>
<path d="M66.8839 149.571L69.4047 150.092L68.0499 156.65L71.2934 157.32L72.6481 150.762L75.1689 151.283L72.6378 163.535L70.1171 163.014L70.7726 159.841L67.5291 159.17L66.8736 162.343L64.3528 161.823L66.8839 149.571Z" fill="#211D21"/>
<path d="M57.8552 159.685L58.6496 157.237L61.5088 158.165L61.7144 157.531L58.8552 156.603L59.6497 154.155L62.5089 155.083L63.7812 151.162L60.922 150.234L61.7165 147.786L67.0239 149.508L63.1626 161.408L57.8552 159.685Z" fill="#211D21"/>
<path d="M57.2496 149.424L58.5925 146.495L60.9322 147.568L55.718 158.939L51.4477 156.981C50.7714 156.671 50.2245 156.294 49.8068 155.852C49.3842 155.421 49.0889 154.942 48.9208 154.416C48.7418 153.885 48.688 153.326 48.7595 152.738C48.8151 152.156 48.9829 151.56 49.263 150.949C49.5431 150.338 49.885 149.808 50.2887 149.36C50.6764 148.917 51.1294 148.577 51.6476 148.34C51.9967 148.183 52.3744 148.079 52.7808 148.027L51.7811 145.371L52.5389 143.718L54.1914 144.476L55.7771 148.748L57.2496 149.424ZM56.1767 151.763L54.2134 150.863C54.0061 150.768 53.7843 150.719 53.548 150.716C53.2957 150.719 53.0532 150.773 52.8205 150.878C52.5769 150.977 52.3534 151.119 52.1502 151.303C51.9311 151.493 51.7566 151.73 51.6265 152.013C51.4815 152.329 51.4219 152.632 51.4477 152.921C51.4686 153.221 51.5392 153.485 51.6596 153.712C51.7641 153.944 51.8995 154.138 52.0658 154.294C52.2163 154.455 52.346 154.561 52.4551 154.611L54.4512 155.527L56.1767 151.763Z" fill="#211D21"/>
<path d="M41.3633 151.396L42.7049 149.199L45.2702 150.766L45.6173 150.198L43.052 148.631L44.3936 146.434L46.9588 148.001L49.1072 144.483L46.5419 142.916L47.8835 140.719L52.6454 143.628L46.1252 154.305L41.3633 151.396Z" fill="#211D21"/>
<path d="M36.4705 143.696L32.2257 140.186L32.3755 139.609C32.5983 138.812 32.9849 138.081 33.5355 137.415C34.086 136.749 34.7307 136.223 35.4698 135.838C36.1919 135.454 36.9538 135.22 37.7555 135.135C38.5495 135.06 39.3449 135.134 40.1416 135.357C40.9214 135.581 41.648 135.964 42.3215 136.505C42.9874 137.056 43.513 137.701 43.8984 138.44C44.2839 139.179 44.5188 139.949 44.6034 140.751C44.6787 141.545 44.6049 142.341 44.3822 143.137C44.1502 143.927 43.7589 144.654 43.2084 145.32C42.6579 145.986 42.0215 146.511 41.2994 146.895C40.568 147.271 39.8053 147.497 39.0113 147.572C38.2096 147.656 37.4104 147.587 36.6137 147.364C35.8078 147.134 35.0719 146.743 34.406 146.193L36.069 144.181C36.8644 144.839 37.7596 145.112 38.7547 145.001C39.7515 144.906 40.5748 144.466 41.2247 143.68C41.5458 143.291 41.7739 142.865 41.9088 142.4C42.0437 141.936 42.088 141.458 42.0415 140.968C41.9951 140.478 41.8627 140.026 41.6445 139.612C41.417 139.191 41.1137 138.823 40.7345 138.51C40.32 138.182 39.8843 137.947 39.4274 137.802C38.9706 137.658 38.5064 137.617 38.035 137.679C37.5451 137.725 37.0893 137.862 36.6677 138.09C36.246 138.317 35.8747 138.625 35.5535 139.014C35.4618 139.125 35.3755 139.248 35.2945 139.383L38.1105 141.712L36.4705 143.696Z" fill="#211D21"/>
<path d="M24.3195 136.272L26.2297 134.546L28.2443 136.777L28.7386 136.331L26.724 134.1L28.6342 132.375L30.6488 134.606L33.7078 131.843L31.6932 129.612L33.6034 127.887L37.3431 132.028L28.0592 140.413L24.3195 136.272Z" fill="#211D21"/>
<path d="M24.029 122.696L24.0436 122.686C24.5899 122.294 25.1482 122.013 25.7185 121.84C26.2818 121.658 26.8411 121.604 27.3964 121.679C27.9446 121.744 28.4757 121.939 28.9894 122.265C29.5032 122.591 29.9767 123.056 30.4099 123.661L33.1769 127.524L31.0698 129.033L29.5815 126.955L29.4662 126.795L28.2609 125.112C28.191 125.014 28.0674 124.903 27.8901 124.779C27.696 124.653 27.4748 124.56 27.2264 124.502C26.9711 124.434 26.699 124.415 26.4103 124.445C26.1216 124.474 25.8309 124.594 25.5383 124.804C25.2554 125.006 25.0534 125.239 24.9324 125.503C24.8017 125.774 24.7274 126.041 24.7096 126.305C24.6848 126.559 24.7061 126.795 24.7733 127.012C24.8238 127.227 24.884 127.383 24.9539 127.481L24.9958 127.539L25.8028 128.666C26.3339 129.407 26.6104 130.154 26.6323 130.906C26.6444 131.665 26.3238 132.33 25.6703 132.902L25.4028 133.115C25.0126 133.395 24.6174 133.575 24.2171 133.655C23.8099 133.725 23.4214 133.708 23.0516 133.604C22.6818 133.5 22.3294 133.317 21.9943 133.055C21.6424 132.791 21.3267 132.463 21.0472 132.073L20.2402 130.946L22.3473 129.437L22.6617 129.876L23.1648 130.578C23.3465 130.832 23.4875 130.967 23.588 130.983C23.6815 130.99 23.7623 130.969 23.8306 130.92C23.8501 130.906 23.8745 130.889 23.9038 130.868C23.9261 130.837 23.9414 130.797 23.9497 130.746C23.951 130.686 23.9369 130.615 23.9075 130.533C23.8711 130.441 23.804 130.327 23.7062 130.19L23.2031 129.488L22.8887 129.049C22.4555 128.444 22.1673 127.846 22.0243 127.254C21.8812 126.663 21.8672 126.098 21.9823 125.557C22.0903 125.008 22.3212 124.495 22.6749 124.021C23.0216 123.536 23.4681 123.098 24.0144 122.707L24.029 122.696Z" fill="#211D21"/>
<path d="M23.8129 112.431L25.0226 114.703L19.1125 117.85L20.6691 120.774L26.5792 117.626L27.789 119.898L16.7472 125.779L15.5375 123.507L18.3972 121.984L16.8406 119.06L13.9809 120.583L12.7712 118.311L23.8129 112.431Z" fill="#211D21"/>
<path d="M14.4631 102.038C14.2165 102.09 13.9718 102.092 13.7289 102.045C13.486 101.998 13.2651 101.91 13.0661 101.78C12.8553 101.653 12.6795 101.487 12.5386 101.284C12.3976 101.081 12.3012 100.856 12.2493 100.609C12.1974 100.363 12.1949 100.118 12.2418 99.875C12.2888 99.6321 12.383 99.41 12.5245 99.2085C12.6518 98.9977 12.8172 98.8219 13.0205 98.6809C13.2238 98.54 13.4488 98.4436 13.6954 98.3916C13.9419 98.3397 14.1867 98.3372 14.4296 98.3841C14.6725 98.4311 14.8946 98.5253 15.0961 98.6668C15.2951 98.7966 15.4651 98.9631 15.606 99.1665C15.7469 99.3698 15.8434 99.5947 15.8953 99.8413C15.9472 100.088 15.9497 100.333 15.9027 100.576C15.8558 100.818 15.7674 101.039 15.6376 101.238C15.5079 101.437 15.3413 101.607 15.138 101.748C14.9347 101.889 14.7097 101.986 14.4631 102.038Z" fill="#211D21"/>
<path d="M14.1019 74.5076L14.1199 74.509C14.7897 74.5634 15.3979 74.7091 15.9445 74.9461C16.4921 75.1711 16.9537 75.4915 17.3293 75.9073C17.7058 76.3111 17.9849 76.8033 18.1666 77.3839C18.3482 77.9645 18.4089 78.6256 18.3487 79.3671L17.9643 84.1036L15.3808 83.8938L15.5876 81.3462L15.6036 81.1488L15.771 79.0856C15.7807 78.966 15.758 78.8016 15.7027 78.5925C15.6365 78.3704 15.5274 78.1569 15.3755 77.9519C15.2245 77.735 15.0293 77.5446 14.7898 77.3806C14.5502 77.2167 14.2511 77.1202 13.8922 77.0911C13.5454 77.0629 13.2405 77.1104 12.9777 77.2335C12.7029 77.3557 12.4736 77.5116 12.2896 77.7014C12.1066 77.8792 11.9705 78.0728 11.8813 78.2822C11.7811 78.4788 11.7261 78.6368 11.7164 78.7565L11.7106 78.8282L11.5984 80.2097C11.5246 81.1187 11.2532 81.8672 10.7841 82.4551C10.303 83.0421 9.62852 83.3425 8.76055 83.3564L8.41822 83.3466C7.93979 83.3078 7.52199 83.1896 7.1648 82.992C6.80858 82.7825 6.523 82.5185 6.30806 82.2001C6.09311 81.8817 5.94234 81.5143 5.85574 81.0979C5.75815 80.6686 5.72878 80.2147 5.76761 79.7363L5.87974 78.3548L8.46324 78.5646L8.41955 79.1028L8.34965 79.964C8.32441 80.275 8.34476 80.4692 8.4107 80.5468C8.47761 80.6125 8.55293 80.6487 8.63665 80.6555C8.66057 80.6574 8.69047 80.6598 8.72636 80.6628C8.76321 80.6537 8.80103 80.6327 8.83983 80.5997C8.87959 80.5548 8.91483 80.4914 8.94555 80.4097C8.97724 80.3159 8.99988 80.1853 9.01347 80.0179L9.08337 79.1567L9.12705 78.6185C9.18725 77.8769 9.35378 77.2343 9.62666 76.6906C9.89954 76.1469 10.2544 75.7061 10.6911 75.3684C11.1288 75.0187 11.6361 74.7769 12.2128 74.6431C12.7905 74.4974 13.4142 74.4517 14.084 74.5061L14.1019 74.5076Z" fill="#211D21"/>
<path d="M20.5282 66.5893L19.9882 69.106L13.4413 67.701L12.7465 70.9393L19.2934 72.3443L18.7534 74.861L6.52191 72.236L7.06191 69.7193L10.2298 70.3992L10.9246 67.1609L7.75674 66.481L8.29674 63.9643L20.5282 66.5893Z" fill="#211D21"/>
<path d="M10.4456 57.5304L12.8878 58.3435L11.9384 61.1956L12.5703 61.406L13.5197 58.5539L15.9619 59.367L15.0125 62.2191L18.9235 63.5212L19.8728 60.669L22.315 61.4821L20.5527 66.7765L8.68328 62.8248L10.4456 57.5304Z" fill="#211D21"/>
<path d="M20.7825 56.7691L23.696 58.1449L22.5971 60.4725L11.2849 55.1308L13.2906 50.8824C13.6082 50.2097 13.9905 49.6669 14.4374 49.2543C14.8735 48.8365 15.3555 48.5465 15.8832 48.3843C16.4161 48.2113 16.9759 48.1638 17.5628 48.2418C18.1439 48.3039 18.7383 48.4784 19.3459 48.7654C19.9536 49.0523 20.4794 49.4002 20.9234 49.8089C21.3617 50.2016 21.6968 50.6584 21.9286 51.1793C22.0814 51.5301 22.1812 51.909 22.228 52.3159L24.8953 51.346L26.5393 52.1223L25.7631 53.7663L21.4741 55.3042L20.7825 56.7691ZM18.4549 55.67L19.3771 53.7167C19.4744 53.5106 19.5258 53.2893 19.5312 53.053C19.5309 52.8007 19.4798 52.5576 19.3779 52.3237C19.2811 52.079 19.1418 51.8539 18.9601 51.6487C18.7726 51.4274 18.5378 51.2502 18.2556 51.117C17.941 50.9684 17.6389 50.9054 17.3496 50.928C17.0494 50.9455 16.7852 51.0132 16.5571 51.131C16.3232 51.2329 16.1276 51.3662 15.9703 51.5307C15.8072 51.6794 15.7001 51.8079 15.6488 51.9164L14.7113 53.9022L18.4549 55.67Z" fill="#211D21"/>
<path d="M18.8078 41.0738L20.9945 42.4316L19.409 44.9855L19.9748 45.3368L21.5603 42.783L23.747 44.1408L22.1615 46.6947L25.6632 48.8692L27.2488 46.3153L29.4355 47.6732L26.4923 52.4139L15.8646 45.8144L18.8078 41.0738Z" fill="#211D21"/>
<path d="M26.7382 35.955L30.2939 31.7484L30.8689 31.9046C31.6631 32.1361 32.3902 32.5307 33.0499 33.0886C33.7097 33.6464 34.2283 34.2969 34.6056 35.0402C34.9815 35.7666 35.2074 36.5311 35.2832 37.3337C35.3498 38.1286 35.2674 38.9232 35.0359 39.7175C34.8031 40.4949 34.4123 41.2174 33.8637 41.885C33.306 42.5448 32.6555 43.0634 31.9123 43.4408C31.1691 43.8181 30.3962 44.0447 29.5937 44.1205C28.7989 44.1871 28.0044 44.1046 27.2102 43.8731C26.4237 43.6325 25.7006 43.2333 25.0408 42.6754C24.381 42.1176 23.8631 41.4755 23.4872 40.7491C23.119 40.0136 22.9016 39.2484 22.835 38.4535C22.7593 37.6509 22.8371 36.8524 23.0685 36.0581C23.3077 35.2547 23.7062 34.523 24.264 33.8632L26.2571 35.5482C25.5909 36.3364 25.3081 37.2287 25.4086 38.2251C25.4922 39.2229 25.9235 40.0511 26.7024 40.7096C27.0873 41.035 27.5112 41.2677 27.9742 41.4078C28.4372 41.5478 28.9139 41.5972 29.4043 41.5561C29.8947 41.515 30.3481 41.3876 30.7644 41.1739C31.1885 40.951 31.5594 40.6517 31.877 40.276C32.2087 39.865 32.4491 39.4318 32.5983 38.9765C32.7474 38.5212 32.7937 38.0575 32.7371 37.5854C32.696 37.0949 32.564 36.6377 32.3412 36.2135C32.1183 35.7894 31.8144 35.4146 31.4295 35.0892C31.3196 34.9963 31.1973 34.9086 31.0627 34.8262L28.7038 37.6168L26.7382 35.955Z" fill="#211D21"/>
<path d="M34.1068 24.0077L35.818 25.9306L33.5726 27.9291L34.0153 28.4267L36.2607 26.4281L37.9719 28.351L35.7265 30.3495L38.4667 33.4288L40.7121 31.4303L42.4232 33.3531L38.2551 37.0631L29.9387 27.7176L34.1068 24.0077Z" fill="#211D21"/>
<path d="M47.8317 23.7196L47.842 23.7344C48.2273 24.285 48.503 24.8464 48.669 25.4186C48.8449 25.9839 48.8925 26.5438 48.8118 27.0982C48.741 27.6458 48.5399 28.1747 48.2086 28.6849C47.8772 29.1952 47.4068 29.6636 46.7972 30.0902L42.9041 32.8151L41.418 30.6914L43.5121 29.2257L43.6743 29.1122L45.3702 27.9252C45.4685 27.8564 45.5805 27.734 45.7064 27.5581C45.8352 27.3654 45.9301 27.1452 45.9911 26.8974C46.0619 26.6428 46.084 26.371 46.0575 26.0819C46.031 25.7929 45.9146 25.5009 45.7082 25.2059C45.5086 24.9208 45.2777 24.7163 45.0152 24.5924C44.7459 24.4587 44.4795 24.3815 44.216 24.3608C43.9624 24.3333 43.7265 24.3519 43.5082 24.4168C43.2929 24.4649 43.1361 24.5234 43.0378 24.5922L42.9788 24.6335L41.8433 25.4283C41.0962 25.9512 40.3466 26.2196 39.5946 26.2332C38.8357 26.2371 38.1741 25.9092 37.6099 25.2495L37.3991 24.9796C37.1239 24.5863 36.9485 24.1891 36.8728 23.788C36.807 23.38 36.8282 22.9916 36.9364 22.623C37.0446 22.2543 37.2314 21.9038 37.4969 21.5716C37.7653 21.2226 38.0961 20.9105 38.4893 20.6352L39.6248 19.8405L41.1109 21.9642L40.6685 22.2738L39.9607 22.7692C39.7051 22.9481 39.5684 23.0877 39.5507 23.188C39.5428 23.2814 39.563 23.3625 39.6111 23.4313C39.6249 23.451 39.6421 23.4756 39.6627 23.5051C39.6932 23.5277 39.7335 23.5434 39.7836 23.5523C39.8436 23.5543 39.9149 23.541 39.9974 23.5125C40.0899 23.4771 40.2049 23.4112 40.3425 23.3149L41.0504 22.8195L41.4928 22.5098C42.1023 22.0832 42.7035 21.8016 43.2962 21.665C43.889 21.5284 44.4548 21.5206 44.9934 21.6416C45.542 21.7556 46.0516 21.9921 46.5225 22.351C47.0031 22.703 47.4361 23.1543 47.8214 23.7049L47.8317 23.7196Z" fill="#211D21"/>
<path d="M57.8681 23.6926L55.5874 24.8857L52.4841 18.9522L49.5494 20.4873L52.6526 26.4208L50.3719 27.6139L44.5742 16.5285L46.855 15.3354L48.3565 18.2064L51.2912 16.6713L49.7897 13.8002L52.0705 12.6071L57.8681 23.6926Z" fill="#211D21"/>
<path d="M68.2792 14.382C68.2292 14.135 68.2286 13.8903 68.2774 13.6477C68.3262 13.4052 68.4162 13.1849 68.5475 12.9869C68.6764 12.7771 68.8431 12.6026 69.0475 12.4632C69.2519 12.3238 69.4775 12.2291 69.7245 12.179C69.9715 12.129 70.2163 12.1284 70.4588 12.1772C70.7013 12.226 70.9228 12.3219 71.1232 12.4649C71.3329 12.5938 71.5075 12.7605 71.6469 12.9649C71.7862 13.1693 71.8809 13.395 71.931 13.6419C71.981 13.8889 71.9816 14.1337 71.9328 14.3762C71.884 14.6187 71.7881 14.8402 71.645 15.0406C71.5137 15.2386 71.3459 15.4073 71.1415 15.5467C70.9371 15.6861 70.7114 15.7808 70.4644 15.8308C70.2175 15.8809 69.9727 15.8815 69.7302 15.8327C69.4877 15.7839 69.2674 15.6939 69.0694 15.5626C68.8714 15.4313 68.7027 15.2635 68.5633 15.0591C68.424 14.8547 68.3293 14.629 68.2792 14.382Z" fill="#211D21"/>
<path d="M95.8062 14.1666L95.8046 14.1845C95.7451 14.8539 95.5947 15.461 95.3535 16.0057C95.1243 16.5516 94.8003 17.0107 94.3817 17.3831C93.975 17.7565 93.4807 18.0318 92.8987 18.2089C92.3167 18.3861 91.6552 18.4417 90.9141 18.3758L86.1808 17.9548L86.4104 15.373L88.9563 15.5994L89.1536 15.6169L91.2154 15.8003C91.335 15.811 91.4995 15.7895 91.7091 15.7358C91.9317 15.6713 92.146 15.5638 92.3522 15.4135C92.5702 15.2642 92.7622 15.0705 92.9279 14.8322C93.0937 14.594 93.1925 14.2956 93.2244 13.937C93.2552 13.5903 93.21 13.2851 93.0889 13.0214C92.9689 12.7457 92.8147 12.5151 92.6264 12.3297C92.45 12.1453 92.2575 12.0077 92.0487 11.9169C91.8529 11.8151 91.6953 11.7589 91.5757 11.7483L91.504 11.7419L90.1235 11.6191C89.2151 11.5384 88.4687 11.2611 87.8843 10.7875C87.3011 10.3019 87.0058 9.62511 86.9987 8.75706L87.0111 8.41481C87.0536 7.9367 87.175 7.51981 87.3753 7.16416C87.5875 6.80957 87.8537 6.52603 88.1738 6.31355C88.4938 6.10107 88.8624 5.95314 89.2794 5.86976C89.7095 5.77549 90.1635 5.74962 90.6416 5.79214L92.0222 5.91493L91.7926 8.49674L91.2547 8.4489L90.3941 8.37236C90.0834 8.34472 89.8889 8.36357 89.8108 8.4289C89.7447 8.49531 89.7079 8.57034 89.7005 8.65401C89.6983 8.67792 89.6957 8.7078 89.6925 8.74366C89.7012 8.78058 89.722 8.81856 89.7546 8.85761C89.7993 8.89772 89.8623 8.93345 89.9439 8.9648C90.0374 8.99721 90.1678 9.02086 90.3351 9.03574L91.1957 9.11229L91.7336 9.16013C92.4747 9.22604 93.116 9.39753 93.6576 9.6746C94.1992 9.95167 94.6372 10.3099 94.9716 10.7492C95.3179 11.1897 95.5558 11.6987 95.6851 12.2765C95.8264 12.8552 95.8673 13.4793 95.8078 14.1487L95.8062 14.1666Z" fill="#211D21"/>
<path d="M103.694 20.6287L101.182 20.0694L102.637 13.5333L99.4037 12.8136L97.9491 19.3497L95.4366 18.7904L98.1542 6.57921L100.667 7.13849L99.9629 10.3011L103.196 11.0208L103.9 7.85814L106.412 8.41743L103.694 20.6287Z" fill="#211D21"/>
<path d="M113.345 10.7797L112.504 13.2126L109.663 12.2309L109.446 12.8604L112.287 13.8421L111.446 16.275L108.605 15.2933L107.259 19.1894L110.101 20.1711L109.26 22.604L103.986 20.7817L108.071 8.95735L113.345 10.7797Z" fill="#211D21"/>
<path d="M113.624 20.963L112.227 23.8664L109.907 22.75L115.332 11.4774L119.565 13.5149C120.235 13.8376 120.775 14.2239 121.185 14.674C121.599 15.1132 121.886 15.5974 122.044 16.1263C122.213 16.6605 122.256 17.2208 122.174 17.807C122.108 18.3877 121.929 18.9808 121.637 19.5864C121.346 20.1919 120.994 20.7151 120.582 21.1561C120.186 21.5914 119.727 21.9231 119.205 22.151C118.853 22.3012 118.473 22.3982 118.066 22.4419L119.016 25.1166L118.228 26.7548L116.589 25.9664L115.083 21.6656L113.624 20.963ZM114.74 18.6436L116.686 19.5804C116.892 19.6793 117.112 19.7324 117.349 19.7395C117.601 19.7411 117.844 19.6918 118.079 19.5917C118.325 19.4967 118.551 19.3591 118.757 19.1789C118.98 18.993 119.159 18.7596 119.294 18.4784C119.445 18.1648 119.51 17.8633 119.49 17.5737C119.474 17.2734 119.409 17.0087 119.292 16.7797C119.192 16.545 119.061 16.3484 118.897 16.1898C118.75 16.0257 118.622 15.9176 118.514 15.8655L116.535 14.9131L114.74 18.6436Z" fill="#211D21"/>
<path d="M129.725 19.3553L128.344 21.5271L125.808 19.9133L125.45 20.4752L127.986 22.089L126.605 24.2608L124.069 22.647L121.856 26.1248L124.392 27.7386L123.01 29.9103L118.303 26.9147L125.018 16.3597L129.725 19.3553Z" fill="#211D21"/>
<path d="M134.417 27.0701L138.597 30.6567L138.437 31.2306C138.2 32.0232 137.8 32.7474 137.237 33.4032C136.675 34.059 136.021 34.5728 135.275 34.9448C134.546 35.3154 133.78 35.5357 132.977 35.6056C132.181 35.6664 131.387 35.5782 130.595 35.341C129.819 35.1024 129.1 34.7064 128.436 34.1529C127.78 33.5903 127.267 32.936 126.895 32.19C126.523 31.444 126.302 30.6694 126.232 29.8662C126.171 29.0709 126.259 28.2769 126.497 27.4843C126.743 26.6995 127.147 25.9793 127.71 25.3235C128.272 24.6677 128.918 24.1545 129.647 23.7838C130.385 23.421 131.152 23.2092 131.947 23.1484C132.75 23.0784 133.548 23.1621 134.341 23.3994C135.142 23.6444 135.871 24.0483 136.527 24.6109L134.827 26.5919C134.044 25.9199 133.154 25.6305 132.157 25.7238C131.159 25.8001 130.327 26.2254 129.663 26.9996C129.335 27.3821 129.099 27.8044 128.956 28.2664C128.813 28.7284 128.76 29.2048 128.797 29.6956C128.835 30.1863 128.959 30.6406 129.17 31.0586C129.389 31.4843 129.686 31.8573 130.059 32.1777C130.468 32.5124 130.899 32.756 131.353 32.9085C131.808 33.061 132.271 33.1107 132.743 33.0575C133.234 33.02 133.692 32.8914 134.118 32.6716C134.544 32.4518 134.921 32.1506 135.249 31.7681C135.342 31.6588 135.431 31.5371 135.514 31.4031L132.741 29.0237L134.417 27.0701Z" fill="#211D21"/>
<path d="M146.324 34.5323L144.389 36.2296L142.407 33.9695L141.906 34.4087L143.888 36.6688L141.953 38.3661L139.971 36.106L136.872 38.8241L138.854 41.0842L136.919 42.7815L133.24 38.5862L142.645 30.3369L146.324 34.5323Z" fill="#211D21"/>
<path d="M146.521 48.2669L146.506 48.2771C145.953 48.6584 145.389 48.93 144.816 49.0919C144.249 49.2637 143.689 49.3072 143.135 49.2225C142.588 49.1477 142.061 48.9427 141.553 48.6076C141.046 48.2726 140.581 47.7987 140.159 47.186L137.463 43.2728L139.597 41.802L141.047 43.9069L141.159 44.0699L142.334 45.7746C142.402 45.8734 142.523 45.9864 142.698 46.1135C142.89 46.2437 143.11 46.3402 143.357 46.403C143.611 46.4757 143.883 46.4998 144.172 46.4754C144.461 46.451 144.754 46.3367 145.05 46.1324C145.337 45.9349 145.543 45.7054 145.669 45.4439C145.804 45.1755 145.884 44.9096 145.906 44.6463C145.936 44.3929 145.919 44.1568 145.855 43.9381C145.809 43.7224 145.752 43.5652 145.683 43.4664L145.643 43.4071L144.856 42.2657C144.339 41.5147 144.076 40.7631 144.068 40.0109C144.07 39.2519 144.402 38.5927 145.066 38.0333L145.338 37.8244C145.733 37.5521 146.131 37.3795 146.533 37.3068C146.941 37.244 147.33 37.268 147.697 37.3789C148.065 37.4897 148.414 37.6791 148.744 37.947C149.091 38.218 149.401 38.5511 149.673 38.9464L150.46 40.0877L148.325 41.5585L148.019 41.1138L147.529 40.4023C147.352 40.1453 147.213 40.0077 147.113 39.9892C147.02 39.9807 146.939 40.0002 146.869 40.0479C146.85 40.0615 146.825 40.0785 146.795 40.0989C146.772 40.1293 146.756 40.1694 146.747 40.2195C146.745 40.2795 146.758 40.3508 146.785 40.4336C146.82 40.5263 146.885 40.6418 146.98 40.7802L147.471 41.4917L147.777 41.9364C148.199 42.549 148.476 43.1523 148.608 43.7461C148.741 44.3399 148.744 44.9057 148.619 45.4436C148.501 45.9913 148.261 46.4993 147.899 46.9675C147.543 47.4457 147.089 47.8754 146.536 48.2567L146.521 48.2669Z" fill="#211D21"/>
<path d="M146.505 58.3592L145.329 56.0695L151.285 53.0098L149.772 50.0637L143.816 53.1234L142.64 50.8338L153.768 45.1173L154.944 47.407L152.062 48.8875L153.575 51.8336L156.457 50.3531L157.633 52.6428L146.505 58.3592Z" fill="#211D21"/>
<path d="M155.753 68.9656C156 68.9175 156.245 68.9187 156.487 68.9694C156.729 69.02 156.949 69.1117 157.146 69.2445C157.354 69.375 157.528 69.543 157.665 69.7485C157.803 69.9539 157.896 70.1803 157.944 70.4277C157.993 70.675 157.991 70.9198 157.941 71.1619C157.89 71.4041 157.792 71.6248 157.648 71.8241C157.517 72.0329 157.349 72.2062 157.144 72.344C156.938 72.4818 156.712 72.5748 156.465 72.623C156.217 72.6711 155.973 72.6699 155.73 72.6192C155.488 72.5686 155.268 72.471 155.068 72.3264C154.871 72.1936 154.704 72.0245 154.566 71.819C154.428 71.6136 154.335 71.3872 154.287 71.1398C154.239 70.8925 154.24 70.6477 154.291 70.4056C154.342 70.1634 154.433 69.9438 154.566 69.7468C154.699 69.5498 154.868 69.3824 155.073 69.2446C155.279 69.1068 155.505 69.0138 155.753 68.9656Z" fill="#211D21"/>
<path d="M30.3966 93.2472C28.5324 98.2556 28.4802 106.765 30.5684 110.147C32.4152 113.14 36.7608 112.788 38.528 113.882C41.7611 115.886 42.5277 121.871 44.932 124.833C49.666 130.667 65.7346 132.794 75.8322 127.269C80.1405 124.911 81.4995 119.709 84.7973 119.822C87.8089 119.925 89.1828 124.148 93.6928 127.45C101.998 133.531 126.587 132.376 129.135 119.462C130.92 110.417 141 114.705 141 101.097C141 90.5467 133.757 91.2237 134.788 87.1389C136.801 79.1758 136.537 67.3015 128.613 57.1035C125.73 53.3937 123.254 47.1999 120.454 43.5959C116.813 38.9121 111.586 35.23 106.523 31.9456C104.248 30.4683 104.104 21.959 99.4746 15.7576C96.57 11.8666 91.0271 9 84.7948 9C78.0921 9 71.6557 10.8524 66.5036 17.2677C65.1546 18.9464 60.9782 29.5068 60.3186 31.5631C59.3106 34.7065 53.3446 37.5002 50.8806 39.6722C45.1585 44.7158 44.5885 52.2889 40.5664 57.71C32.343 68.7915 30.7725 75.2647 35.6309 86.5852C36.9351 89.6406 31.4395 90.4409 30.3966 93.2472Z" fill="#F7FFEB"/>
<path d="M83.5105 46.1328C93.3554 46.1328 101.336 38.6576 101.336 29.4364C101.336 20.2152 93.3554 12.74 83.5105 12.74C73.6656 12.74 65.6847 20.2152 65.6847 29.4364C65.6847 38.6576 73.6656 46.1328 83.5105 46.1328Z" fill="#211D21"/>
<path d="M39.1897 82.3442C35.9815 75.5891 39.9688 67.4851 44.0008 61.3214C44.74 60.1914 45.2727 58.938 45.5913 57.6243C48.3714 46.1275 59.2978 38.9647 68.9474 33.3145C79.5279 25.9177 88.5453 26.2826 99.2229 33.3548C109.002 38.9547 119.47 46.12 123.184 57.2216C123.821 59.1243 124.939 60.8281 126.457 62.1243C131.522 66.4431 132.069 74.1999 131.275 80.9298C130.987 83.3761 128.396 84.8082 126.203 83.7385C105.246 73.5128 64.6889 73.9306 43.4433 83.8744C41.8504 84.6169 39.9464 83.9424 39.1897 82.3442Z" fill="#211D21"/>
<path d="M83.8391 27.9086C88.8195 27.9086 93.8048 29.7685 99.2207 33.3549C109 38.9548 119.468 46.1201 123.182 57.2217C123.819 59.1244 124.936 60.8283 126.455 62.1244C131.52 66.4432 132.067 74.2 131.273 80.9299C131.052 82.815 129.461 84.0985 127.739 84.0985C127.226 84.0985 126.701 83.9853 126.198 83.7386C115.864 78.6975 100.761 76.2411 85.5614 76.2411C69.9359 76.2411 54.2083 78.8334 43.4387 83.8745C43.0006 84.0784 42.5402 84.1766 42.0847 84.1766C40.8875 84.1766 39.7376 83.502 39.1876 82.3443C35.9793 75.5892 39.9666 67.4852 43.9987 61.3215C44.7379 60.1915 45.2705 58.9381 45.5891 57.6244C48.3693 46.1277 59.2957 38.9649 68.9453 33.3147C74.1596 29.6678 78.9981 27.9086 83.8391 27.9086ZM83.8391 25.4874C78.5426 25.4874 73.2511 27.3775 67.6635 31.2685C62.6956 34.1804 57.4962 37.4347 53.0833 41.4867C47.8466 46.2938 44.6358 51.3852 43.2669 57.0505C43.0106 58.1126 42.585 59.1017 42.005 59.9902C39.3618 64.0346 37.5922 67.606 36.5941 70.908C35.1779 75.5968 35.3272 79.7973 37.0346 83.3938C37.958 85.3393 39.9417 86.5977 42.0897 86.5977C42.9085 86.5977 43.7025 86.4215 44.4492 86.0717C49.5142 83.7009 55.7863 81.8435 63.0963 80.5524C70.0927 79.3166 77.8632 78.6622 85.5664 78.6622C101.279 78.6622 115.712 81.3074 125.165 85.9182C125.982 86.3158 126.85 86.5172 127.746 86.5172C130.758 86.5172 133.299 84.2395 133.655 81.2168C134.143 77.0817 134.061 73.3543 133.411 70.1379C132.56 65.9273 130.741 62.6076 128.003 60.2745C126.84 59.2829 125.959 57.9616 125.454 56.4465C121.504 44.6402 110.618 37.1024 100.473 31.2886C97.5631 29.3683 94.8477 27.9665 92.1745 27.0076C89.3197 25.9832 86.5968 25.4874 83.8391 25.4874Z" fill="#F7FFEB"/>
<path d="M83.8391 27.9086C88.8195 27.9086 93.8048 29.7685 99.2207 33.3549C109 38.9548 119.468 46.1201 123.182 57.2217C123.819 59.1244 124.936 60.8283 126.455 62.1244C131.52 66.4432 132.067 74.2 131.273 80.9299C131.052 82.815 129.461 84.0985 127.739 84.0985C127.226 84.0985 126.701 83.9853 126.198 83.7386C115.864 78.6975 100.761 76.2411 85.5614 76.2411C69.9359 76.2411 54.2083 78.8334 43.4387 83.8745C43.0006 84.0784 42.5402 84.1766 42.0847 84.1766C40.8875 84.1766 39.7376 83.502 39.1876 82.3443C35.9793 75.5892 39.9666 67.4852 43.9987 61.3215C44.7379 60.1915 45.2705 58.9381 45.5891 57.6244C48.3693 46.1277 59.2957 38.9649 68.9453 33.3147C74.1596 29.6678 78.9981 27.9086 83.8391 27.9086ZM83.8391 25.4874C78.5426 25.4874 73.2511 27.3775 67.6635 31.2685C62.6956 34.1804 57.4962 37.4347 53.0833 41.4867C47.8466 46.2938 44.6358 51.3852 43.2669 57.0505C43.0106 58.1126 42.585 59.1017 42.005 59.9902C39.3618 64.0346 37.5922 67.606 36.5941 70.908C35.1779 75.5968 35.3272 79.7973 37.0346 83.3938C37.958 85.3393 39.9417 86.5977 42.0897 86.5977C42.9085 86.5977 43.7025 86.4215 44.4492 86.0717C49.5142 83.7009 55.7863 81.8435 63.0963 80.5524C70.0927 79.3166 77.8632 78.6622 85.5664 78.6622C101.279 78.6622 115.712 81.3074 125.165 85.9182C125.982 86.3158 126.85 86.5172 127.746 86.5172C130.758 86.5172 133.299 84.2395 133.655 81.2168C134.143 77.0817 134.061 73.3543 133.411 70.1379C132.56 65.9273 130.741 62.6076 128.003 60.2745C126.84 59.2829 125.959 57.9616 125.454 56.4465C121.504 44.6402 110.618 37.1024 100.473 31.2886C97.5631 29.3683 94.8477 27.9665 92.1745 27.0076C89.3197 25.9832 86.5968 25.4874 83.8391 25.4874Z" stroke="#211D21"/>
<path d="M118.04 58.5859C111.949 47.3258 101.844 38.6705 90.3726 34.694C89.8474 34.5128 89.5537 35.3156 90.0465 35.5824C97.1798 39.4457 103.39 45.335 107.818 52.5154C108.017 52.8375 107.803 53.2654 107.447 53.2603C94.6536 53.132 81.4398 53.2075 69.6771 58.2059C69.1843 58.4147 69.3933 59.2151 69.916 59.1295C85.7208 56.5045 102.078 54.4005 117.532 59.2856C117.918 59.4064 118.244 58.9609 118.04 58.5859Z" fill="#F7FFEB"/>
<path d="M43.2795 91.1807C43.2795 108.665 41.134 124.312 61.0704 124.312C72.6912 124.312 73.1616 123.144 76.0812 120.192C79.7573 116.475 80.4069 111.73 84.9393 111.73C89.6434 111.73 90.9998 117.099 92.8815 120.046C95.9404 124.84 100.353 124.226 111.115 124.226C128.175 124.226 127.254 104.945 127.254 91.3645C127.251 76.8652 43.2795 78.2847 43.2795 91.1807Z" stroke="#211D21" stroke-width="4" stroke-miterlimit="10" stroke-linejoin="round"/>
<path d="M58.7058 109.946C58.7058 109.946 60.2962 108.338 61.354 107.268C61.5556 107.064 61.8742 107.041 62.1032 107.215L64.1491 108.768L68.4351 103.103C68.5172 102.994 68.6591 102.957 68.7835 103.01L70.7647 103.87C71.0634 104.001 71.4118 103.926 71.6333 103.687L81.4049 93.111C81.7135 92.7763 82.2412 92.7813 82.5448 93.1236L87.0697 98.2252L83.6674 96.4156L83.0924 99.9441L82.1118 98.4869L81.6712 100.483C81.6613 100.533 81.5941 100.543 81.5667 100.5L79.7373 97.4248L78.2639 100.963L77.4848 99.4785L75.8272 103.327L75.3269 101.693L73.5772 105.423L72.8206 103.45L70.3864 107.344L69.3211 104.837L67.1508 108.657L66.7401 106.951L63.6663 110.789L61.812 108.894L60.3361 110.711L60.4008 109.271L58.7058 109.946Z" fill="#211D21"/>
<path d="M101.43 101.097L96.6447 105.35L99.3449 104.109L100.079 106.651L102.234 104.104L104.579 105.453L102.035 101.19C101.906 100.976 101.617 100.931 101.43 101.097Z" fill="#211D21"/>
<path d="M111.707 104.61L108.275 107.613L110.61 106.704L110.5 107.93L112.782 106.06L114.808 107.802L112.581 104.708C112.374 104.424 111.971 104.379 111.707 104.61Z" fill="#211D21"/>
<path d="M116.83 109.324C117.641 110.611 119.535 110.558 120.245 109.211C122.087 105.713 122.069 101.313 121.907 97.3999C121.863 95.9854 121.79 94.4804 120.994 93.3176C116.593 86.8948 62.596 84.8788 49.9273 92.9703C49.6261 93.1641 49.3747 93.4284 49.2105 93.7505C48.6928 94.7648 48.6281 95.9955 48.5858 97.1583C48.3941 101.359 48.3294 106.458 50.7536 110.009C51.3883 110.94 52.6651 111.147 53.5636 110.472L60.1095 105.569C60.7492 105.091 61.6104 105.043 62.2948 105.451C63.1435 105.954 64.2287 105.756 64.846 104.978L67.2055 102.011C67.7804 101.288 68.7685 101.057 69.5974 101.452L69.6023 101.454C70.3764 101.824 71.2998 101.648 71.8872 101.019L80.5561 91.7648C81.3202 90.9493 82.5946 90.9267 83.3861 91.7119L88.6651 96.9494C89.4989 97.7774 90.8529 97.6994 91.5921 96.7858L91.8783 96.4334C92.7793 95.3185 94.5141 95.4972 95.1737 96.7732L96.9159 100.143C97.5133 101.298 99.0241 101.58 99.9898 100.717L100.303 100.438C101.279 99.5643 102.807 99.8638 103.392 101.042L105.56 105.421C106.137 106.586 107.646 106.896 108.624 106.045L110.906 104.067C111.835 103.261 113.253 103.491 113.89 104.545C114.702 105.887 115.807 107.704 116.83 109.324Z" fill="#211D21"/>
<path d="M93.9059 97.5155L96.4817 103.236L93.9159 101.278L91.4372 107.93L91.0514 103.037L85.5464 107.623L92.8731 97.4098C93.1419 97.0323 93.7143 97.0901 93.9059 97.5155Z" fill="#211D21"/>
<path d="M118.559 98.3963C118.129 97.8711 117.58 97.2588 116.928 96.6413C115.567 95.3526 113.724 94.0144 111.518 93.426L118.559 98.3963ZM118.559 98.3963C118.512 98.0738 118.454 97.7309 118.385 97.3873C118.278 96.8538 118.144 96.3304 117.98 95.8847C117.812 95.4285 117.63 95.1016 117.451 94.9183C116.717 94.1702 115.592 93.8736 114.362 93.6075L118.559 98.3963ZM107.71 92.35C109.939 92.7118 112.157 93.131 114.362 93.6074L107.71 92.35ZM107.71 92.35C108.947 92.7161 110.182 93.0689 111.518 93.4259L107.71 92.35Z" fill="#F7FFEB" stroke="#211D21"/>
<path d="M135.71 103.984V98.9527C135.71 96.3327 133.61 94.2085 131.019 94.2085H127.575V108.725H131.019C133.61 108.725 135.71 106.601 135.71 103.984Z" fill="#211D21"/>
<path d="M135.71 103.984V98.9527C135.71 96.3327 133.61 94.2085 131.019 94.2085H127.575V108.725H131.019C133.61 108.725 135.71 106.601 135.71 103.984Z" stroke="#211D21"/>
<path d="M33.8603 104.07V98.95C33.8603 96.2837 36.0605 94.1219 38.7742 94.1219H42.3821V108.896H38.7742C36.0605 108.896 33.8603 106.734 33.8603 104.07Z" fill="#211D21"/>
<path d="M33.8603 104.07V98.95C33.8603 96.2837 36.0605 94.1219 38.7742 94.1219H42.3821V108.896H38.7742C36.0605 108.896 33.8603 106.734 33.8603 104.07Z" stroke="#211D21"/>
</svg>
