<svg width="320" height="156" viewBox="0 0 320 156" fill="none" xmlns="http://www.w3.org/2000/svg">
<path d="M68.7051 37.7888H157.252C174.202 37.7888 188.841 49.8227 192.341 66.6752L194.972 79.2919C197.399 90.9889 207.592 99.3698 219.382 99.3698H246.833V128.308H124.411C106.489 128.308 90.9567 115.73 86.9458 98.0356L78.528 60.6C77.008 53.916 72.9843 48.061 67.3 44.3304L66.8402 44.0195C64.0428 42.193 65.3201 37.7888 68.6796 37.7888H68.7051Z" fill="#EB463C"/>
<path d="M61.9607 35.9348H167.368C180.257 35.9348 191.051 45.3002 193.031 58.2149L195.509 74.3031C197.489 87.1789 208.257 96.5184 221.107 96.5184H246.846V105.081H221.107C204.08 105.081 189.799 92.6971 187.18 75.6244L184.702 59.5361C183.361 50.8184 176.067 44.4971 167.368 44.4971H61.9607C59.6359 44.4971 57.7455 42.58 57.7455 40.2224C57.7455 37.8649 59.6359 35.9478 61.9607 35.9478V35.9348Z" fill="#EB463C"/>
<g opacity="0.7">
<path d="M61.9607 35.9346H167.368C180.257 35.9346 191.051 45.3 193.031 58.2146L195.509 74.3029C197.489 87.1787 208.257 96.5182 221.107 96.5182H246.846V105.08H221.107C204.08 105.08 189.799 92.6969 187.18 75.6242L184.702 59.5359C183.361 50.8182 176.067 44.4968 167.368 44.4968H61.9607C59.6359 44.4968 57.7455 42.5797 57.7455 40.2222C57.7455 37.8646 59.6359 35.9475 61.9607 35.9475V35.9346Z" fill="#F2F2F2"/>
</g>
<path opacity="0.4" d="M61.9607 35.9348H167.368C180.257 35.9348 191.051 45.3002 193.031 58.2149L195.509 74.3031C197.489 87.1789 208.257 96.5184 221.107 96.5184H246.846V128.293H124.424C106.502 128.293 90.9696 115.716 86.9587 98.021L78.5409 60.5854C77.0464 53.992 73.0993 48.2277 67.5428 44.4841H61.9607C59.6359 44.4841 57.7455 42.567 57.7455 40.2095C57.7455 37.8519 59.6359 35.9348 61.9607 35.9348Z" fill="#302F2F"/>
<path d="M94.4823 15.7784C97.9567 16.1411 109.491 16.9571 113.489 12.3845C114.435 11.3094 115.418 9.41818 114.728 6.60727C113.86 3.10982 111.292 1.10203 107.665 1.10203C102.926 1.10203 96.6538 4.66424 93.3966 8.62801C91.2506 4.85854 87.0481 -0.594881 80.7507 0.0527943C76.1778 0.519121 72.7161 4.05543 73.0355 7.92853C73.2143 10.027 75.1431 16.5944 92.3491 15.7913L93.6393 19.224L94.4951 15.7784H94.4823ZM107.665 4.98808C109.542 4.98808 110.577 5.77824 111.011 7.55287C111.318 8.79641 110.973 9.41818 110.628 9.80679C108.495 12.255 100.895 12.4623 95.6703 11.9959C97.5863 8.90005 103.475 5.00103 107.665 5.00103V4.98808ZM90.8035 11.9571C80.1631 12.2291 76.9953 9.31456 76.8548 7.6047C76.727 6.08913 78.5281 4.18495 81.1211 3.92588C81.3255 3.89998 81.5171 3.89999 81.7215 3.89999C86.2944 3.89999 89.4879 9.28865 90.8035 11.97V11.9571Z" fill="#EB463C"/>
<path d="M131 66L56 66L56 14L131 14V66Z" fill="#F2CE4F"/>
<path opacity="0.2" d="M130.606 65.8721L55.9316 65.8721L55.9316 31.8302L130.606 31.8302V65.8721Z" fill="#F2CE4F"/>
<path opacity="0.2" d="M86 66H56L56 14L86 14V66Z" fill="#F2CE4F"/>
<g opacity="0.3">
<path d="M85.5663 54.5498V58.0084L88.7213 65.8712H90.1136L85.5663 54.5498Z" fill="#F2F2F2"/>
</g>
<g opacity="0.2">
<path d="M55.9697 33.6316V37.0902L62.4331 65.8729H63.2123L55.9697 33.6316Z" fill="#F2F2F2"/>
<path d="M78.2214 65.8702L66.5464 13.823H65.7672L77.4422 65.8702H78.2214Z" fill="#F2F2F2"/>
</g>
<path opacity="0.2" d="M56 14H92V49H56V14Z" fill="#F2F2F2"/>
<path d="M111.752 65.8572H105.685V13.8359H111.752V65.8572Z" fill="#EB463C"/>
<path d="M71 66H66V14H71V66Z" fill="#EB463C"/>
<path d="M159.689 40.2701L160.72 37.5317C174.541 38.1778 176.088 32.9471 176.24 31.2702C176.498 28.1472 173.722 25.4088 170.05 25.0396C164.983 24.5165 161.6 29.301 159.886 32.3317C157.277 29.1472 152.225 26.8857 148.417 26.8857C145.504 26.8857 143.441 27.901 142.743 30.7164C142.182 32.9779 142.971 34.0086 143.729 34.8701C146.945 38.547 156.215 37.8393 159.006 37.5317L159.689 40.2701ZM158.05 35.1009C153.848 35.4701 147.749 34.9317 146.035 32.9779C145.762 32.6702 145.474 32.5164 145.732 31.5164C146.081 30.0856 146.915 29.9625 148.417 29.9625C151.785 29.9625 156.518 32.6086 158.05 35.1009ZM169.261 27.9318C169.413 27.9318 169.58 27.9318 169.747 27.9626C171.84 28.178 173.282 29.701 173.176 30.9164C173.054 32.2856 170.505 34.6394 161.964 34.424C163.011 32.2702 165.59 27.9472 169.261 27.9472V27.9318Z" fill="#F2CE4F"/>
<path d="M130 35.8547H190V77.654H130V35.8547Z" fill="#F2CE4F"/>
<path opacity="0.2" d="M130 35.8547H190V77.654H130V35.8547Z" fill="#F2F2F2"/>
<path opacity="0.1" d="M130 50.2854H190V77.6388H130V50.2854Z" fill="#F2CE4F"/>
<path opacity="0.2" d="M166.167 35.8547H190V77.654H166.167V35.8547Z" fill="#F2F2F2"/>
<path d="M145.14 35.8547H150.01V77.654H145.14V35.8547Z" fill="#F2CE4F"/>
<path d="M177.985 35.8547H181.565V77.654H177.985V35.8547Z" fill="#F2CE4F"/>
<path d="M177.238 53.2636L177.723 50.8283C189.296 49.4293 189.858 44.8179 189.743 43.406C189.539 40.7764 186.844 38.8075 183.74 39.0147C179.46 39.2868 177.289 43.5873 176.267 46.3464C173.661 44.0666 169.114 42.577 165.959 43.121C163.544 43.5355 162.012 44.9863 161.82 47.4086C161.667 49.3646 162.51 50.4138 163.263 51.0356C166.431 53.6392 174.032 51.748 176.318 51.1133L177.263 53.2636H177.238ZM175.117 48.8205C171.681 49.7273 166.572 50.362 164.886 48.976C164.617 48.7558 164.336 48.5097 164.4 47.6418C164.502 46.4112 165.116 45.8801 166.367 45.6729C169.165 45.2065 173.495 46.9682 175.117 48.8205ZM183.51 41.6831C183.637 41.6572 183.778 41.6443 183.906 41.6314C185.668 41.5148 187.073 42.577 187.163 43.6132C187.252 44.7791 185.464 47.0718 178.336 48.0952C178.911 46.1521 180.457 42.2013 183.51 41.6831Z" fill="#EB463C"/>
<path d="M152 53.8085L201.833 45.3882L207.537 80.1043L157.704 88.5246L152 53.8085Z" fill="#F2CE4F"/>
<path opacity="0.1" d="M153.969 65.7968L203.801 57.3765L207.534 80.0946L157.702 88.5149L153.969 65.7968Z" fill="#F2CE4F"/>
<path opacity="0.2" d="M182.038 48.7234L201.833 45.3787L207.537 80.0947L187.742 83.4394L182.038 48.7234Z" fill="#F2F2F2"/>
<path d="M164.502 51.6224L168.547 50.9397L174.245 85.6568L170.2 86.3395L164.502 51.6224Z" fill="#EB463C"/>
<path d="M191.865 47.0686L194.838 46.5662L200.543 81.2823L197.569 81.7847L191.865 47.0686Z" fill="#EB463C"/>
<path d="M207.474 77.3617L207.296 77.349L207.309 77.311H207.284L207.296 77.2603L207.474 77.3617Z" fill="#302F2F"/>
<path d="M139.965 63.0898L140.591 63.1805L185.759 66.4059L206.937 76.9242L207.308 76.9501L200.384 118.971L157.427 115.901L134.025 104.386L139.965 63.0898Z" fill="#EB463C"/>
<g opacity="0.2">
<path d="M207.474 77.3617L207.296 77.349L207.309 77.311H207.284L207.296 77.2603L207.474 77.3617Z" fill="#302F2F"/>
<path d="M139.965 63.0898L140.591 63.1805L185.759 66.4059L206.937 76.9242L207.308 76.9501L200.384 118.971L157.427 115.901L134.025 104.386L139.965 63.0898Z" fill="#302F2F"/>
</g>
<path opacity="0.2" d="M176.14 107.729L176.127 110.152L174.16 111.512L176.434 112.276L177.098 114.595L178.516 112.639L180.905 112.716L179.499 110.747L180.304 108.468L178.03 109.206L176.14 107.729Z" fill="#F2F2F2"/>
<path opacity="0.2" d="M187.023 101.964L187.01 104.387L185.043 105.747L187.317 106.511L187.981 108.83L189.399 106.874L191.787 106.951L190.382 104.983L191.187 102.703L188.913 103.441L187.023 101.964Z" fill="#F2F2F2"/>
<path opacity="0.2" d="M175.208 100.306V101.731L174.045 102.534L175.374 102.975L175.77 104.335L176.6 103.195L177.992 103.234L177.175 102.081L177.647 100.747L176.319 101.174L175.208 100.306Z" fill="#F2F2F2"/>
<path opacity="0.2" d="M194.585 111.513V112.938L193.435 113.728L194.764 114.181L195.16 115.541L195.977 114.388L197.382 114.427L196.565 113.287L197.025 111.94L195.696 112.381L194.585 111.513Z" fill="#F2F2F2"/>
<path opacity="0.2" d="M197.152 97.7932V99.2051L196.003 100.008L197.331 100.449L197.727 101.822L198.545 100.669L199.95 100.708L199.132 99.5549L199.592 98.2207L198.264 98.6611L197.152 97.7932Z" fill="#F2F2F2"/>
<path opacity="0.2" d="M165.615 104.388L164.018 107.16L160.863 107.394L162.97 109.79L162.217 112.899L165.104 111.617L167.799 113.3L167.479 110.114L169.894 108.041L166.802 107.355L165.615 104.388Z" fill="#F2F2F2"/>
<path opacity="0.2" d="M144.053 100.849L143.823 103.271L142.699 104.45L143.785 105.421L143.912 107.818L144.819 105.991L146.033 106.289L145.496 104.191L146.122 101.976L144.883 102.507L144.053 100.849Z" fill="#F2F2F2"/>
<path opacity="0.2" d="M150.159 96.1099L149.929 98.5322L148.792 99.7109L149.89 100.682L150.018 103.079L150.912 101.252L152.126 101.55L151.602 99.4519L152.215 97.2368L150.989 97.7679L150.159 96.1099Z" fill="#F2F2F2"/>
<path opacity="0.2" d="M144.27 93.3506L144.129 94.7625L143.465 95.462L144.104 96.019L144.18 97.418L144.704 96.3558L145.419 96.5242L145.113 95.3065L145.471 94.0112L144.755 94.3221L144.27 93.3506Z" fill="#F2F2F2"/>
<path opacity="0.2" d="M153.148 106.383L153.007 107.794L152.343 108.494L152.982 109.064L153.058 110.463L153.595 109.388L154.297 109.569L153.991 108.339L154.348 107.043L153.633 107.354L153.148 106.383Z" fill="#F2F2F2"/>
<path opacity="0.2" d="M155.728 92.8965L155.587 94.3084L154.923 95.0079L155.562 95.5779L155.638 96.9768L156.175 95.9017L156.877 96.083L156.571 94.8525L156.929 93.5571L156.213 93.868L155.728 92.8965Z" fill="#F2F2F2"/>
<path opacity="0.2" d="M143.695 83.8824L142.086 84.7632L140.923 82.7036L140.706 85.929L139.25 87.6519L140.744 88.7658L141 91.8747L142.137 89.3488L143.759 89.5431L142.967 86.8746L143.695 83.8824Z" fill="#F2F2F2"/>
<path opacity="0.2" d="M138.982 96.5225L137.909 99.1391L136.274 99.0743L137.13 101.665L136.453 104.709L138.049 103.699L139.275 105.642L139.403 102.416L140.834 100.577L139.314 99.6054L138.982 96.5225Z" fill="#F2F2F2"/>
<path opacity="0.2" d="M164.376 73.999L139.953 63.2864L134 104.725L157.401 116.396L164.376 73.999Z" fill="#302F2F"/>
<path opacity="0.2" d="M207.487 77.1189L185.759 66.4063L140.285 63.155L164.388 73.7251L207.487 77.1189Z" fill="#F2F2F2"/>
<path d="M142.073 108.853L147.936 66.1584L192.273 69.3321L196.31 71.8321L155.728 70.0575L147.655 111.392L142.073 108.853Z" fill="#EB463C"/>
<path d="M163.686 64.8225L183.881 75.0687L178.452 117.401L184.864 117.867L192.222 75.7941L169.574 65.25L163.686 64.8225Z" fill="#EB463C"/>
<g opacity="0.5">
<path d="M142.073 108.85L147.936 66.1555L192.273 69.3291L196.31 71.8292L155.728 70.0545L147.655 111.389L142.073 108.85Z" fill="#F2F2F2"/>
<path d="M163.686 64.8228L183.881 75.069L178.452 117.401L184.865 117.867L192.222 75.7944L169.575 65.2502L163.686 64.8228Z" fill="#F2F2F2"/>
</g>
<path opacity="0.2" d="M147.91 66.5203L155.728 70.1473L147.642 111.534L142.06 109.047L147.91 66.5203Z" fill="#302F2F"/>
<path opacity="0.1" d="M192.209 75.9777L183.868 75.1616L178.452 117.403L184.865 117.869L192.209 75.9777Z" fill="#302F2F"/>
<path d="M176.74 69.0982C176.74 69.0982 189.437 60.7432 194.496 63.4116C198.507 65.536 197.523 70.9505 186.959 71.5982C190.855 72.2329 195.466 73.2044 198.162 74.4739L190.204 74.8625C190.204 74.8625 182.744 72.1423 175.948 71.0801C175.948 71.0801 175.527 72.3107 175.757 73.8262L170.392 72.9713C170.392 72.9713 172.091 71.5464 173.47 70.5101C167.326 69.4479 154.22 66.4816 153.301 60.4841C152.1 52.6343 170.826 59.1499 176.74 69.1111V69.0982ZM194.381 64.979C193.257 62.8546 177.443 69.8365 177.443 69.8365C184.532 71.3651 195.505 67.1034 194.381 64.979ZM175.335 69.3443C175.335 69.3443 159.828 56.313 155.702 58.6706C151.576 61.0281 170.366 69.4609 175.335 69.3443Z" fill="#EB463C"/>
<path opacity="0.6" d="M176.74 69.0982C176.74 69.0982 189.437 60.7432 194.496 63.4116C198.507 65.536 197.523 70.9505 186.959 71.5982C190.855 72.2329 195.466 73.2044 198.162 74.4739L190.204 74.8625C190.204 74.8625 182.744 72.1423 175.948 71.0801C175.948 71.0801 175.527 72.3107 175.757 73.8262L170.392 72.9713C170.392 72.9713 172.091 71.5464 173.47 70.5101C167.326 69.4479 154.22 66.4816 153.301 60.4841C152.1 52.6343 170.826 59.1499 176.74 69.1111V69.0982ZM194.381 64.979C193.257 62.8546 177.443 69.8365 177.443 69.8365C184.532 71.3651 195.505 67.1034 194.381 64.979ZM175.335 69.3443C175.335 69.3443 159.828 56.313 155.702 58.6706C151.576 61.0281 170.366 69.4609 175.335 69.3443Z" fill="#F2F2F2"/>
<path d="M123.747 48.8193C126.518 49.1173 135.728 49.8167 138.922 46.1638C139.675 45.2959 140.454 43.9099 139.905 41.669C139.215 38.871 137.159 37.4979 134.272 37.4979C130.491 37.4979 125.484 40.1146 122.891 43.2752C121.179 40.257 117.832 35.6844 112.8 36.2155C109.146 36.5912 106.387 39.4021 106.643 42.498C106.783 44.169 108.316 49.4152 122.048 48.7675L123.07 51.5007L123.747 48.8064V48.8193ZM134.259 40.6068C135.754 40.6068 136.584 41.0731 136.929 42.485C137.172 43.4825 136.891 43.8063 136.622 44.1172C134.923 46.0602 128.856 46.3452 124.679 45.9695C126.199 43.4954 130.912 40.6068 134.246 40.6068H134.259ZM120.809 45.7234C112.327 45.9436 109.798 43.612 109.683 42.2519C109.581 41.0342 111.011 39.5187 113.093 39.3114C113.259 39.2985 113.413 39.2855 113.566 39.2855C117.219 39.2855 119.774 43.5861 120.809 45.7234Z" fill="#302F2F"/>
<path d="M136 89.0002H92.9999V47.0002L136 47.0002V89.0002Z" fill="#EB463C"/>
<path opacity="0.2" d="M140 89.0002H92.9999V62.0002L140 62.0002V89.0002Z" fill="#302F2F"/>
<path d="M137.516 88.6521H132.675V47.1361H137.516V88.6521Z" fill="#302F2F"/>
<path d="M104.893 88.6521H101.342V47.1361H104.893V88.6521Z" fill="#302F2F"/>
<path opacity="0.2" d="M116.657 88.6521H92.9749V47.1361H116.657V88.6521Z" fill="#302F2F"/>
<path d="M129.378 27.2859L130.461 25.8165C138.606 28.5551 140.438 25.6694 140.799 24.6813C141.488 22.8706 140.316 20.6913 138.181 19.8405C135.248 18.6679 132.44 20.831 130.902 22.3593C129.885 20.0087 127.322 17.5814 125.05 16.9338C123.305 16.4368 121.839 16.9214 120.942 18.4841C120.227 19.735 120.452 20.7152 120.761 21.3555C122.053 24.0941 127.714 25.2493 129.434 25.5509L129.378 27.2859ZM129.354 23.6423C126.784 23.1525 123.178 21.9633 122.48 20.4983C122.374 20.2659 122.258 20.0175 122.576 19.4616C123.026 18.674 123.603 18.515 124.512 18.7741C126.527 19.3481 128.852 21.9098 129.351 23.6548L129.354 23.6423ZM137.189 21.5512C137.287 21.5792 137.373 21.6037 137.468 21.6442C138.685 22.1258 139.286 23.2803 139.015 23.9978C138.707 24.799 136.786 25.7602 131.724 24.1829C132.716 23.0783 134.99 20.9246 137.189 21.5512Z" fill="#EB463C"/>
<g opacity="0.2">
<path d="M129.378 27.2857L130.461 25.8163C138.606 28.5548 140.438 25.6691 140.799 24.681C141.488 22.8704 140.316 20.6911 138.181 19.8403C135.248 18.6677 132.44 20.8308 130.902 22.359C129.885 20.0085 127.322 17.5812 125.05 16.9336C123.305 16.4365 121.839 16.9211 120.942 18.4839C120.227 19.7348 120.452 20.7149 120.761 21.3552C122.053 24.0938 127.714 25.249 129.434 25.5507L129.378 27.2857ZM129.354 23.6421C126.784 23.1522 123.178 21.9631 122.48 20.498C122.374 20.2656 122.258 20.0173 122.576 19.4613C123.026 18.6737 123.603 18.5148 124.512 18.7738C126.527 19.3479 128.852 21.9096 129.351 23.6546L129.354 23.6421ZM137.189 21.551C137.287 21.579 137.373 21.6035 137.468 21.6439C138.685 22.1256 139.286 23.28 139.015 23.9975C138.707 24.7987 136.786 25.7599 131.724 24.1826C132.716 23.078 134.99 20.9244 137.189 21.551Z" fill="#302F2F"/>
</g>
<path d="M112.388 19.6026L148.235 29.8171L141.121 54.7822L105.275 44.5676L112.388 19.6026Z" fill="#EB463C"/>
<path opacity="0.6" d="M112.388 19.6026L148.235 29.8171L138.847 62.764L103 52.5495L112.388 19.6026Z" fill="#F2F2F2"/>
<path opacity="0.1" d="M109.928 28.2376L145.774 38.4521L139.101 61.8701L103.255 51.6555L109.928 28.2376Z" fill="#302F2F"/>
<path opacity="0.2" d="M133.997 25.76L148.235 29.8171L139.484 60.5267L125.246 56.4696L133.997 25.76Z" fill="#F2F2F2"/>
<path d="M121.43 22.1792L124.342 23.0088L117.228 47.9738L114.316 47.1442L121.43 22.1792Z" fill="#EB463C"/>
<path d="M141.061 27.773L143.198 28.3821L136.084 53.3471L133.947 52.738L141.061 27.773Z" fill="#EB463C"/>
<path opacity="0.2" d="M121.43 22.1792L124.342 23.0088L117.228 47.9738L114.316 47.1442L121.43 22.1792Z" fill="#302F2F"/>
<path opacity="0.2" d="M141.061 27.773L143.198 28.3821L136.084 53.3471L133.947 52.738L141.061 27.773Z" fill="#302F2F"/>
<path d="M101.367 93.4733H107.511C120.208 93.4733 130.542 103.953 130.542 116.828C130.542 128.215 121.409 137.489 110.181 137.489H104.791C98.0844 137.489 92.6173 131.958 92.6173 125.145C92.6173 118.331 98.0717 112.8 104.791 112.8H106.86C109.185 112.8 111.075 114.717 111.075 117.075C111.075 119.432 109.185 121.349 106.86 121.349H104.791C102.734 121.349 101.061 123.046 101.061 125.132C101.061 127.217 102.734 128.914 104.791 128.914H110.181C116.759 128.914 122.112 123.487 122.112 116.815C122.112 108.655 115.559 102.023 107.511 102.023H101.367C89.9349 102.023 80.6357 111.453 80.6357 123.046V126.414C80.6357 138.007 89.9349 147.438 101.367 147.438H143.661V124.056C143.661 121.699 145.551 119.782 147.876 119.782H221.056C222.614 119.782 224.058 120.663 224.786 122.062L238.006 147.438H282.471C298.515 147.438 311.557 134.199 311.557 117.942C311.557 110.507 308.823 103.409 303.841 97.9422L291.949 84.8721C285.537 77.8254 281.999 68.6543 281.999 59.0687V57.2811C281.999 47.6567 289.727 39.8328 299.217 39.8328C308.708 39.8328 316.436 47.6567 316.436 57.2811C316.436 64.1854 311.876 70.3512 305.361 72.2943C302.219 73.2269 298.732 72.3461 296.267 69.9885C294.351 68.1621 293.252 65.5844 293.252 62.9159V61.3097C293.252 57.7734 295.143 54.5091 298.323 52.7345C300.354 51.5945 302.871 52.3718 303.995 54.4443C305.119 56.5169 304.327 59.1465 302.283 60.2864C301.913 60.4936 301.695 60.8822 301.695 61.3097V62.9159C301.695 63.2398 301.823 63.5377 302.053 63.7579C302.334 64.0299 302.717 64.1595 302.986 64.0817C305.936 63.2009 307.993 60.4159 307.993 57.2811C307.993 52.3718 304.059 48.3821 299.217 48.3821C294.376 48.3821 290.442 52.3718 290.442 57.2811V59.0687C290.442 66.5041 293.175 73.6026 298.157 79.069L310.049 92.1391C316.462 99.1858 320 108.357 320 117.942C320 138.927 303.164 156 282.471 156H101.367C85.2853 156 72.1924 142.735 72.1924 126.414V123.046C72.1924 106.738 85.2725 93.4603 101.367 93.4603V93.4733ZM218.514 128.344H152.104V147.451H228.464L218.514 128.344Z" fill="#7B0D0D"/>
<path opacity="0.1" d="M101.367 93.4733H107.511C120.208 93.4733 130.542 103.953 130.542 116.828C130.542 128.215 121.409 137.489 110.181 137.489H104.791C98.0844 137.489 92.6173 131.958 92.6173 125.145C92.6173 118.331 98.0717 112.8 104.791 112.8H106.86C109.185 112.8 111.075 114.717 111.075 117.075C111.075 119.432 109.185 121.349 106.86 121.349H104.791C102.734 121.349 101.061 123.046 101.061 125.132C101.061 127.217 102.734 128.914 104.791 128.914H110.181C116.759 128.914 122.112 123.487 122.112 116.815C122.112 108.655 115.559 102.023 107.511 102.023H101.367C89.9349 102.023 80.6357 111.453 80.6357 123.046V126.414C80.6357 138.007 89.9349 147.438 101.367 147.438H143.661V124.056C143.661 121.699 145.551 119.782 147.876 119.782H221.056C222.614 119.782 224.058 120.663 224.786 122.062L238.006 147.438H282.471C298.515 147.438 311.557 134.199 311.557 117.942C311.557 110.507 308.823 103.409 303.841 97.9422L291.949 84.8721C285.537 77.8254 281.999 68.6543 281.999 59.0687V57.2811C281.999 47.6567 289.727 39.8328 299.217 39.8328C308.708 39.8328 316.436 47.6567 316.436 57.2811C316.436 64.1854 311.876 70.3512 305.361 72.2943C302.219 73.2269 298.732 72.3461 296.267 69.9885C294.351 68.1621 293.252 65.5844 293.252 62.9159V61.3097C293.252 57.7734 295.143 54.5091 298.323 52.7345C300.354 51.5945 302.871 52.3718 303.995 54.4443C305.119 56.5169 304.327 59.1465 302.283 60.2864C301.913 60.4936 301.695 60.8822 301.695 61.3097V62.9159C301.695 63.2398 301.823 63.5377 302.053 63.7579C302.334 64.0299 302.717 64.1595 302.986 64.0817C305.936 63.2009 307.993 60.4159 307.993 57.2811C307.993 52.3718 304.059 48.3821 299.217 48.3821C294.376 48.3821 290.442 52.3718 290.442 57.2811V59.0687C290.442 66.5041 293.175 73.6026 298.157 79.069L310.049 92.1391C316.462 99.1858 320 108.357 320 117.942C320 138.927 303.164 156 282.471 156H101.367C85.2853 156 72.1924 142.735 72.1924 126.414V123.046C72.1924 106.738 85.2725 93.4603 101.367 93.4603V93.4733ZM218.514 128.344H152.104V147.451H228.464L218.514 128.344Z" fill="#F2F2F2"/>
<path d="M28.7194 43.8654L29.179 44.1787C34.8605 47.938 38.8823 53.8248 40.4016 60.5731L48.8155 98.2958C52.8245 116.139 68.3498 128.8 86.2627 128.8H241.44C259.863 128.8 275.669 115.447 279.142 96.9513L285.82 61.4607C287.198 54.1902 291.463 47.8205 297.604 43.9177C298.702 43.2128 299.2 42.1425 299.2 41.046C299.2 39.31 297.91 37.6001 295.842 37.6001H249.241C248.334 37.6001 247.402 37.6393 246.508 37.7306C230.715 38.9315 217.462 50.6529 214.142 66.7079L211.091 81.5098C208.908 92.0695 199.766 99.6533 189.195 99.6533H168.409C156.625 99.6533 146.436 91.195 144.01 79.4214L141.38 66.7079C137.882 49.7392 123.25 37.6001 106.308 37.6001H30.5706C27.2127 37.6001 25.936 42.0381 28.7321 43.8785L28.7194 43.8654Z" fill="#EB463C"/>
<path opacity="0.2" d="M200.8 128.787H241.381C259.807 128.787 275.651 115.423 279.126 96.9428L285.809 61.4573C287.189 54.1879 291.457 47.819 297.603 43.9168C298.702 43.212 299.2 42.1418 299.2 41.0455C299.2 39.3098 297.909 37.6001 295.839 37.6001H249.176C247.4 37.6001 245.764 38.5397 244.704 39.9884C241.305 44.6998 238.877 50.2334 237.714 56.3021L228.348 105.609C225.793 119.064 214.242 128.8 200.813 128.8L200.8 128.787Z" fill="#F2F2F2"/>
<path d="M170.038 105.081H188.853C201.423 105.081 212.178 95.988 214.452 83.449L218.092 63.2545C220.059 52.3865 229.384 44.4978 240.293 44.4978H301.734C304.058 44.4978 305.949 42.5807 305.949 40.2231C305.949 37.8656 304.058 35.9485 301.734 35.9485H240.293C225.322 35.9485 212.497 46.7906 209.802 61.726L206.162 81.9205C204.629 90.3921 197.361 96.545 188.866 96.545H170.051C157.201 96.545 146.432 87.2056 144.452 74.3298L141.974 58.2415C139.982 45.3398 129.188 35.9614 116.312 35.9614H23.6909C21.3661 35.9614 19.4757 37.8786 19.4757 40.2361C19.4757 42.5936 21.3661 44.5107 23.6909 44.5107H116.312C125.011 44.5107 132.305 50.8321 133.646 59.5498L136.124 75.638C138.755 92.6978 153.024 105.094 170.051 105.094L170.038 105.081Z" fill="#EB463C"/>
<g opacity="0.7">
<path d="M170.038 105.081H188.853C201.423 105.081 212.178 95.9878 214.452 83.4488L218.092 63.2542C220.059 52.3862 229.384 44.4975 240.293 44.4975H301.734C304.058 44.4975 305.949 42.5804 305.949 40.2229C305.949 37.8653 304.058 35.9482 301.734 35.9482H240.293C225.322 35.9482 212.497 46.7903 209.802 61.7257L206.162 81.9203C204.629 90.3919 197.361 96.5448 188.866 96.5448H170.051C157.201 96.5448 146.432 87.2053 144.452 74.3295L141.974 58.2412C139.982 45.3395 129.188 35.9612 116.312 35.9612H23.6909C21.3661 35.9612 19.4757 37.8783 19.4757 40.2359C19.4757 42.5934 21.3661 44.5105 23.6909 44.5105H116.312C125.011 44.5105 132.305 50.8318 133.646 59.5496L136.124 75.6378C138.755 92.6976 153.024 105.094 170.051 105.094L170.038 105.081Z" fill="#F2F2F2"/>
</g>
<path d="M29.1452 93.4733H35.2894C47.9863 93.4733 58.3201 103.953 58.3201 116.828C58.3201 128.215 49.187 137.489 37.9591 137.489H32.5686C25.8625 137.489 20.3954 131.958 20.3954 125.145C20.3954 118.331 25.8497 112.8 32.5686 112.8H34.6251C36.9499 112.8 38.8404 114.717 38.8404 117.075C38.8404 119.432 36.9499 121.349 34.6251 121.349H32.5686C30.5121 121.349 28.8387 123.046 28.8387 125.132C28.8387 127.217 30.5121 128.914 32.5686 128.914H37.9591C44.5375 128.914 49.8896 123.487 49.8896 116.815C49.8896 108.655 43.3367 102.023 35.2894 102.023H29.1452C17.7129 102.023 8.41373 111.453 8.41373 123.046V126.414C8.41373 138.007 17.7129 147.438 29.1452 147.438H93.3581L106.579 122.062C107.307 120.663 108.75 119.782 110.309 119.782H183.489C185.813 119.782 187.704 121.699 187.704 124.056V147.438H230.495C246.539 147.438 259.581 134.199 259.581 117.942C259.581 110.507 256.847 103.396 251.866 97.9422L239.973 84.8721C233.561 77.8254 230.023 68.6543 230.023 59.0687V57.2811C230.023 47.6567 237.738 39.8328 247.242 39.8328C256.745 39.8328 264.46 47.6567 264.46 57.2811C264.46 64.1854 259.9 70.3512 253.386 72.2943C250.243 73.2269 246.756 72.3461 244.291 69.9885C242.375 68.1621 241.276 65.5844 241.276 62.9159V61.3097C241.276 57.7734 243.167 54.522 246.347 52.7345C248.378 51.5945 250.895 52.3718 252.019 54.4443C253.143 56.5169 252.351 59.1465 250.307 60.2864C249.937 60.4936 249.72 60.8822 249.72 61.3097V62.9159C249.72 63.2398 249.847 63.5377 250.077 63.7579C250.358 64.0299 250.742 64.1595 251.01 64.0817C253.96 63.2009 256.03 60.4159 256.03 57.2811C256.03 52.3718 252.096 48.3821 247.254 48.3821C242.413 48.3821 238.479 52.3718 238.479 57.2811V59.0687C238.479 66.5041 241.212 73.6026 246.194 79.069L258.086 92.1391C264.499 99.1858 268.037 108.357 268.037 117.942C268.037 138.927 251.201 156 230.508 156H29.1708C13.0889 156 -0.00405884 142.735 -0.00405884 126.414V123.046C-0.00405884 106.738 13.0761 93.4603 29.1708 93.4603L29.1452 93.4733ZM179.261 129H113L102.9 147.451H179.261V129Z" fill="#7B0D0D"/>
<path opacity="0.2" d="M29.1452 93.4733H35.2894C47.9863 93.4733 58.3201 103.953 58.3201 116.828C58.3201 128.215 49.187 137.489 37.9591 137.489H32.5686C25.8625 137.489 20.3954 131.958 20.3954 125.145C20.3954 118.331 25.8497 112.8 32.5686 112.8H34.6251C36.9499 112.8 38.8404 114.717 38.8404 117.075C38.8404 119.432 36.9499 121.349 34.6251 121.349H32.5686C30.5121 121.349 28.8387 123.046 28.8387 125.132C28.8387 127.217 30.5121 128.914 32.5686 128.914H37.9591C44.5375 128.914 49.8896 123.487 49.8896 116.815C49.8896 108.655 43.3367 102.023 35.2894 102.023H29.1452C17.7129 102.023 8.41373 111.453 8.41373 123.046V126.414C8.41373 138.007 17.7129 147.438 29.1452 147.438H93.3581L106.579 122.062C107.307 120.663 108.75 119.782 110.309 119.782H183.489C185.813 119.782 187.704 121.699 187.704 124.056V147.438H230.495C246.539 147.438 259.581 134.199 259.581 117.942C259.581 110.507 256.847 103.396 251.866 97.9422L239.973 84.8721C233.561 77.8254 230.023 68.6543 230.023 59.0687V57.2811C230.023 47.6567 237.738 39.8328 247.242 39.8328C256.745 39.8328 264.46 47.6567 264.46 57.2811C264.46 64.1854 259.9 70.3512 253.386 72.2943C250.243 73.2269 246.756 72.3461 244.291 69.9885C242.375 68.1621 241.276 65.5844 241.276 62.9159V61.3097C241.276 57.7734 243.167 54.522 246.347 52.7345C248.378 51.5945 250.895 52.3718 252.019 54.4443C253.143 56.5169 252.351 59.1465 250.307 60.2864C249.937 60.4936 249.72 60.8822 249.72 61.3097V62.9159C249.72 63.2398 249.847 63.5377 250.077 63.7579C250.358 64.0299 250.742 64.1595 251.01 64.0817C253.96 63.2009 256.03 60.4159 256.03 57.2811C256.03 52.3718 252.096 48.3821 247.254 48.3821C242.413 48.3821 238.479 52.3718 238.479 57.2811V59.0687C238.479 66.5041 241.212 73.6026 246.194 79.069L258.086 92.1391C264.499 99.1858 268.037 108.357 268.037 117.942C268.037 138.927 251.201 156 230.508 156H29.1708C13.0889 156 -0.00405884 142.735 -0.00405884 126.414V123.046C-0.00405884 106.738 13.0761 93.4603 29.1708 93.4603L29.1452 93.4733ZM179.261 128.914H113L102.9 147.451H179.261V128.914Z" fill="#F2F2F2"/>
</svg>
