<svg width="170" height="170" viewBox="0 0 170 170" fill="none" xmlns="http://www.w3.org/2000/svg">
<path d="M158 85C158 125.317 125.317 158 85 158C44.6832 158 12 125.317 12 85C12 44.6832 44.6832 12 85 12C125.317 12 158 44.6832 158 85Z" fill="#211D21" stroke="#A6C942" stroke-width="20"/>
<path d="M156.028 94.6719L156.01 94.6707C155.339 94.6268 154.729 94.4906 154.179 94.2621C153.628 94.0456 153.162 93.7324 152.78 93.3226C152.397 92.9247 152.11 92.4369 151.92 91.8592C151.729 91.2815 151.659 90.6215 151.707 89.8791L152.02 85.1374L154.606 85.3069L154.438 87.8573L154.425 88.0549L154.289 90.1204C154.281 90.2402 154.307 90.4042 154.365 90.6125C154.435 90.8335 154.547 91.0453 154.702 91.2479C154.856 91.4624 155.054 91.6498 155.296 91.8099C155.538 91.9701 155.839 92.062 156.198 92.0855C156.546 92.1083 156.85 92.056 157.111 91.9288C157.383 91.8024 157.61 91.6429 157.791 91.4503C157.972 91.2697 158.105 91.074 158.191 90.8632C158.288 90.6651 158.341 90.5062 158.349 90.3865L158.353 90.3146L158.444 88.9316C158.504 88.0216 158.764 87.269 159.224 86.6738C159.696 86.0794 160.366 85.7685 161.234 85.7412L161.576 85.7456C162.055 85.777 162.475 85.8887 162.835 86.0807C163.194 86.2846 163.484 86.5441 163.704 86.8591C163.924 87.1742 164.08 87.5392 164.173 87.9542C164.277 88.3819 164.313 88.8352 164.282 89.3142L164.191 90.6972L161.604 90.5277L161.64 89.9889L161.696 89.1267C161.717 88.8154 161.694 88.6215 161.627 88.5449C161.559 88.4803 161.483 88.4453 161.399 88.4398C161.375 88.4382 161.345 88.4363 161.309 88.4339C161.272 88.4435 161.235 88.4651 161.197 88.4987C161.158 88.5442 161.123 88.6081 161.094 88.6904C161.064 88.7846 161.043 88.9155 161.032 89.0832L160.975 89.9453L160.94 90.4841C160.891 91.2265 160.734 91.8717 160.47 92.4195C160.205 92.9674 159.857 93.4136 159.425 93.7581C158.993 94.1146 158.49 94.3642 157.915 94.5069C157.34 94.6616 156.717 94.717 156.046 94.6731L156.028 94.6719Z" fill="#211D21"/>
<path d="M148.718 106.421L149.307 103.916L159.326 98.7371L150.984 96.7843L151.573 94.2786L163.754 97.13L163.165 99.6356L153.145 104.814L161.488 106.767L160.899 109.273L148.718 106.421Z" fill="#211D21"/>
<path d="M157.488 117.56C157.133 118.348 156.653 119.02 156.047 119.576C155.44 120.133 154.764 120.553 154.018 120.836C153.278 121.136 152.496 121.278 151.673 121.264C150.845 121.261 150.037 121.083 149.249 120.729C148.461 120.375 147.783 119.894 147.215 119.284C146.654 118.69 146.226 118.018 145.932 117.268C145.649 116.523 145.51 115.737 145.514 114.91C145.524 114.099 145.701 113.298 146.045 112.505C146.4 111.717 146.883 111.04 147.494 110.472C148.105 109.904 148.786 109.474 149.537 109.179C150.284 108.896 151.071 108.756 151.898 108.759C152.721 108.773 153.527 108.957 154.315 109.31C155.104 109.664 155.779 110.138 156.34 110.732C156.897 111.336 157.317 112.011 157.599 112.757C157.893 113.506 158.038 114.295 158.034 115.122C158.025 115.959 157.843 116.772 157.488 117.56ZM148.312 116.324C148.487 116.783 148.74 117.186 149.071 117.532C149.402 117.878 149.797 118.154 150.257 118.36C150.717 118.566 151.186 118.678 151.666 118.696C152.156 118.719 152.636 118.631 153.106 118.435C154.021 118.069 154.688 117.421 155.107 116.492C155.531 115.551 155.557 114.616 155.186 113.686C154.831 112.751 154.188 112.075 153.258 111.657C152.798 111.451 152.326 111.344 151.842 111.338C151.358 111.331 150.886 111.415 150.425 111.59C149.965 111.765 149.564 112.012 149.222 112.332C148.875 112.664 148.601 113.053 148.399 113.502C148.193 113.988 148.081 114.471 148.063 114.949C148.045 115.428 148.128 115.886 148.312 116.324Z" fill="#211D21"/>
<path d="M138.678 130.179L143.531 139.197L142.275 140.819L140.835 139.709L135.357 129.322L136.999 127.202L140.753 128.029L138.973 124.655L140.615 122.535L152.069 125.209L153.508 126.319L152.252 127.942L142.294 125.512L147.147 134.53L145.891 136.152L144.451 135.041L142.348 131.055L138.678 130.179Z" fill="#211D21"/>
<path d="M132.053 133.03L139.964 142.72L137.967 144.344L132.641 143.569L132.324 148.93L130.327 150.554L122.415 140.863L124.412 139.24L129.637 145.64L129.8 141.541L131.211 140.394L135.28 141.053L130.055 134.653L132.053 133.03Z" fill="#211D21"/>
<path d="M122.539 155.037C121.778 155.445 120.987 155.685 120.167 155.757C119.347 155.829 118.555 155.75 117.791 155.52C117.021 155.306 116.315 154.943 115.671 154.43C115.016 153.923 114.484 153.289 114.074 152.529C113.665 151.768 113.421 150.973 113.342 150.144C113.259 149.331 113.329 148.537 113.553 147.764C113.783 147.001 114.151 146.293 114.658 145.64C115.16 145.003 115.789 144.475 116.545 144.056C117.306 143.648 118.102 143.405 118.933 143.327C119.763 143.25 120.566 143.323 121.341 143.548C122.105 143.778 122.815 144.146 123.47 144.653C124.114 145.166 124.64 145.802 125.05 146.563C125.46 147.324 125.706 148.111 125.79 148.924C125.862 149.743 125.784 150.533 125.554 151.297C125.33 152.07 124.965 152.784 124.458 153.437C123.94 154.095 123.301 154.629 122.539 155.037ZM116.016 148.465C115.874 148.936 115.829 149.409 115.881 149.885C115.933 150.361 116.078 150.821 116.317 151.265C116.556 151.709 116.86 152.084 117.229 152.39C117.604 152.706 118.038 152.93 118.531 153.06C119.479 153.328 120.403 153.221 121.302 152.739C122.211 152.251 122.802 151.526 123.074 150.563C123.363 149.605 123.265 148.677 122.781 147.779C122.542 147.336 122.233 146.964 121.853 146.663C121.474 146.363 121.048 146.142 120.576 146C120.105 145.858 119.636 145.81 119.17 145.856C118.693 145.907 118.238 146.049 117.804 146.281C117.345 146.541 116.962 146.855 116.656 147.224C116.35 147.592 116.136 148.006 116.016 148.465Z" fill="#211D21"/>
<path d="M105.364 157.116C104.879 156.833 104.467 156.444 104.127 155.95C103.776 155.459 103.497 154.9 103.29 154.273C103.08 153.635 102.978 153.018 102.984 152.422C102.982 151.842 103.1 151.298 103.337 150.791C103.563 150.287 103.908 149.84 104.373 149.447C104.841 149.066 105.428 148.76 106.135 148.528L110.651 147.047L114.565 158.929L110.512 160.258C110.056 160.408 109.602 160.468 109.15 160.44C108.702 160.423 108.283 160.32 107.893 160.132C107.495 159.96 107.152 159.706 106.865 159.371C106.57 159.051 106.347 158.663 106.197 158.207C106.107 157.933 106.074 157.679 106.097 157.444C105.832 157.367 105.587 157.258 105.364 157.116ZM109.01 150.294L106.872 150.995C106.758 151.033 106.616 151.117 106.444 151.249C106.265 151.396 106.109 151.574 105.976 151.782C105.834 152.005 105.735 152.259 105.677 152.543C105.622 152.839 105.65 153.152 105.759 153.482C105.856 153.779 106.002 154.028 106.194 154.23C106.38 154.447 106.588 154.618 106.819 154.745C107.039 154.875 107.272 154.95 107.519 154.97C107.758 155.005 107.985 154.987 108.202 154.916L110.306 154.226L109.01 150.294ZM109.07 157.321C108.933 157.366 108.802 157.409 108.677 157.45C108.715 157.526 108.767 157.591 108.836 157.645C108.934 157.713 109.044 157.759 109.165 157.783C109.275 157.81 109.385 157.818 109.496 157.807C109.609 157.808 109.695 157.798 109.752 157.78L111.308 157.269L111.106 156.654L109.07 157.321Z" fill="#211D21"/>
<path d="M98.2966 150.616L100.811 150.068L103.488 162.288L100.974 162.837L98.2966 150.616Z" fill="#211D21"/>
<path d="M97.2941 150.868L99.0272 163.258L96.4778 163.613L95.1013 153.773L92.0884 154.192L91.7318 151.643L97.2941 150.868Z" fill="#211D21"/>
<path d="M85.9141 164.477L85.7947 161.906L88.7974 161.767L88.7665 161.102L85.7638 161.241L85.6443 158.67L88.6471 158.531L88.4559 154.413L85.4531 154.552L85.3337 151.981L90.9077 151.723L91.4881 164.22L85.9141 164.477Z" fill="#211D21"/>
<path d="M70.7174 156.176C70.6616 156.421 70.5617 156.645 70.4175 156.846C70.2734 157.047 70.1008 157.211 69.8997 157.338C69.696 157.476 69.4723 157.567 69.2287 157.611C68.985 157.654 68.7403 157.648 68.4945 157.592C68.2487 157.537 68.0253 157.437 67.8241 157.293C67.623 157.149 67.4604 156.971 67.3364 156.758C67.1981 156.555 67.1073 156.331 67.0642 156.088C67.021 155.844 67.0273 155.6 67.0831 155.354C67.139 155.108 67.2389 154.885 67.383 154.684C67.5272 154.482 67.7056 154.32 67.9184 154.196C68.1195 154.069 68.3418 153.984 68.5855 153.94C68.8291 153.897 69.0738 153.903 69.3196 153.959C69.5654 154.014 69.7889 154.114 69.99 154.258C70.1911 154.402 70.355 154.574 70.4817 154.775C70.6084 154.976 70.6933 155.198 70.7364 155.442C70.7796 155.685 70.7732 155.93 70.7174 156.176Z" fill="#211D21"/>
<path d="M41.7611 142.228L41.771 142.213C42.1406 141.652 42.5607 141.188 43.0315 140.823C43.4922 140.45 43.9953 140.199 44.5409 140.069C45.0764 139.932 45.6426 139.923 46.2397 140.042C46.8368 140.161 47.4464 140.424 48.0686 140.832L52.0426 143.437L50.6171 145.602L48.4795 144.201L48.3139 144.092L46.5828 142.957C46.4825 142.891 46.3272 142.833 46.117 142.781C45.8902 142.733 45.6503 142.726 45.3973 142.761C45.1343 142.79 44.8733 142.869 44.6143 143.001C44.3552 143.133 44.1267 143.349 43.9287 143.649C43.7373 143.94 43.6326 144.23 43.6144 144.519C43.5896 144.819 43.6163 145.095 43.6945 145.347C43.7627 145.592 43.8673 145.804 44.0084 145.983C44.1328 146.165 44.2451 146.289 44.3455 146.355L44.4057 146.394L45.5648 147.154C46.3275 147.654 46.8543 148.251 47.1451 148.943C47.4294 149.646 47.369 150.382 46.9641 151.149L46.7911 151.445C46.5271 151.846 46.2225 152.155 45.8774 152.374C45.5223 152.586 45.1533 152.71 44.7704 152.746C44.3875 152.782 43.9925 152.738 43.5853 152.615C43.1614 152.495 42.7488 152.303 42.3474 152.04L41.1883 151.28L42.6139 149.115L43.0655 149.411L43.788 149.885C44.0489 150.056 44.2293 150.131 44.3291 150.111C44.4189 150.083 44.4869 150.035 44.5331 149.964C44.5463 149.944 44.5628 149.919 44.5826 149.889C44.5923 149.853 44.5921 149.809 44.5818 149.76C44.5614 149.703 44.5227 149.642 44.4657 149.576C44.3986 149.503 44.2948 149.421 44.1543 149.329L43.4317 148.855L42.9802 148.559C42.358 148.151 41.8737 147.697 41.5274 147.198C41.1812 146.698 40.9647 146.176 40.878 145.631C40.7812 145.08 40.8127 144.519 40.9724 143.949C41.122 143.373 41.3816 142.804 41.7512 142.243L41.7611 142.228Z" fill="#211D21"/>
<path d="M35.1753 130.111L37.0686 131.854L36.6387 143.107L42.4572 136.818L44.3504 138.561L35.855 147.744L33.9617 146.001L34.3916 134.748L28.5731 141.037L26.6798 139.294L35.1753 130.111Z" fill="#211D21"/>
<path d="M21.085 132.191C20.5735 131.494 20.2247 130.746 20.0386 129.945C19.8526 129.145 19.8202 128.351 19.9415 127.563C20.046 126.773 20.3075 126.025 20.7259 125.317C21.1371 124.6 21.6915 123.986 22.3888 123.476C23.0862 122.966 23.8407 122.615 24.6525 122.423C25.4474 122.228 26.2443 122.188 27.0431 122.302C27.8322 122.424 28.5862 122.69 29.305 123.101C30.007 123.509 30.6186 124.058 31.1398 124.747C31.6513 125.444 32.0037 126.197 32.1969 127.007C32.3901 127.817 32.4295 128.621 32.3153 129.418C32.194 130.206 31.9277 130.958 31.5164 131.675C31.0981 132.382 30.5402 132.991 29.8428 133.501C29.1454 134.011 28.3993 134.364 27.6044 134.559C26.8023 134.744 26.0067 134.776 25.2176 134.654C24.4188 134.54 23.66 134.277 22.9412 133.866C22.2153 133.445 21.5966 132.887 21.085 132.191ZM26.6918 124.834C26.2048 124.759 25.7289 124.78 25.264 124.897C24.799 125.014 24.3631 125.221 23.9563 125.519C23.5495 125.816 23.2202 126.169 22.9684 126.576C22.7069 126.99 22.5459 127.45 22.4852 127.955C22.3523 128.93 22.5878 129.828 23.1917 130.65C23.8027 131.482 24.6048 131.965 25.598 132.101C26.5886 132.254 27.4956 132.029 28.3189 131.427C28.7257 131.129 29.0514 130.772 29.2961 130.355C29.5408 129.938 29.7006 129.487 29.7755 129.001C29.8503 128.515 29.8325 128.045 29.722 127.591C29.6044 127.127 29.4 126.696 29.1087 126.3C28.7864 125.881 28.4212 125.546 28.0131 125.295C27.6049 125.043 27.1645 124.89 26.6918 124.834Z" fill="#211D21"/>
<path d="M19.3825 109.785L9.12923 109.579L8.32837 107.69L10.0033 106.983L21.7578 107.317L22.8045 109.786L20.2432 112.645L24.062 112.753L25.1087 115.222L17.1619 123.871L15.4869 124.577L14.6861 122.688L21.6868 115.221L11.4335 115.015L10.6326 113.126L12.3075 112.419L16.8192 112.547L19.3825 109.785Z" fill="#211D21"/>
<path d="M20.1252 102.628L7.78541 104.685L7.36041 102.146L10.6662 97.909L6.15969 94.974L5.73468 92.4353L18.0745 90.3785L18.4995 92.9172L10.3499 94.2756L13.8348 96.4502L14.135 98.2432L11.5506 101.448L19.7002 100.089L20.1252 102.628Z" fill="#211D21"/>
<path d="M5.66597 83.3087C5.68931 82.445 5.87313 81.6397 6.21744 80.8927C6.56174 80.1457 7.02341 79.498 7.60244 78.9494C8.1698 78.3885 8.83572 77.9564 9.6002 77.6529C10.365 77.3375 11.1792 77.1914 12.0429 77.2147C12.9066 77.2381 13.7179 77.4221 14.4769 77.7667C15.2242 78.099 15.8781 78.5548 16.4387 79.1342C16.9872 79.7132 17.4192 80.3851 17.7347 81.1499C18.0385 81.9024 18.1847 82.7107 18.1733 83.5747C18.15 84.4384 17.966 85.2497 17.6214 86.0086C17.2768 86.7676 16.8148 87.4274 16.2354 87.9879C15.6564 88.5365 14.9845 88.9685 14.2197 89.2839C13.4552 89.5874 12.6411 89.7275 11.7774 89.7041C10.9137 89.6808 10.1083 89.503 9.36096 89.1706C8.61399 88.8263 7.96622 88.3647 7.41766 87.7856C6.85711 87.2063 6.41911 86.5342 6.10365 85.7694C5.78852 84.9926 5.64263 84.1724 5.66597 83.3087ZM14.6077 80.9214C14.2693 80.5641 13.8805 80.2895 13.4416 80.0976C13.0026 79.9056 12.5312 79.8029 12.0274 79.7893C11.5236 79.7756 11.0473 79.8528 10.5986 80.0207C10.1379 80.1884 9.72859 80.4534 9.37066 80.8159C8.66779 81.5051 8.30257 82.3596 8.27502 83.3792C8.24714 84.4108 8.58367 85.2842 9.2846 85.9994C9.97322 86.7263 10.8273 87.1035 11.847 87.1311C12.3508 87.1447 12.8272 87.0615 13.2762 86.8816C13.7253 86.7016 14.1284 86.4424 14.4857 86.104C14.8429 85.7655 15.1174 85.3828 15.309 84.9558C15.5009 84.5168 15.6035 84.0514 15.6168 83.5596C15.6191 83.0315 15.5363 82.5431 15.3683 82.0944C15.2004 81.6456 14.9468 81.2547 14.6077 80.9214Z" fill="#211D21"/>
<path d="M12.3525 67.2693C12.8382 66.9879 13.3801 66.822 13.9781 66.7716C14.5785 66.7093 15.2022 66.7436 15.8491 66.8744C16.5077 67.0076 17.0944 67.2241 17.609 67.5241C18.1142 67.8099 18.5286 68.1813 18.852 68.6385C19.1779 69.0839 19.3965 69.6056 19.5077 70.2035C19.6071 70.799 19.5828 71.4613 19.4348 72.1905L18.489 76.8474L6.22713 74.3681L7.07617 70.1875C7.1717 69.7171 7.3436 69.2927 7.59186 68.9144C7.82836 68.5337 8.12468 68.2202 8.48082 67.9739C8.82759 67.7135 9.21765 67.5414 9.651 67.4576C10.075 67.3597 10.5222 67.3583 10.9927 67.4534C11.275 67.5105 11.5124 67.6075 11.705 67.7444C11.9033 67.5518 12.1191 67.3935 12.3525 67.2693ZM16.4783 73.8148L16.9261 71.6098C16.95 71.4922 16.947 71.3263 16.917 71.1121C16.8777 70.8838 16.8007 70.6601 16.686 70.441C16.5619 70.2078 16.3907 69.9956 16.1723 69.8046C15.9422 69.6111 15.6566 69.4799 15.3155 69.411C15.0097 69.3491 14.7214 69.352 14.4505 69.4197C14.1702 69.4732 13.9181 69.5692 13.6941 69.7075C13.4725 69.8341 13.2919 69.9996 13.1524 70.204C13.0036 70.3943 12.9065 70.6011 12.8611 70.8246L12.4205 72.9943L16.4783 73.8148ZM10.3415 70.3886C10.3701 70.2475 10.3976 70.1122 10.4239 69.9829C10.3391 69.978 10.2567 69.9919 10.1766 70.0247C10.0682 70.0762 9.9738 70.149 9.8935 70.2429C9.81558 70.3251 9.75411 70.4167 9.7091 70.5178C9.65231 70.6165 9.61795 70.6953 9.60601 70.7541L9.28001 72.3593L9.91515 72.4877L10.3415 70.3886Z" fill="#211D21"/>
<path d="M21.4662 64.4428L20.6979 66.8994L8.75352 63.1802L9.52186 60.7235L21.4662 64.4428Z" fill="#211D21"/>
<path d="M21.7126 63.5156L10.0809 58.9108L11.032 56.5189L20.2704 60.1763L21.3944 57.3495L23.7877 58.297L21.7126 63.5156Z" fill="#211D21"/>
<path d="M15.5333 46.8658L17.824 48.0398L16.4481 50.7125L17.0408 51.0162L18.4167 48.3436L20.7074 49.5176L19.3315 52.1903L22.9998 54.0704L24.3756 51.3977L26.6663 52.5717L24.1123 57.5329L12.9793 51.827L15.5333 46.8658Z" fill="#211D21"/>
<path d="M30.1217 37.9768C29.9358 37.8067 29.7911 37.6094 29.6878 37.3849C29.5845 37.1603 29.5276 36.9295 29.5173 36.6924C29.4981 36.4472 29.5302 36.2082 29.6135 35.9755C29.6969 35.7428 29.8238 35.5336 29.9943 35.348C30.1647 35.1624 30.3625 35.0181 30.5876 34.9149C30.8127 34.8118 31.0484 34.7591 31.2949 34.7568C31.5407 34.7376 31.7801 34.7696 32.0133 34.8527C32.2465 34.9359 32.4561 35.0625 32.6421 35.2325C32.8281 35.4026 32.9727 35.5999 33.076 35.8244C33.1794 36.049 33.2321 36.2842 33.2344 36.5302C33.2447 36.7673 33.2082 37.0022 33.1248 37.2349C33.0415 37.4676 32.9145 37.6767 32.7441 37.8623C32.5736 38.0479 32.3759 38.1923 32.1508 38.2955C31.9257 38.3986 31.6944 38.4554 31.4567 38.4657C31.2191 38.4761 30.9837 38.4397 30.7505 38.3566C30.5173 38.2734 30.3077 38.1468 30.1217 37.9768Z" fill="#211D21"/>
<path d="M56.4713 19.7064L56.4796 19.7224C56.7872 20.3199 56.9846 20.9132 57.0719 21.5022C57.1698 22.0858 57.1413 22.6465 56.9863 23.1844C56.842 23.7168 56.5711 24.213 56.1735 24.673C55.776 25.1329 55.2461 25.5326 54.584 25.8719L50.3551 28.0394L49.1688 25.7348L51.4434 24.569L51.6196 24.4787L53.4617 23.5345C53.5685 23.4798 53.6962 23.3739 53.8448 23.2168C53.9986 23.0436 54.1225 22.8386 54.2164 22.6016C54.3211 22.3592 54.3798 22.0931 54.3926 21.8034C54.4054 21.5137 54.3294 21.2088 54.1647 20.8887C54.0054 20.5793 53.804 20.3454 53.5605 20.187C53.3115 20.018 53.0578 19.9053 52.7994 19.849C52.5516 19.7872 52.3151 19.7735 52.09 19.808C51.87 19.8264 51.7066 19.8629 51.5998 19.9177L51.5357 19.9505L50.3023 20.5827C49.4907 20.9986 48.7111 21.1622 47.9635 21.0734C47.2105 20.9739 46.5989 20.5593 46.1287 19.8294L45.9561 19.5335C45.7364 19.1068 45.6162 18.6897 45.5954 18.2823C45.5853 17.8695 45.6589 17.4879 45.816 17.1377C45.9731 16.7875 46.2058 16.466 46.5139 16.1732C46.8273 15.8643 47.1975 15.6003 47.6247 15.3814L48.8581 14.7492L50.0445 17.0538L49.5639 17.3001L48.7951 17.6942C48.5174 17.8365 48.363 17.9561 48.3319 18.0529C48.3115 18.1443 48.3205 18.2273 48.3589 18.302C48.3699 18.3234 48.3836 18.35 48.4001 18.382C48.4273 18.4086 48.4651 18.4296 48.5136 18.4452C48.5728 18.4553 48.6453 18.4519 48.731 18.4349C48.8274 18.4125 48.9504 18.363 49.0999 18.2863L49.8688 17.8922L50.3493 17.6459C51.0114 17.3066 51.6456 17.1097 52.2519 17.0551C52.8582 17.0006 53.4202 17.0699 53.938 17.263C54.4665 17.4506 54.9399 17.754 55.3582 18.1734C55.7872 18.5873 56.1555 19.093 56.4631 19.6904L56.4713 19.7064Z" fill="#211D21"/>
<path d="M70.1497 19.9733L67.6979 20.7571L58.1005 14.83L60.7198 22.9878L58.268 23.7715L54.4436 11.8605L56.8953 11.0767L66.4928 17.0038L63.8735 8.84601L66.3252 8.06226L70.1497 19.9733Z" fill="#211D21"/>
<path d="M75.474 6.64129C76.3323 6.54182 77.1556 6.60949 77.9441 6.84428C78.7325 7.07908 79.4394 7.44412 80.0649 7.93941C80.7009 8.4214 81.2235 9.0192 81.6328 9.73284C82.054 10.4451 82.3145 11.2303 82.4144 12.0885C82.5143 12.9467 82.4477 13.7759 82.2147 14.576C81.9922 15.3629 81.6341 16.0749 81.1404 16.7119C80.6454 17.3371 80.0418 17.86 79.3297 18.2808C78.6281 18.6883 77.8489 18.9477 76.992 19.0591C76.1337 19.1586 75.3044 19.0916 74.5041 18.8582C73.7037 18.6248 72.9849 18.2611 72.3475 17.7672C71.722 17.2719 71.1987 16.6681 70.7775 15.9559C70.3683 15.2423 70.1137 14.4563 70.0138 13.5981C69.9139 12.7399 69.9752 11.9174 70.1977 11.1306C70.4321 10.3423 70.7969 9.63564 71.2919 9.01049C71.7856 8.37343 72.3884 7.8445 73.1006 7.42373C73.8246 7.00157 74.6158 6.74075 75.474 6.64129ZM79.1106 15.1532C79.416 14.7675 79.6325 14.3438 79.76 13.882C79.8874 13.4203 79.922 12.9391 79.8638 12.4385C79.8055 11.9379 79.6613 11.4774 79.4311 11.0571C79.1996 10.6249 78.879 10.2573 78.4692 9.95451C77.6868 9.3566 76.789 9.11636 75.7758 9.23378C74.7507 9.35259 73.934 9.80964 73.3259 10.6049C72.7045 11.3897 72.4527 12.2887 72.5707 13.3018C72.6289 13.8024 72.7791 14.2622 73.0212 14.6811C73.2632 15.1 73.5772 15.4623 73.9631 15.7679C74.3491 16.0735 74.767 16.2908 75.2169 16.4199C75.6788 16.5476 76.1541 16.5831 76.6428 16.5265C77.1659 16.4538 77.6376 16.3024 78.0578 16.0725C78.4781 15.8426 78.829 15.5362 79.1106 15.1532Z" fill="#211D21"/>
<path d="M95.713 16.1989L100.943 7.38239L102.982 7.61862L102.772 9.42443L96.6898 19.4832L94.0256 19.1744L92.8002 15.5351L90.825 18.8035L88.1609 18.4947L84.5515 7.31286L84.7618 5.50705L86.8001 5.74328L89.8482 15.5192L95.0787 6.70271L97.1171 6.93894L96.9069 8.74475L94.5728 12.6057L95.713 16.1989Z" fill="#211D21"/>
<path d="M101.857 20.383L106.172 8.64076L108.589 9.52518L110.638 14.4915L115.419 12.0238L117.836 12.9082L113.521 24.6505L111.104 23.766L113.953 16.0111L110.339 17.9663L108.632 17.3416L107.124 13.5125L104.274 21.2674L101.857 20.383Z" fill="#211D21"/>
<path d="M125.787 17.3122C126.527 17.7591 127.136 18.3165 127.615 18.9846C128.094 19.6526 128.428 20.3735 128.618 21.1473C128.825 21.9171 128.87 22.709 128.755 23.5228C128.65 24.3428 128.374 25.1221 127.926 25.8607C127.477 26.5992 126.915 27.213 126.239 27.7019C125.58 28.1867 124.859 28.5295 124.078 28.7301C123.303 28.9205 122.504 28.9638 121.683 28.86C120.878 28.7521 120.103 28.4798 119.357 28.0432C118.618 27.5963 118.003 27.0357 117.514 26.3615C117.025 25.6873 116.68 24.9601 116.48 24.1801C116.29 23.4062 116.247 22.6093 116.352 21.7892C116.467 20.9754 116.749 20.1992 117.197 19.4607C117.646 18.7221 118.199 18.1104 118.859 17.6255C119.528 17.1469 120.251 16.8124 121.026 16.622C121.808 16.4213 122.609 16.3729 123.431 16.4768C124.262 16.5868 125.048 16.8653 125.787 17.3122ZM123.431 26.2572C123.91 26.1397 124.341 25.9377 124.726 25.6513C125.11 25.3649 125.433 25.0063 125.695 24.5754C125.956 24.1446 126.125 23.6929 126.201 23.2202C126.284 22.7373 126.256 22.2509 126.119 21.761C125.868 20.8101 125.306 20.0709 124.433 19.5433C123.55 19.0094 122.623 18.8703 121.654 19.1257C120.681 19.3647 119.929 19.9202 119.4 20.7921C119.139 21.2229 118.975 21.6777 118.909 22.1566C118.843 22.6354 118.868 23.1136 118.985 23.5911C119.103 24.0686 119.299 24.496 119.576 24.8733C119.862 25.2568 120.216 25.5758 120.637 25.8303C121.095 26.0932 121.561 26.2625 122.034 26.3383C122.508 26.4141 122.973 26.3871 123.431 26.2572Z" fill="#211D21"/>
<path d="M136.439 31.0201C136.443 31.5805 136.32 32.1328 136.068 32.677C135.825 33.229 135.487 33.7537 135.053 34.251C134.611 34.7574 134.132 35.1601 133.616 35.4591C133.118 35.757 132.589 35.9338 132.031 35.9893C131.482 36.0528 130.919 35.9855 130.344 35.7874C129.776 35.5803 129.211 35.2328 128.65 34.7449L125.062 31.6285L133.287 22.2023L136.507 24.9999C136.87 25.3147 137.154 25.6731 137.361 26.0752C137.575 26.4681 137.702 26.88 137.74 27.3106C137.795 27.7401 137.752 28.1637 137.611 28.5813C137.486 28.9977 137.266 29.3867 136.951 29.7484C136.762 29.9654 136.56 30.1238 136.345 30.2236C136.415 30.4907 136.446 30.7562 136.439 31.0201ZM128.698 31.377L130.396 32.8526C130.487 32.9313 130.633 33.0104 130.834 33.0899C131.052 33.1683 131.285 33.2117 131.533 33.22C131.797 33.2272 132.067 33.1831 132.341 33.0877C132.623 32.9832 132.879 32.7998 133.108 32.5376C133.313 32.3025 133.453 32.0507 133.528 31.7821C133.62 31.5124 133.661 31.2461 133.652 30.9834C133.651 30.7286 133.596 30.4902 133.487 30.2684C133.395 30.0453 133.263 29.859 133.091 29.7095L131.42 28.2576L128.698 31.377ZM134.717 27.7364C134.826 27.8308 134.93 27.9213 135.03 28.0079C135.076 27.9367 135.104 27.8583 135.115 27.7725C135.124 27.653 135.108 27.5352 135.065 27.4192C135.032 27.311 134.983 27.2124 134.917 27.1235C134.859 27.0256 134.808 26.9569 134.763 26.9176L133.526 25.8434L133.1 26.3316L134.717 27.7364Z" fill="#211D21"/>
<path d="M134.445 40.3609L132.683 38.4842L141.823 29.9423L143.585 31.819L134.445 40.3609Z" fill="#211D21"/>
<path d="M135.03 40.9043L144.766 33.0491L146.387 35.0489L138.654 41.2879L140.569 43.6513L138.565 45.2675L135.03 40.9043Z" fill="#211D21"/>
<path d="M152.799 43.9782L150.646 45.3895L148.993 42.879L148.436 43.2441L150.089 45.7546L147.937 47.1659L146.284 44.6554L142.836 46.9155L144.49 49.426L142.337 50.8373L139.268 46.177L149.73 39.3179L152.799 43.9782Z" fill="#211D21"/>
<path d="M153.323 60.916C153.562 60.8383 153.806 60.8101 154.052 60.8311C154.299 60.8522 154.528 60.9167 154.74 61.0247C154.963 61.129 155.156 61.2748 155.317 61.462C155.479 61.6493 155.599 61.8627 155.677 62.1023C155.755 62.342 155.784 62.585 155.763 62.8314C155.742 63.0778 155.672 63.3086 155.553 63.5238C155.448 63.7467 155.303 63.939 155.116 64.1005C154.928 64.262 154.715 64.3816 154.475 64.4593C154.235 64.5369 153.992 64.5652 153.746 64.5441C153.499 64.5231 153.268 64.4529 153.052 64.3334C152.841 64.2254 152.654 64.0778 152.492 63.8906C152.33 63.7033 152.21 63.4899 152.132 63.2502C152.054 63.0106 152.026 62.7676 152.047 62.5212C152.067 62.2748 152.132 62.0458 152.24 61.8343C152.347 61.6228 152.495 61.4363 152.682 61.2747C152.869 61.1132 153.083 60.9936 153.323 60.916Z" fill="#211D21"/>
<path d="M99.1882 37.5785C95.7009 35.7853 91.5839 38.3869 91.7294 42.2743C92.0747 51.3994 84.8547 60.6212 74.888 59.3139C67.7592 58.3722 61.5664 51.8617 54.5201 53.2979C50.553 54.1064 47.4478 57.3358 43.5046 58.2453C38.456 59.4086 31.0515 55.7684 26.1159 57.3702C26.0399 57.3939 25.9661 57.424 25.8923 57.4584C16.1774 62.0016 21.9425 71.6405 28.3503 78.9208C30.4305 81.2838 29.5967 84.9712 26.6848 86.2075C21.734 88.3103 15.9971 90.9549 13.5304 93.4942C5.66557 101.23 11.8411 112.869 23.1975 112.869C40.8511 112.869 60.3004 113 72.4864 113C81.6085 113 82.5 103 82.5 103L83.8226 95.946C83.9217 95.4178 84.4205 95.0623 84.9521 95.141L93.8375 96.4574C94.8474 96.607 95.0487 98.0839 94.1368 98.5429C90.4344 100.406 85 103.703 85 107C85 112 87.556 112.972 97.7659 112.972C130.001 112.972 134.621 113.411 144.443 109.854C153.044 106.741 158.444 97.4526 159.821 88.4888C160.9 81.4622 157.013 75.7128 150.837 79.6561C148.41 81.2666 148.957 87.7857 145.222 92.8857C140.158 99.8005 133.049 100.026 123.039 100.033C122.381 100.033 121.773 99.6844 121.447 99.1167C120.846 98.0675 120.225 97.0656 119.695 96.2378C119.035 95.2057 119.576 93.8361 120.77 93.5222C126.407 92.0386 139.757 87.4589 141.118 77.0953C141.492 74.2486 140.934 71.1094 136.074 66.2609C136.076 66.2588 118.169 47.3421 99.1882 37.5785Z" fill="#F7FFEB"/>
<path d="M109.32 53.3173C109.06 53.3173 108.797 53.2485 108.565 53.1195C105.355 51.3392 102.218 50.0599 98.6912 49.0966C97.8357 48.8623 97.1843 48.1871 96.991 47.3314C96.5567 45.4199 95.7794 43.0763 94.9108 41.066C94.7067 40.5951 94.7566 40.0597 95.0411 39.634C95.3277 39.204 95.8076 38.9481 96.3222 38.9481C96.5263 38.9481 96.7261 38.989 96.9172 39.0685C102.498 41.3906 107.353 46.9035 110.519 50.849C110.89 51.3112 110.962 51.9262 110.703 52.4529C110.445 52.9776 109.902 53.3173 109.32 53.3173Z" fill="#211D21"/>
<path d="M96.3222 40.0211C96.3786 40.0211 96.4373 40.0318 96.4981 40.0576C101.421 42.1045 105.922 46.8434 109.67 51.5156C109.924 51.8338 109.663 52.2444 109.322 52.2444C109.251 52.2444 109.173 52.2251 109.097 52.1842C106.202 50.5781 102.962 49.1504 98.9822 48.0625C98.5175 47.9356 98.1592 47.5658 98.0528 47.0992C97.5881 45.0545 96.763 42.6184 95.9118 40.6468C95.7772 40.335 96.0204 40.0211 96.3222 40.0211ZM96.3222 37.871C95.4406 37.871 94.6241 38.3074 94.1356 39.0406C93.6492 39.7695 93.5667 40.6833 93.9141 41.4875C94.7457 43.4139 95.5188 45.7447 95.9335 47.568C96.2158 48.8107 97.1625 49.7933 98.4046 50.133C101.844 51.0726 104.904 52.3197 108.035 54.0591C108.43 54.2784 108.875 54.3946 109.322 54.3946C110.319 54.3946 111.246 53.8162 111.683 52.9196C112.121 52.0187 112.002 50.9673 111.37 50.1803C108.13 46.1424 103.151 40.4941 97.3384 38.0774C97.0127 37.9398 96.6718 37.871 96.3222 37.871Z" fill="#F7FFEB"/>
<path d="M63.169 107.178C56.8589 107.178 50.4206 107.163 44.1952 107.147C38.0631 107.132 31.7248 107.117 25.6079 107.117C22.379 107.117 20.0144 106.154 18.768 104.331C17.2741 102.144 17.6758 98.8523 19.6626 96.9946C20.5399 96.1733 24.1596 94.5693 35.3337 89.8391C40.5863 87.6159 46.017 85.3174 49.5108 83.6876L50.9027 86.6182C47.3568 88.2716 41.8978 90.5809 36.6191 92.817C30.511 95.4036 22.9154 98.618 21.884 99.3727C21.0914 100.142 20.8916 101.658 21.4779 102.516C22.2878 103.701 24.4137 103.877 25.6079 103.877C31.7291 103.877 38.0696 103.892 44.2039 103.907C50.4293 103.922 56.8654 103.937 63.1712 103.937C66.6259 103.937 69.1208 103.937 71.7526 102.206C74.5993 100.334 74.5993 94.3285 74.5993 87.9728V87.8803H77.8716V87.9728C77.8716 95.539 77.8716 102.071 73.5657 104.905C70.1066 107.178 66.7366 107.178 63.169 107.178Z" fill="#211D21"/>
<path d="M58.9435 96.9753H37.3076C37.0904 96.9753 37.0665 96.6593 37.2815 96.6292L57.5364 93.7351H59.1172V96.8012C59.1194 96.8979 59.0412 96.9753 58.9435 96.9753Z" fill="#211D21"/>
<path d="M63.119 101.839H32.1677C31.905 101.839 31.8833 101.456 32.146 101.428L58.4852 98.5986H63.3275V101.632C63.3253 101.746 63.2319 101.839 63.119 101.839Z" fill="#211D21"/>
<path d="M67.0764 102.126C72.3293 99.9711 74.8238 94.008 72.6479 88.8066C70.472 83.6052 64.4498 81.1353 59.1969 83.2898C53.944 85.4443 51.4496 91.4075 53.6254 96.6088C55.8013 101.81 61.8235 104.28 67.0764 102.126Z" fill="#211D21"/>
<path d="M63.1341 83.5887C68.2196 83.5887 72.3431 87.6718 72.3431 92.7073C72.3431 97.7429 68.2196 101.826 63.1341 101.826C58.0487 101.826 53.9252 97.7429 53.9252 92.7073C53.9252 87.6718 58.0465 83.5887 63.1341 83.5887ZM63.1341 81.4386C56.8588 81.4386 51.7538 86.4935 51.7538 92.7073C51.7538 98.9211 56.8588 103.976 63.1341 103.976C69.4095 103.976 74.5145 98.9211 74.5145 92.7073C74.5145 86.4935 69.4095 81.4386 63.1341 81.4386Z" fill="#F7FFEB"/>
<path d="M83.9537 88.7835C83.9515 88.7835 83.9537 88.7835 83.9537 88.7835C71.4768 88.7835 60.1941 87.072 51.3239 83.8361C40.6471 79.9401 33.412 73.9284 29.8226 65.9708C29.5099 65.2742 29.5295 64.4958 29.8791 63.8852C30.1939 63.3348 30.7477 62.9736 31.3991 62.8962C32.5195 62.7607 33.4684 62.6403 34.3848 62.522C35.5877 62.3672 36.7234 62.221 38.1066 62.0641C39.075 61.9544 40.0478 61.8985 41.0011 61.8985C48.2753 61.8985 53.8493 65.1538 58.3289 67.7705C60.6632 69.1336 62.8693 70.4215 64.8974 71.0107C65.0429 71.0537 65.3078 71.1031 65.7508 71.1031C67.3012 71.1031 69.5573 70.514 71.0534 70.1227C71.3074 70.056 71.5441 69.9958 71.7526 69.9421C76.356 68.781 88.7786 66.0912 92.6068 65.2656C90.9826 58.8712 93.864 53.2744 96.1766 49.6149C96.5631 49.0043 97.2275 48.6388 97.9528 48.6388C98.1634 48.6388 98.3741 48.671 98.5738 48.7334C106.235 51.105 113.785 54.9472 121.015 60.1569C121.534 60.531 121.764 61.1696 121.604 61.7846C121.441 62.3995 120.924 62.8446 120.288 62.9198C119.224 63.0445 118.266 63.1305 117.374 63.18C123.239 63.3563 130.231 64.1561 135.453 74.9239C136.109 76.2741 134.967 77.2438 134.537 77.6094C127.165 83.8748 104.945 88.7835 83.9537 88.7835Z" fill="#211D21"/>
<path d="M97.9507 49.7116C98.0506 49.7116 98.1505 49.7267 98.2482 49.7568C106.345 52.2638 113.683 56.2028 120.375 61.0234C120.716 61.2685 120.577 61.8017 120.158 61.8511C118.666 62.0275 117.105 62.1565 115.552 62.1565C112.03 62.1565 108.543 61.4835 105.97 59.1356C105.922 59.0926 105.868 59.0732 105.813 59.0732C105.661 59.0732 105.522 59.228 105.603 59.3957C110.738 70.1785 125.243 56.3576 134.472 75.3882C134.745 75.9516 134.307 76.3837 133.827 76.7922C127.121 82.4922 105.733 87.7062 83.9495 87.7062C61.3255 87.7062 38.276 82.0794 30.8107 65.53C30.5002 64.8398 30.7673 64.0507 31.5251 63.9604C34.1069 63.6486 35.7897 63.4057 38.2261 63.1283C39.1793 63.0187 40.1 62.9692 40.9946 62.9692C51.7236 62.9692 58.418 70.2495 64.587 72.0384C64.9149 72.133 65.3101 72.1738 65.7465 72.1738C67.7095 72.1738 70.528 71.3546 72.0154 70.9805C76.634 69.8173 89.1761 67.0996 92.9087 66.2954C93.4711 66.175 93.8142 65.6138 93.6709 65.0613C92.0749 58.8947 94.9976 53.4937 97.093 50.1804C97.2819 49.8858 97.6098 49.7116 97.9507 49.7116ZM97.9507 47.5615C96.8477 47.5615 95.8401 48.1141 95.2538 49.0408C92.9652 52.6616 90.1467 58.11 91.3127 64.4399C86.6246 65.4526 75.7328 67.8241 71.4812 68.8971C71.2684 68.9508 71.0317 69.0132 70.7712 69.0798C69.3315 69.4561 67.1558 70.0237 65.7465 70.0237C65.3839 70.0237 65.2254 69.9829 65.1972 69.9743C63.2994 69.4238 61.2495 68.2262 58.874 66.8394C54.2815 64.1561 48.5642 60.8191 40.9946 60.8191C40.0001 60.8191 38.9861 60.8771 37.9764 60.9933C36.5845 61.1524 35.4423 61.2986 34.2372 61.4534C33.323 61.5716 32.3763 61.692 31.2624 61.8275C30.2657 61.9479 29.4145 62.5048 28.9303 63.3541C28.4113 64.2614 28.3744 65.4031 28.8282 66.4072C32.5413 74.64 39.9827 80.8431 50.944 84.8423C59.9337 88.1233 71.3466 89.8563 83.9473 89.8563C105.166 89.8563 127.697 84.8337 135.238 78.4242C135.616 78.1017 136.007 77.7361 136.304 77.233C136.815 76.3644 136.86 75.3538 136.426 74.4572C133.848 69.1422 130.609 65.6676 126.52 63.8292C125.154 63.2165 123.791 62.8251 122.451 62.5736C122.533 62.4102 122.601 62.236 122.648 62.0533C122.924 61.0062 122.531 59.9203 121.65 59.2839C114.323 54.0054 106.667 50.1094 98.8931 47.7034C98.5913 47.611 98.2721 47.5615 97.9507 47.5615Z" fill="#F7FFEB"/>
<path d="M114.254 91.7355C114.145 91.7355 114.041 91.7333 113.935 91.7312C108.671 91.7075 103.34 91.7032 98.1809 91.6989C87.8429 91.6903 77.1508 91.6796 66.4892 91.5204C43.4353 91.1743 31.5708 74.8399 27.5406 67.8327C27.2953 67.407 27.2953 66.9039 27.5385 66.4867C27.7838 66.0696 28.2398 65.8094 28.7284 65.8094C29.0954 65.8094 29.445 65.9535 29.7099 66.2158C42.5863 78.966 54.6963 83.2683 77.7045 83.2683C79.6827 83.2683 83.8301 83.2855 88.6333 83.307C94.5959 83.3328 101.351 83.3608 105.342 83.3608C113.07 83.3608 126.907 79.6518 133.812 77.3147C133.979 77.2588 134.15 77.2308 134.322 77.2308C134.88 77.2308 135.401 77.5318 135.681 78.0178C135.961 78.5058 135.957 79.0864 135.668 79.5723C131.753 86.1237 120.622 91.7355 114.254 91.7355Z" fill="#211D21"/>
<path d="M28.7284 66.8845C28.8 66.8845 28.876 66.9124 28.9412 66.9769C42.4799 80.3829 55.3064 84.3455 77.7024 84.3455C82.1777 84.3455 98.1896 84.4358 105.34 84.4358C113.153 84.4358 126.943 80.7742 134.159 78.3317C134.213 78.3123 134.268 78.3037 134.32 78.3037C134.669 78.3037 134.93 78.6907 134.73 79.024C131.073 85.1454 120.449 90.6625 114.252 90.6625C114.149 90.6625 114.05 90.6604 113.952 90.6582C98.1353 90.5873 82.4816 90.6862 66.5044 90.4454C43.5678 90.1014 32.0941 73.5799 28.483 67.2995C28.3592 67.0844 28.5308 66.8845 28.7284 66.8845ZM28.7284 64.7344C27.8533 64.7344 27.039 65.1988 26.6004 65.9449C26.1596 66.6953 26.1596 67.6005 26.5982 68.3616C30.7217 75.5301 42.8599 92.2386 66.474 92.5933C77.1443 92.7546 87.8385 92.7632 98.1809 92.7739C103.334 92.7782 108.66 92.7825 113.917 92.8062C114.028 92.8083 114.141 92.8105 114.254 92.8105C117.665 92.8105 122.129 91.428 126.503 89.0156C132.711 85.5926 135.494 81.9718 136.602 80.1163C137.086 79.3057 137.095 78.2973 136.624 77.4824C136.15 76.6632 135.269 76.1536 134.322 76.1536C134.029 76.1536 133.738 76.2009 133.46 76.2955C126.62 78.6112 112.94 82.2836 105.342 82.2836C101.353 82.2836 94.5981 82.2556 88.6376 82.2298C83.8344 82.2105 79.6849 82.1911 77.7045 82.1911C55.0328 82.1911 43.1161 77.9683 30.4785 65.4525C30.0073 64.9902 29.3863 64.7344 28.7284 64.7344Z" fill="#F7FFEB"/>
<path d="M64.7418 70C64.1016 70 63.5246 69.9233 62.977 69.7657C61.8356 69.4377 60.8837 68.7669 60.0434 68.1748C57.5478 66.4178 55.0312 64.9631 52.3503 63.7343C51.6785 63.4255 51.1899 62.8036 51.0446 62.0709C50.8993 61.3362 51.1141 60.5695 51.6195 60.0221C52.9315 58.5994 55.1996 57.3535 56.895 57.1235C57.5036 57.0405 58.1291 57 58.7503 57C62.2146 57 65.6811 58.2991 68.2651 60.5631C68.562 60.8229 68.8484 61.0955 69.1264 61.3596C70.0278 62.2136 70.8807 63.0208 71.8874 63.2849C72.1717 63.3594 72.4897 63.3956 72.8624 63.3956C73.3152 63.3956 73.7891 63.3424 74.3177 63.2806C78.6665 62.761 85.4519 61.2361 88.1665 60.6035C88.3371 60.5631 88.5098 60.5439 88.6846 60.5439C89.7755 60.5439 90.7274 61.334 90.9464 62.4223L90.9506 62.4458C91.077 63.0655 90.959 63.6938 90.6179 64.2177C90.2788 64.7374 89.7586 65.0931 89.1542 65.2166C85.7215 65.9173 74.0333 68.3005 67.7407 69.6039C66.8773 69.7785 65.8074 70 64.7418 70Z" fill="#211D21"/>
<path d="M108.35 105.645L99.2991 89.9122L102.141 88.3082L112.011 105.176L108.35 105.645Z" fill="#211D21"/>
<path d="M109.66 88.3063L106.817 89.9099L115.866 105.642L118.71 104.039L109.66 88.3063Z" fill="#211D21"/>
<path d="M92.103 107.431C91.7534 107.431 91.6969 106.932 92.04 106.859C96.5109 105.905 106.113 104.096 114.67 104.096H115.708C124.529 104.101 136.461 103.862 142.89 100.441C150.095 96.6098 152.195 89.8756 152.805 86.4312C152.85 86.1688 153.241 86.1947 153.248 86.4613C153.369 90.3659 152.572 98.5535 144.549 103.232C137.492 107.35 124.902 107.337 115.706 107.335H114.67C110.024 107.335 105.844 107.36 101.803 107.384C98.6823 107.405 95.4795 107.425 92.103 107.431Z" fill="#211D21"/>
</svg>
