<svg width="84" height="84" viewBox="0 0 84 84" fill="none" xmlns="http://www.w3.org/2000/svg">
<g clip-path="url(#clip0_332_6025)">
<path d="M45.0183 18.2469C45.0183 18.2469 44.3091 18.3679 44.2192 17.0817C44.1292 15.7955 46.137 13.72 46.3291 14.4242C46.5211 15.1284 46.3179 15.2854 46.3179 15.2854C46.3179 15.2854 48.1324 13.5091 48.8865 14.0312C49.6407 14.5532 48.9563 15.0295 48.9563 15.0295C48.9563 15.0295 51.1037 14.9508 51.4329 15.574C51.7622 16.1972 50.9307 16.6124 50.9307 16.6124C50.9307 16.6124 51.4006 17.1543 51.366 17.7316C51.335 18.3086 50.3417 19.5241 50.3417 19.5241C50.3417 19.5241 49.6509 16.8447 47.9384 16.9644C46.2259 17.0842 44.9596 17.4584 45.0145 18.2436L45.0183 18.2469Z" fill="#7B0D0D"/>
<path d="M44.8081 17.3302C44.8081 17.3302 44.7385 20.4198 45.0516 21.8332C45.3646 23.2466 46.2897 25.192 48.0868 25.2092C49.8803 25.2266 50.2516 23.3369 50.4248 22.75C50.5979 22.163 50.4931 20.6637 50.4931 20.6637C50.4931 20.6637 51.3345 20.3906 51.3044 19.9607C51.2743 19.5308 51.2905 18.7406 50.4392 18.8716C50.4392 18.8716 49.8244 16.2582 47.3878 16.2858C44.9512 16.3134 44.8043 17.3269 44.8043 17.3269L44.8081 17.3302Z" fill="#FFBB99"/>
<path d="M50.1398 18.6775C50.1398 18.6775 49.5839 17.9273 47.2994 18.087C45.0148 18.2468 44.0465 18.7465 44.1523 19.239C44.2582 19.7314 44.2261 21.3153 44.8131 21.4885C45.4 21.6617 46.2575 20.5984 47.0477 20.6146C47.8378 20.6307 48.1208 21.6142 48.9707 21.412C49.817 21.21 50.3454 19.5235 50.3454 19.5235L50.1434 18.6772L50.1398 18.6775Z" fill="#7B0D0D"/>
<path d="M57.2664 7.70381C57.2664 7.70381 54.8559 7.08332 54.3711 6.32818C53.8863 5.57303 53.9209 4.99579 54.4283 5.10312C54.9392 5.21021 56.1048 5.48931 56.1507 5.12549C56.1969 4.76523 55.7865 4.00131 55.0174 3.26604C54.2484 2.53078 54.5075 2.15205 56.2338 2.17772C57.9563 2.20009 59.4034 3.39136 59.761 4.36962C60.1151 5.34812 60.3768 5.97606 60.3768 5.97606L57.2697 7.7L57.2664 7.70381Z" fill="#7B0D0D"/>
<path d="M26.2568 45.4654C26.2568 45.4654 22.4743 48.8146 21.419 51.1842L25.9796 53.8072L30.477 48.3264L26.2603 45.4651L26.2568 45.4654Z" fill="#7B0D0D"/>
<path d="M44.5758 26.3151L43.5347 23.7316L46.6355 22.9399L48.3918 24.4666L48.4701 22.5224L52.3362 21.3916L53.3361 24.4065C53.3361 24.4065 56.8281 22.0094 58.5068 20.3853C60.1856 18.7612 60.8709 17.278 60.1076 14.5323C59.3408 11.7867 56.5335 7.5344 56.5335 7.5344L61.1497 4.77306C61.1497 4.77306 66.167 11.8842 66.7206 14.6447C67.2707 17.4053 63.6219 23.6872 61.8673 26.3199C60.1127 28.9525 56.0411 32.2506 56.0411 32.2506C56.0411 32.2506 56.8235 40.3755 54.2292 46.3695L41.3464 39.6655C41.3464 39.6655 42.4017 37.296 42.111 34.1601L30.24 49.1252L25.5484 45.6509C25.5484 45.6509 35.9561 30.2847 44.5756 26.3115L44.5758 26.3151Z" fill="#FF8C5B"/>
<path d="M44.5759 26.3148C40.19 28.3352 35.3462 33.3047 31.6403 37.6983L32.6387 46.1044L42.1078 34.1636L42.186 32.2194L55.6823 28.1909C55.6823 28.1909 58.2964 24.677 58.7406 20.1544C58.6639 20.2312 58.5871 20.308 58.5071 20.3885C56.8283 22.0126 53.3364 24.4097 53.3364 24.4097L48.8249 27.5957L44.5723 26.315L44.5759 26.3148Z" fill="#F2CE4F"/>
<path d="M48.8284 27.5954C48.8284 27.5954 50.1681 39.5552 47.0615 42.3573" stroke="#7B0D0D" stroke-width="0.5" stroke-miterlimit="10"/>
<path d="M56.3423 45.8001L44.6833 40.1566C44.6833 40.1566 43.1014 37.0396 40.5885 36.9976C38.0759 36.959 36.5857 39.2876 35.7793 40.0616C34.973 40.8356 27.7154 50.9581 27.7154 50.9581C27.7154 50.9581 28.9243 51.8054 29.7184 52.8995C30.5126 53.9936 31.6956 56.5637 31.6956 56.5637L40.2097 46.9996L53.8517 54.2967C53.8517 54.2967 45.5085 65.2841 45.5336 65.6429C45.5587 66.0018 44.9553 66.6152 45.6186 66.8581C46.2815 67.0973 51.3056 67.1066 51.7519 67.361C52.1981 67.6155 53.24 68.1174 53.24 68.1174C53.24 68.1174 64.432 53.7032 64.6474 51.6781C64.8628 49.6529 63.4638 48.9974 61.3841 48.1039C59.9853 47.5019 56.3423 45.8001 56.3423 45.8001Z" fill="#EB463C"/>
<path d="M53.24 68.1176C53.24 68.1176 53.7444 67.4682 54.5359 66.4311C54.2139 65.2468 53.5353 63.7626 52.0953 63.0314C50.5181 62.2277 48.8867 62.0775 48.0354 62.0549C46.63 63.9634 45.5244 65.5117 45.5333 65.6396C45.5582 65.9949 44.9551 66.6119 45.6183 66.8547C46.2815 67.0975 51.3054 67.1032 51.7516 67.3577C52.1978 67.6121 53.2398 68.1141 53.2398 68.1141L53.24 68.1176Z" fill="#F2CE4F"/>
<path d="M29.7185 52.8997C30.5126 53.9938 31.6956 56.5639 31.6956 56.5639L35.2211 52.6042C34.712 51.4509 33.8856 50.0484 32.7057 49.4632C31.2153 48.7249 29.9821 48.654 29.3591 48.6797C28.3956 50.0146 27.7157 50.9618 27.7157 50.9618C27.7157 50.9618 28.9246 51.8092 29.7187 52.9033L29.7185 52.8997Z" fill="#F2CE4F"/>
<path d="M31.2434 58.3167C31.2434 58.3167 32.1919 57.5327 31.5096 54.9241C30.8238 52.3157 28.1464 49.9216 26.4901 49.8232C24.8337 49.7248 23.0291 51.6433 23.0291 51.6433L31.247 58.3164L31.2434 58.3167Z" fill="#5B76FF"/>
<path d="M44.7833 66.1959C44.7833 66.1959 48.1021 64.3857 51.0846 64.9662C54.0672 65.5467 55.2069 70.5618 53.7876 71.8107L44.7835 66.1994L44.7833 66.1959Z" fill="#5B76FF"/>
<path d="M8.68044 37.969C8.68044 37.969 9.04085 40.4681 10.6126 42.8788C12.1843 45.2896 18.3571 50.749 18.3571 50.749L61.8014 78.7338C61.8014 78.7338 63.8271 79.6204 64.9492 79.6347C66.0713 79.6491 68.8864 79.8271 66.9631 79.0262C65.0398 78.2253 63.1989 77.3257 59.4854 74.9719C55.7681 72.6148 18.8953 47.723 18.8953 47.723C18.8953 47.723 14.2521 44.1239 12.5279 42.1879C10.8038 40.252 8.64288 36.1044 8.68044 37.969Z" fill="#199D46"/>
<path d="M40.2095 47.0002L43.4191 43.0162" stroke="#7B0D0D" stroke-width="0.5" stroke-miterlimit="10"/>
<path d="M53.8518 54.2971L56.9238 50.387" stroke="#7B0D0D" stroke-width="0.5" stroke-miterlimit="10"/>
<path d="M64.2919 74.2143C64.3296 74.7543 63.7988 75.2306 63.106 75.279C62.4132 75.3275 61.8212 74.9297 61.7835 74.3897C61.7457 73.8496 62.2765 73.3733 62.9693 73.3249C63.6622 73.2764 64.2541 73.6742 64.2919 74.2143Z" fill="#F2F2F2"/>
<path d="M67.8867 76.2046C67.91 76.5386 67.5736 76.8335 67.1402 76.8638C66.7067 76.8941 66.3325 76.6489 66.3092 76.3149C66.2858 75.981 66.6222 75.6861 67.0557 75.6558C67.4892 75.6255 67.8633 75.8707 67.8867 76.2046Z" fill="#F2F2F2"/>
<path d="M66.0772 77.0311C66.0916 77.2372 65.8759 77.4201 65.5917 77.44C65.3074 77.4598 65.0684 77.3087 65.0539 77.1027C65.0395 76.8966 65.2553 76.7137 65.5395 76.6938C65.8237 76.674 66.0628 76.8251 66.0772 77.0311Z" fill="#F2F2F2"/>
<path d="M68.7924 78.4302C68.8031 78.583 68.6024 78.7255 68.3466 78.7434C68.0908 78.7613 67.8725 78.6516 67.8615 78.4953C67.8506 78.339 68.0515 78.1999 68.3074 78.1821C68.5632 78.1642 68.7815 78.2739 68.7924 78.4302Z" fill="#F2F2F2"/>
</g>
<defs>
<clipPath id="clip0_332_6025">
<rect width="78" height="78" fill="white" transform="translate(0.174286 6.0697) rotate(-4)"/>
</clipPath>
</defs>
</svg>
