<svg width="86" height="106" viewBox="0 0 86 106" fill="none" xmlns="http://www.w3.org/2000/svg">
<g clip-path="url(#clip0_332_6271)">
<path d="M75.5423 87.8695L60.3343 68.8841L67.2407 68.4011L54.5679 52.5799L61.4744 52.097L48.9178 37.9384L55.8242 37.4554L40.4999 16.8075L28.1984 39.3872L35.1048 38.9043L24.641 54.6726L31.5474 54.1897L21.1998 71.6206L28.1063 71.1377L15.6885 92.0548L75.5423 87.8695Z" fill="#199D46"/>
<path d="M45.8097 7.80181L43.7707 5.16428L41.4803 6.93503L41.2325 3.39035L37.9073 3.62288L38.1551 7.16755L35.6406 5.7328L33.9886 8.62842L37.0372 10.3667L34.2601 12.5123L36.2991 15.1498L38.5895 13.3791L38.8373 16.9237L42.1626 16.6912L41.9147 13.1465L44.4292 14.5813L46.0813 11.6857L43.0326 9.94742L45.8097 7.80181Z" fill="#F2CE4F"/>
<path d="M50.6032 89.6135L40.6276 90.311L41.4414 101.949L51.417 101.252L50.6032 89.6135Z" fill="#80421C"/>
<path d="M59.6138 99.0077L33.0121 100.868L33.2446 104.193L59.8463 102.333L59.6138 99.0077Z" fill="#80421C"/>
<path d="M47.0804 63.1281C48.9169 62.9997 50.3016 61.4068 50.1731 59.5704C50.0447 57.7339 48.4519 56.3493 46.6154 56.4777C44.7789 56.6061 43.3943 58.199 43.5227 60.0354C43.6511 61.8719 45.244 63.2565 47.0804 63.1281Z" fill="#EB463C"/>
<path d="M35.1747 84.0095C37.0112 83.881 38.3958 82.2882 38.2674 80.4517C38.139 78.6153 36.5461 77.2306 34.7097 77.359C32.8732 77.4874 31.4886 79.0803 31.617 80.9168C31.7454 82.7532 33.3383 84.1379 35.1747 84.0095Z" fill="#EB463C"/>
<path d="M44.8715 31.5385L41.5463 31.771L41.7788 35.0962L45.104 34.8637L44.8715 31.5385Z" fill="#F2CE4F"/>
<path d="M39.2674 46.9669L35.9422 47.1995L36.1747 50.5247L39.4999 50.2922L39.2674 46.9669Z" fill="#F2CE4F"/>
<path d="M58.1024 77.3939L54.7772 77.6265L55.0097 80.9517L58.335 80.7192L58.1024 77.3939Z" fill="#F2CE4F"/>
<path d="M38.9999 67.0346L35.6747 67.2671L35.9072 70.5923L39.2324 70.3598L38.9999 67.0346Z" fill="#F2CE4F"/>
<path d="M50.6032 89.6135L40.6276 90.311L40.8601 93.6362L50.8357 92.9387L50.6032 89.6135Z" fill="#70320F"/>
</g>
<defs>
<clipPath id="clip0_332_6271">
<rect width="78" height="100" fill="white" transform="translate(0.664841 6.22729) rotate(-4)"/>
</clipPath>
</defs>
</svg>
