<svg width="129" height="121" viewBox="0 0 129 121" fill="none" xmlns="http://www.w3.org/2000/svg">
<path d="M53.1888 58.2952C53.1888 58.2952 53.9348 58.6615 54.4538 57.262C54.9728 55.8626 53.416 52.9087 52.9747 53.6298C52.5334 54.3508 52.7096 54.5887 52.7096 54.5887C52.7096 54.5887 51.2709 52.0277 50.2679 52.3653C49.2602 52.6989 49.8649 53.4504 49.8649 53.4504C49.8649 53.4504 47.5066 52.6663 46.9391 53.2495C46.3716 53.8327 47.1603 54.5626 47.1603 54.5626C47.1603 54.5626 46.4628 55.0126 46.314 55.6614C46.161 56.3105 46.8689 57.9822 46.8689 57.9822C46.8689 57.9822 48.5056 55.2321 50.3656 55.9216C52.2255 56.6112 53.5083 57.436 53.1928 58.2906L53.1888 58.2952Z" fill="#7B0D0D"/>
<path d="M53.7222 57.3474C53.7222 57.3474 52.7988 60.7983 51.9912 62.2653C51.1836 63.7324 49.5277 65.5909 47.5299 65.0275C45.5363 64.4637 45.7352 62.2498 45.7332 61.5425C45.7312 60.8352 46.3333 59.2057 46.3333 59.2057C46.3333 59.2057 45.4908 58.6305 45.6607 58.1613C45.8352 57.6962 46.0711 56.8126 46.9718 57.2328C46.9718 57.2328 48.5043 54.5331 51.1974 55.3542C53.8905 56.1753 53.7265 57.3471 53.7265 57.3471L53.7222 57.3474Z" fill="#FFBB99"/>
<path d="M47.3689 57.1143C47.3689 57.1143 48.2293 56.4631 50.7135 57.3808C53.1976 58.2984 54.1081 59.1665 53.8293 59.6821C53.5501 60.1934 53.0741 61.9608 52.3668 61.9628C51.6595 61.9648 51.0528 60.5061 50.1735 60.2699C49.2897 60.0297 48.6566 61.0317 47.7805 60.5321C46.9087 60.0323 46.8694 57.9904 46.8694 57.9904L47.3689 57.1143Z" fill="#7B0D0D"/>
<path d="M59.8167 78.8694C59.8167 78.8694 62.2841 80.349 63.3002 80.1356C64.3162 79.9222 64.7603 79.4253 64.2626 79.0934C63.7603 78.7576 62.5832 78.0246 62.8446 77.6914C63.102 77.3628 64.0657 77.0797 65.2932 77.1147C66.5208 77.1496 66.6224 76.6292 65.2004 75.2317C63.7827 73.834 61.6313 73.6049 60.5318 74.1045C59.4411 74.6078 58.711 74.9004 58.711 74.9004L59.8115 78.8568L59.8167 78.8694Z" fill="#7B0D0D"/>
<path d="M65.1732 94.5794C65.1732 94.5794 68.2838 99.521 68.6859 102.495L62.777 103.926L59.5666 96.3863L65.1732 94.5794Z" fill="#7B0D0D"/>
<path d="M51.0641 67.3889L53.057 64.8597L49.8756 62.9771L47.4307 64.1014L47.9769 61.9193L44.0529 59.4113L41.9648 62.4303C41.9648 62.4303 37.894 61.7098 36.3265 63.9073C29.7935 73.0692 38.5857 76.9061 43.3859 77.2003C51.1367 77.6806 36.4167 70.2551 36.4167 70.2551C36.4167 70.2551 32.9097 79.0156 33.8434 86.5079L50.3098 83.2514C50.3098 83.2514 49.908 80.2815 51.2501 76.8963L59.5652 97.3528L65.8986 95.0205C65.8983 95.0162 59.3368 74.5923 51.0641 67.3889Z" fill="#FF8C5B"/>
<path d="M51.064 67.3882C55.276 71.0537 59.0367 78.1369 61.7223 84.217L57.8872 93.2204L51.2588 76.8993L51.8051 74.7171L36.5294 63.6638C38.1624 61.7853 41.9693 62.4336 41.9693 62.4336L45.9423 67.4314L51.064 67.3882Z" fill="#F2CE4F"/>
<path d="M45.9292 67.4295C45.9292 67.4295 40.5631 80.2627 43.0986 84.3819" stroke="#7B0D0D" stroke-width="0.5" stroke-miterlimit="10"/>
<path d="M31.6848 85.1876L46.45 82.7101C46.45 82.7101 49.2161 79.7645 52.0178 80.5348C54.8198 81.3095 55.7157 84.3743 56.3591 85.494C57.0025 86.6137 61.7703 100.201 61.7703 100.201C61.7703 100.201 60.1522 100.75 58.9161 101.703C57.6803 102.661 55.532 105.127 55.532 105.127L49.1918 91.754L31.6888 95.4238C31.6888 95.4238 37.3808 110.322 37.2355 110.712C37.0902 111.102 37.5614 111.979 36.7454 112.032C35.9335 112.08 30.3547 110.46 29.7778 110.599C29.2006 110.735 27.8832 110.956 27.8832 110.956C27.8832 110.956 20.1438 91.3307 20.5642 89.0151C20.9846 86.6994 22.747 86.4252 25.3434 86.1099C27.0925 85.8927 31.6848 85.1876 31.6848 85.1876Z" fill="#EB463C"/>
<path d="M27.8831 110.956C27.8831 110.956 27.5322 110.07 26.9938 108.663C27.7375 107.454 28.9706 106.027 30.8058 105.683C32.8154 105.305 34.6741 105.667 35.6275 105.915C36.5667 108.489 37.2899 110.565 37.2392 110.703C37.0978 111.088 37.565 111.97 36.7491 112.022C35.9332 112.075 30.3584 110.45 29.7815 110.59C29.2049 110.734 27.8871 110.951 27.8831 110.956Z" fill="#F2CE4F"/>
<path d="M58.9164 101.708C57.6806 102.666 55.5323 105.132 55.5323 105.132L52.9063 99.5959C53.8465 98.4819 55.2189 97.1954 56.7142 96.9269C58.6061 96.5919 60.0003 96.9128 60.6809 97.1456C61.3153 98.9389 61.7622 100.21 61.7622 100.21C61.7622 100.21 60.1524 100.754 58.9164 101.708Z" fill="#F2CE4F"/>
<path d="M55.4669 107.221C55.4669 107.221 54.6684 106.043 56.2719 103.373C57.8797 100.702 61.6283 98.9132 63.496 99.3434C65.3637 99.7736 66.7439 102.485 66.7439 102.485L55.4669 107.221Z" fill="#5B76FF"/>
<path d="M37.8906 111.569C37.8906 111.569 34.7978 108.485 31.2982 108.16C27.7986 107.836 24.9092 113.029 26.0779 114.875L37.8906 111.569Z" fill="#5B76FF"/>
<path d="M87.1027 91.9684C87.1027 91.9684 85.8908 94.6242 83.3677 96.7892C80.8403 98.9546 72.2202 103.008 72.2202 103.008L14.9414 119.955C14.9414 119.955 12.4063 120.283 11.1569 119.935C9.9074 119.586 6.72546 118.869 9.11849 118.606C11.5112 118.34 13.8474 117.943 18.7314 116.536C23.6196 115.129 72.6075 99.4785 72.6075 99.4785C72.6075 99.4785 78.9258 96.992 81.4677 95.4037C84.0049 93.8113 87.7484 89.9131 87.1027 91.9684Z" fill="#199D46"/>
<path d="M49.1917 91.7548L46.9247 86.2926" stroke="#7B0D0D" stroke-width="0.5" stroke-miterlimit="10"/>
<path d="M31.6888 95.4248L29.5516 90.0916" stroke="#7B0D0D" stroke-width="0.5" stroke-miterlimit="10"/>
<path d="M35.0412 69.6508C43.0443 77.5634 49.3531 77.2861 60.4189 79.3378C59.2662 77.6584 59.508 76.3042 59.8954 74.3187C56.5609 73.7021 43.4074 71.0976 39.0015 65.8927" fill="#FF8C5B"/>
<path d="M91.1029 17.4376L56.3252 66.9984L57.3361 67.7078L92.1138 18.147L91.1029 17.4376Z" fill="#5B76FF"/>
<path d="M91.3136 61.44L66.5382 84.7694L67.3849 85.6685L92.1603 62.3392L91.3136 61.44Z" fill="#5B76FF"/>
<path d="M70.6009 65.4152C70.3704 65.3882 70.1446 65.3048 69.9446 65.1592L69.4445 64.793C68.8261 64.3401 68.6919 63.4695 69.1448 62.8512L71.5153 59.6141C71.7358 59.3139 72.0587 59.1188 72.4258 59.063C72.7928 59.0071 73.1615 59.0978 73.4613 59.3141L73.9572 59.6806C74.2573 59.9012 74.4524 60.224 74.5083 60.591C74.5642 60.9581 74.4735 61.3268 74.2569 61.6224L71.8821 64.8598C71.5832 65.2732 71.0837 65.4721 70.6009 65.4152ZM70.1447 63.5793C70.0934 63.6476 70.1089 63.7457 70.1772 63.797L70.6773 64.1633C70.7456 64.2146 70.8437 64.1991 70.895 64.1308L73.2698 60.8933C73.3131 60.8342 73.2964 60.7189 73.2373 60.6756L72.7372 60.3094L72.5195 60.3419L70.1447 63.5793Z" fill="#5B76FF"/>
<path d="M69.5034 64.0681L61.2411 74.7317L62.2173 75.4881L70.4797 64.8245L69.5034 64.0681Z" fill="#5B76FF"/>
<path d="M97.5696 18.2371L71.5088 59.8947L72.5558 60.5497L98.6166 18.8921L97.5696 18.2371Z" fill="#5B76FF"/>
<path d="M102.879 26.2124L73.335 60.6095L74.2718 61.4142L103.816 27.0171L102.879 26.2124Z" fill="#5B76FF"/>
<path d="M91.4904 22.0829C94.5883 18.9459 100.487 18.6714 104.881 19.0156C108.387 -10.7354 78.2183 3.84083 91.4904 22.0829Z" fill="#EB463C"/>
<path d="M89.4709 7.20786C95.0247 -2.75696 108.428 0.701499 120.304 18.1051C121.308 19.5792 121.949 21.2728 121.741 23.0431C119.85 39.1964 108.903 56.725 98.4467 62.404C92.9941 65.3649 83.5759 60.0404 87.8294 52.7633C92.9187 44.0518 105.507 23.3328 104.327 12.0831C103.419 3.41133 95.4157 1.29217 89.4709 7.20786Z" fill="#FF8C5B"/>
<path d="M66.3369 85.9943L55.5463 66.5952C55.4576 66.4374 55.5174 66.2435 55.6708 66.1551L56.7255 65.568C56.8832 65.4793 57.0772 65.5391 57.1655 65.6925L67.9562 85.0917C68.0448 85.2494 67.9851 85.4434 67.8316 85.5318L66.777 86.1188C66.619 86.2032 66.4253 86.1477 66.3369 85.9943Z" fill="#199D46"/>
</svg>
