<svg width="170" height="170" viewBox="0 0 170 170" fill="none" xmlns="http://www.w3.org/2000/svg">
<path d="M158 85C158 125.317 125.317 158 85 158C44.6832 158 12 125.317 12 85C12 44.6832 44.6832 12 85 12C125.317 12 158 44.6832 158 85Z" fill="#211D21" stroke="#A6C942" stroke-width="20"/>
<path d="M161.491 91.7815C161.559 90.7518 161.256 89.866 160.583 89.1244C159.923 88.3715 159.084 87.9617 158.067 87.8949C157.564 87.8618 157.084 87.9266 156.629 88.0891C156.173 88.2516 155.76 88.4951 155.39 88.8195C155.02 89.144 154.731 89.5158 154.523 89.9351C154.315 90.3664 154.194 90.8275 154.162 91.3184L153.962 94.3539L151.412 94.1864L151.611 91.151C151.666 90.3248 151.88 89.5391 152.253 88.794C152.627 88.0488 153.114 87.4074 153.715 86.8696C154.314 86.3437 155.002 85.9379 155.779 85.6522C156.554 85.3784 157.373 85.2698 158.235 85.3264C159.098 85.383 159.896 85.5917 160.63 85.9526C161.363 86.3254 161.992 86.8117 162.518 87.4114C163.056 88.0119 163.467 88.7004 163.753 89.4768C164.038 90.2651 164.152 91.0904 164.096 91.9525L163.895 95.0059L161.291 94.835L161.491 91.7815Z" fill="#211D21"/>
<path d="M155.811 95.0998L163.673 96.7235L163.152 99.2442L155.254 97.6133C155.031 97.5671 154.798 97.568 154.555 97.6159C154.322 97.678 154.098 97.7849 153.882 97.9365C153.679 98.0905 153.493 98.2788 153.325 98.5013C153.165 98.738 153.054 99.0091 152.991 99.3147C152.921 99.6555 152.93 99.9638 153.02 100.24C153.108 100.527 153.23 100.767 153.386 100.959C153.552 101.164 153.728 101.323 153.913 101.435C154.107 101.561 154.263 101.636 154.381 101.66L162.314 103.298L161.792 105.819L153.93 104.196C153.202 104.045 152.584 103.801 152.078 103.464C151.57 103.138 151.169 102.737 150.875 102.26C150.593 101.785 150.416 101.252 150.342 100.661C150.277 100.084 150.313 99.4662 150.449 98.8081C150.585 98.15 150.794 97.5559 151.075 97.0258C151.365 96.5099 151.73 96.0768 152.17 95.7266C152.62 95.3905 153.145 95.162 153.746 95.041C154.359 94.9225 155.047 94.9421 155.811 95.0998Z" fill="#211D21"/>
<path d="M151.676 106.778L148.638 105.703L149.497 103.277L161.291 107.449L159.723 111.877C159.475 112.579 159.149 113.157 158.746 113.613C158.354 114.072 157.903 114.41 157.395 114.624C156.882 114.85 156.329 114.954 155.738 114.935C155.153 114.932 154.544 114.819 153.911 114.595C153.277 114.37 152.719 114.077 152.236 113.716C151.76 113.369 151.381 112.949 151.098 112.454C150.91 112.12 150.773 111.753 150.686 111.353L148.129 112.587L146.415 111.981L147.022 110.267L151.135 108.305L151.676 106.778ZM154.102 107.636L153.381 109.672C153.305 109.887 153.276 110.112 153.295 110.348C153.321 110.599 153.396 110.836 153.521 111.058C153.642 111.292 153.803 111.502 154.004 111.687C154.213 111.889 154.465 112.041 154.759 112.145C155.087 112.261 155.394 112.293 155.679 112.242C155.976 112.194 156.232 112.1 156.448 111.96C156.67 111.835 156.851 111.683 156.991 111.503C157.139 111.339 157.232 111.2 157.272 111.087L158.005 109.017L154.102 107.636Z" fill="#211D21"/>
<path d="M146.347 111.842L157.58 117.349L156.446 119.659L147.525 115.286L146.185 118.017L143.873 116.884L146.347 111.842Z" fill="#211D21"/>
<path d="M142.081 119.896L143.391 117.68L154.163 124.041L152.854 126.257L142.081 119.896Z" fill="#211D21"/>
<path d="M134.263 130.639L135.838 128.603L147.1 128.047L140.32 122.808L141.895 120.772L151.794 128.421L150.219 130.457L138.957 131.013L145.737 136.252L144.163 138.288L134.263 130.639Z" fill="#211D21"/>
<path d="M135.401 142.096L131.272 145.742L130.726 145.504C129.973 145.16 129.311 144.665 128.739 144.017C128.166 143.37 127.747 142.651 127.482 141.861C127.215 141.088 127.102 140.299 127.143 139.495C127.192 138.699 127.389 137.925 127.733 137.172C128.076 136.437 128.568 135.779 129.208 135.198C129.855 134.626 130.574 134.208 131.364 133.942C132.155 133.677 132.952 133.564 133.758 133.606C134.554 133.655 135.328 133.852 136.081 134.196C136.825 134.548 137.482 135.047 138.055 135.695C138.627 136.342 139.046 137.052 139.313 137.825C139.571 138.606 139.675 139.394 139.626 140.19C139.585 140.995 139.392 141.774 139.048 142.526C138.695 143.286 138.194 143.952 137.547 144.524L135.818 142.568C136.592 141.885 137.001 141.044 137.046 140.043C137.108 139.044 136.801 138.163 136.125 137.398C135.791 137.021 135.406 136.729 134.968 136.524C134.53 136.318 134.065 136.2 133.574 136.17C133.082 136.139 132.615 136.2 132.172 136.351C131.72 136.51 131.31 136.752 130.941 137.078C130.553 137.436 130.252 137.83 130.039 138.259C129.825 138.687 129.712 139.139 129.7 139.614C129.669 140.106 129.734 140.577 129.893 141.029C130.052 141.481 130.298 141.895 130.632 142.273C130.728 142.381 130.836 142.485 130.957 142.586L133.696 140.168L135.401 142.096Z" fill="#211D21"/>
<path d="M120.031 148.547C120.147 148.771 120.214 149.006 120.234 149.252C120.254 149.499 120.228 149.735 120.156 149.962C120.09 150.199 119.977 150.413 119.819 150.603C119.661 150.793 119.47 150.946 119.246 151.062C119.022 151.178 118.787 151.245 118.541 151.265C118.294 151.285 118.055 151.253 117.823 151.171C117.585 151.104 117.372 150.992 117.182 150.834C116.991 150.676 116.838 150.485 116.722 150.261C116.606 150.037 116.538 149.802 116.519 149.556C116.499 149.309 116.53 149.07 116.613 148.838C116.685 148.611 116.8 148.403 116.958 148.213C117.116 148.023 117.307 147.87 117.531 147.754C117.755 147.638 117.99 147.57 118.236 147.551C118.483 147.531 118.72 147.557 118.946 147.629C119.173 147.701 119.381 147.816 119.571 147.974C119.761 148.132 119.915 148.323 120.031 148.547Z" fill="#211D21"/>
<path d="M102.864 159.723C103.862 159.461 104.606 158.893 105.096 158.02C105.601 157.155 105.724 156.23 105.464 155.243C105.336 154.756 105.123 154.322 104.824 153.941C104.525 153.56 104.164 153.246 103.738 152.998C103.313 152.75 102.869 152.594 102.405 152.529C101.93 152.468 101.455 152.5 100.979 152.625L98.0367 153.398L97.3866 150.926L100.329 150.153C101.13 149.943 101.943 149.896 102.768 150.015C103.593 150.133 104.356 150.392 105.056 150.791C105.745 151.193 106.348 151.717 106.866 152.362C107.371 153.011 107.734 153.753 107.954 154.589C108.174 155.425 108.229 156.248 108.119 157.058C107.998 157.872 107.737 158.623 107.335 159.311C106.936 160.012 106.413 160.62 105.767 161.138C105.11 161.658 104.364 162.027 103.528 162.247L100.568 163.025L99.9046 160.5L102.864 159.723Z" fill="#211D21"/>
<path d="M97.9927 155.354L98.95 163.325L96.3944 163.632L95.4327 155.625C95.4055 155.399 95.3307 155.178 95.2082 154.963C95.0752 154.762 94.9027 154.583 94.6906 154.427C94.4799 154.283 94.2423 154.167 93.9778 154.077C93.7028 154.002 93.4104 153.982 93.1006 154.02C92.7551 154.061 92.4658 154.168 92.2328 154.341C91.9878 154.516 91.7994 154.707 91.6674 154.917C91.5249 155.139 91.4301 155.356 91.3829 155.567C91.3253 155.792 91.3036 155.963 91.3179 156.083L92.2838 164.125L89.7282 164.431L88.7708 156.461C88.6821 155.722 88.7173 155.059 88.8764 154.472C89.0236 153.886 89.2769 153.378 89.6362 152.949C89.9969 152.531 90.4458 152.193 90.9829 151.935C91.5095 151.69 92.1064 151.528 92.7737 151.448C93.4409 151.368 94.0704 151.377 94.6624 151.475C95.2438 151.587 95.7705 151.796 96.2423 152.102C96.7037 152.421 97.0872 152.846 97.3927 153.378C97.6997 153.921 97.8997 154.58 97.9927 155.354Z" fill="#211D21"/>
<path d="M85.2556 155.137L85.3178 151.915L87.8913 151.965L87.6498 164.473L82.9526 164.382C82.2088 164.368 81.5571 164.241 80.9976 164.002C80.4379 163.775 79.976 163.454 79.6119 163.039C79.2359 162.624 78.9633 162.133 78.7942 161.565C78.6129 161.01 78.5288 160.396 78.5417 159.724C78.5547 159.052 78.6567 158.43 78.8478 157.858C79.0267 157.297 79.3063 156.804 79.6865 156.379C79.944 156.096 80.2489 155.85 80.601 155.641L78.6239 153.604L78.659 151.787L80.4767 151.822L83.6359 155.105L85.2556 155.137ZM85.2059 157.71L83.0463 157.669C82.8183 157.664 82.5954 157.708 82.3776 157.8C82.1476 157.903 81.9467 158.049 81.775 158.238C81.5914 158.427 81.4431 158.646 81.3303 158.896C81.2052 159.157 81.1396 159.444 81.1336 159.756C81.1269 160.104 81.1931 160.405 81.3322 160.66C81.4711 160.927 81.641 161.14 81.8419 161.3C82.0307 161.472 82.2323 161.596 82.4469 161.672C82.6492 161.76 82.8104 161.805 82.9303 161.807L85.1259 161.849L85.2059 157.71Z" fill="#211D21"/>
<path d="M78.7304 151.67L77.0479 164.066L74.4972 163.72L75.8336 153.874L72.8192 153.466L73.1654 150.915L78.7304 151.67Z" fill="#211D21"/>
<path d="M69.8235 150.182L72.3403 150.722L69.7142 162.954L67.1975 162.414L69.8235 150.182Z" fill="#211D21"/>
<path d="M57.2097 146.181L59.6396 147.03L63.7256 157.534L66.5552 149.447L68.9851 150.297L64.8536 162.105L62.4237 161.255L58.3377 150.751L55.508 158.838L53.0782 157.989L57.2097 146.181Z" fill="#211D21"/>
<path d="M46.6999 150.865L41.9365 148.1L41.9899 147.506C42.0791 146.684 42.3408 145.899 42.775 145.152C43.2091 144.405 43.7592 143.781 44.4253 143.28C45.075 142.783 45.7884 142.427 46.5656 142.212C47.3367 142.007 48.1336 141.95 48.9562 142.039C49.7625 142.132 50.5422 142.391 51.2954 142.814C52.0426 143.248 52.6669 143.798 53.1683 144.463C53.6697 145.129 54.0278 145.85 54.2425 146.627C54.4469 147.398 54.5044 148.194 54.4152 149.017C54.3155 149.833 54.0486 150.615 53.6145 151.362C53.1804 152.109 52.6385 152.731 51.9888 153.228C51.3287 153.719 50.6131 154.067 49.842 154.271C49.0648 154.486 48.2649 154.549 47.4423 154.46C46.6093 154.365 45.8192 154.1 45.0719 153.666L46.3834 151.41C47.2759 151.928 48.2039 152.05 49.1676 151.777C50.1357 151.521 50.8759 150.951 51.3884 150.069C51.6417 149.634 51.7968 149.176 51.8539 148.695C51.9109 148.215 51.8764 147.737 51.7503 147.262C51.6242 146.786 51.4195 146.362 51.1364 145.989C50.8428 145.611 50.4833 145.298 50.0578 145.051C49.5952 144.796 49.1266 144.635 48.6522 144.568C48.1778 144.501 47.7131 144.536 47.258 144.674C46.7822 144.801 46.3549 145.01 45.9761 145.304C45.5974 145.597 45.2814 145.962 45.0281 146.398C44.9558 146.522 44.8908 146.658 44.8332 146.805L47.9932 148.64L46.6999 150.865Z" fill="#211D21"/>
<path d="M35.7328 138.295C35.5565 138.475 35.3543 138.613 35.1262 138.709C34.8981 138.805 34.6652 138.854 34.4276 138.856C34.1815 138.868 33.9434 138.828 33.7133 138.737C33.4831 138.646 33.2779 138.513 33.0978 138.336C32.9176 138.16 32.7796 137.958 32.6837 137.73C32.5879 137.502 32.5429 137.265 32.5487 137.019C32.5375 136.773 32.5773 136.535 32.6682 136.305C32.7591 136.075 32.8926 135.87 33.0689 135.69C33.2452 135.51 33.4474 135.372 33.6755 135.276C33.9037 135.18 34.1408 135.135 34.3871 135.141C34.6247 135.138 34.8586 135.182 35.0887 135.273C35.3189 135.364 35.5241 135.498 35.7042 135.674C35.8844 135.85 36.0224 136.052 36.1183 136.28C36.2141 136.508 36.2633 136.741 36.2659 136.978C36.2685 137.216 36.2244 137.45 36.1335 137.68C36.0427 137.91 35.9091 138.115 35.7328 138.295Z" fill="#211D21"/>
<path d="M19.7182 125.54C20.2819 126.405 21.0555 126.932 22.039 127.122C23.0189 127.328 23.9362 127.153 24.7909 126.597C25.2131 126.321 25.5579 125.982 25.825 125.579C26.0921 125.176 26.2764 124.734 26.3779 124.252C26.4794 123.771 26.4875 123.3 26.4024 122.84C26.3106 122.37 26.1304 121.928 25.8616 121.516L24.1999 118.968L26.3415 117.573L28.0032 120.121C28.4555 120.815 28.7557 121.571 28.9038 122.392C29.0518 123.212 29.0469 124.017 28.889 124.807C28.7245 125.588 28.4173 126.325 27.9675 127.019C27.511 127.703 26.9209 128.281 26.1969 128.753C25.473 129.224 24.7091 129.536 23.9053 129.687C23.0949 129.828 22.2993 129.817 21.5187 129.652C20.728 129.494 19.9854 129.19 19.2909 128.74C18.5898 128.281 18.0033 127.689 17.5313 126.965L15.8598 124.402L18.0466 122.977L19.7182 125.54Z" fill="#211D21"/>
<path d="M22.3326 119.583L15.0724 123.01L13.973 120.682L21.2657 117.241C21.4719 117.143 21.6576 117.003 21.8228 116.818C21.972 116.629 22.087 116.408 22.1677 116.158C22.2377 115.913 22.2731 115.651 22.274 115.371C22.2589 115.087 22.1847 114.803 22.0514 114.521C21.9028 114.206 21.7095 113.966 21.4717 113.8C21.2287 113.622 20.987 113.504 20.7468 113.445C20.4905 113.38 20.2548 113.359 20.0395 113.381C19.8083 113.397 19.6384 113.431 19.5299 113.482L12.2047 116.939L11.1052 114.611L18.3654 111.185C19.0382 110.868 19.6783 110.692 20.2858 110.657C20.8881 110.612 21.45 110.692 21.9716 110.897C22.4823 111.107 22.9449 111.426 23.3594 111.854C23.758 112.276 24.1008 112.791 24.3878 113.399C24.6749 114.006 24.8654 114.606 24.9595 115.199C25.0376 115.786 25.0062 116.351 24.8651 116.895C24.7081 117.434 24.4258 117.932 24.0183 118.39C23.5999 118.853 23.038 119.25 22.3326 119.583Z" fill="#211D21"/>
<path d="M18.5841 107.68L21.66 106.721L22.4271 109.178L10.4846 112.903L9.08438 108.419C8.86264 107.708 8.77656 107.05 8.82612 106.444C8.86423 105.841 9.0226 105.302 9.30122 104.825C9.57627 104.337 9.95618 103.923 10.4409 103.583C10.9107 103.236 11.4663 102.962 12.1078 102.762C12.7494 102.562 13.3719 102.462 13.9754 102.462C14.5639 102.454 15.1198 102.564 15.643 102.79C15.9931 102.945 16.3231 103.156 16.633 103.424L17.9395 100.905L19.675 100.364L20.2169 102.099L18.1013 106.134L18.5841 107.68ZM16.1269 108.447L15.4831 106.385C15.4152 106.167 15.3032 105.97 15.1471 105.792C14.9761 105.607 14.7739 105.462 14.5405 105.359C14.3036 105.245 14.0487 105.173 13.776 105.145C13.4882 105.109 13.1954 105.138 12.8975 105.231C12.5653 105.334 12.3004 105.492 12.1027 105.705C11.8936 105.921 11.745 106.149 11.6569 106.391C11.5537 106.624 11.5 106.854 11.4956 107.082C11.4762 107.302 11.4844 107.469 11.5202 107.583L12.1747 109.68L16.1269 108.447Z" fill="#211D21"/>
<path d="M19.8387 100.576L7.54997 102.919L7.06747 100.39L16.8277 98.5298L16.2575 95.5417L18.7859 95.0597L19.8387 100.576Z" fill="#211D21"/>
<path d="M18.4043 91.6037L18.6916 94.1617L6.25958 95.5565L5.9723 92.9986L18.4043 91.6037Z" fill="#211D21"/>
<path d="M18.1957 78.0118L18.156 80.5855L9.4759 87.7783L18.0429 87.9106L18.0031 90.4843L5.49463 90.2911L5.53437 87.7175L14.2145 80.5246L5.64748 80.3923L5.68722 77.8186L18.1957 78.0118Z" fill="#211D21"/>
<path d="M10.3673 69.738L11.4818 64.3439L12.0616 64.2064C12.87 64.0303 13.6972 64.0297 14.5434 64.2045C15.3895 64.3794 16.1558 64.7031 16.8424 65.1758C17.5196 65.6343 18.0832 66.198 18.5332 66.8669C18.9714 67.5334 19.2785 68.2708 19.4546 69.0791C19.6214 69.8733 19.6232 70.6947 19.4601 71.5432C19.2853 72.3893 18.9615 73.1557 18.4888 73.8422C18.0161 74.5288 17.4453 75.097 16.7765 75.547C16.11 75.9852 15.3726 76.2924 14.5643 76.4684C13.7583 76.6328 12.9323 76.6275 12.0862 76.4527C11.2401 76.2779 10.4784 75.9612 9.80114 75.5027C9.12634 75.0324 8.56983 74.464 8.13162 73.7976C7.68166 73.1287 7.36864 72.3901 7.19256 71.5817C7.01891 70.7616 7.0195 69.9285 7.19433 69.0824L9.75034 69.6105C9.54152 70.6212 9.71925 71.5401 10.2835 72.3674C10.8336 73.204 11.6081 73.7255 12.607 73.9319C13.1006 74.0339 13.5842 74.0358 14.0579 73.9376C14.5315 73.8394 14.974 73.6552 15.3852 73.3848C15.7964 73.1144 16.1339 72.7859 16.3976 72.3992C16.6637 72.0008 16.8465 71.5607 16.9461 71.0789C17.0412 70.5594 17.0455 70.064 16.959 69.5928C16.8726 69.1215 16.6918 68.6921 16.4165 68.3044C16.1461 67.8931 15.8118 67.5545 15.4134 67.2884C15.015 67.0222 14.569 66.8382 14.0754 66.7362C13.9344 66.7071 13.7851 66.6885 13.6274 66.6804L12.8881 70.2588L10.3673 69.738Z" fill="#211D21"/>
<path d="M18.7579 55.3895C18.5313 55.2794 18.3364 55.1314 18.1732 54.9455C18.0101 54.7596 17.8897 54.5543 17.812 54.3299C17.7236 54.1001 17.686 53.8618 17.6993 53.6148C17.7126 53.3678 17.7744 53.131 17.8845 52.9043C17.9947 52.6777 18.1428 52.4828 18.3289 52.3197C18.5149 52.1566 18.7256 52.0388 18.961 51.9663C19.1908 51.8778 19.4292 51.8402 19.6763 51.8535C19.9233 51.8667 20.1602 51.9284 20.3869 52.0385C20.6136 52.1485 20.8085 52.2966 20.9716 52.4825C21.1347 52.6684 21.2525 52.879 21.325 53.1143C21.4026 53.3388 21.4348 53.5745 21.4215 53.8215C21.4082 54.0685 21.3464 54.3053 21.2362 54.532C21.1261 54.7586 20.978 54.9535 20.7919 55.1166C20.6059 55.2797 20.4006 55.4002 20.176 55.4779C19.9515 55.5556 19.7156 55.5878 19.4686 55.5745C19.2215 55.5613 18.9846 55.4996 18.7579 55.3895Z" fill="#211D21"/>
<path d="M25.8485 36.0703C25.2053 36.8773 24.9484 37.7772 25.0779 38.7699C25.1905 39.7646 25.6458 40.5796 26.4438 41.215C26.8381 41.5289 27.2687 41.7491 27.7357 41.8755C28.2028 42.0019 28.6808 42.0374 29.17 41.982C29.6591 41.9266 30.1087 41.7861 30.5188 41.5604C30.9363 41.3253 31.2984 41.0154 31.6051 40.6306L33.501 38.2517L35.5006 39.8438L33.6047 42.2227C33.0886 42.8702 32.4645 43.3933 31.7324 43.7921C31.0002 44.1909 30.2341 44.4398 29.4338 44.539C28.6411 44.6287 27.8443 44.5695 27.0434 44.3614C26.2501 44.1439 25.5154 43.766 24.8395 43.2279C24.1636 42.6897 23.6271 42.0632 23.2302 41.3483C22.8407 40.624 22.6011 39.8657 22.5114 39.0733C22.4123 38.2735 22.4669 37.4733 22.6752 36.6728C22.891 35.863 23.2682 35.1202 23.8067 34.4445L25.7139 32.0516L27.7557 33.6773L25.8485 36.0703Z" fill="#211D21"/>
<path d="M32.1875 36.7989L26.6345 31.0012L28.4943 29.2217L34.0722 35.0453C34.2299 35.21 34.4223 35.3415 34.6494 35.4397C34.8768 35.5211 35.1222 35.5604 35.3854 35.5576C35.6403 35.5462 35.9003 35.4967 36.1654 35.4092C36.4309 35.3046 36.6763 35.1445 36.9017 34.9288C37.1532 34.6882 37.3201 34.4288 37.4026 34.1506C37.4937 33.8641 37.5293 33.5976 37.5092 33.3511C37.4895 33.0876 37.4351 32.8574 37.346 32.6603C37.2572 32.4462 37.1714 32.2958 37.0884 32.2092L31.4856 26.3595L33.3453 24.58L38.8984 30.3776C39.413 30.915 39.783 31.4661 40.0084 32.031C40.2424 32.5876 40.3449 33.1457 40.3157 33.705C40.2782 34.2558 40.1221 34.7954 39.8474 35.324C39.5731 35.8356 39.1932 36.3237 38.7077 36.7883C38.2221 37.2529 37.7132 37.6236 37.1808 37.9005C36.6488 38.1604 36.1022 38.3097 35.541 38.3484C34.9803 38.3701 34.4181 38.2603 33.8546 38.0189C33.2828 37.7688 32.7271 37.3622 32.1875 36.7989Z" fill="#211D21"/>
<path d="M42.4487 29.3188L44.3351 31.9308L42.2477 33.4369L34.9233 23.2952L38.7332 20.5464C39.3365 20.1111 39.9336 19.8209 40.5245 19.6757C41.1083 19.5208 41.6706 19.4999 42.2111 19.613C42.7614 19.7191 43.2746 19.9481 43.7508 20.3C44.2297 20.6352 44.6659 21.0751 45.0593 21.6199C45.4528 22.1647 45.7451 22.7232 45.9364 23.2955C46.1304 23.851 46.203 24.4127 46.1542 24.9806C46.1185 25.3615 46.0227 25.7413 45.867 26.12L48.6717 26.5602L49.7361 28.0341L48.2618 29.0978L43.7624 28.3709L42.4487 29.3188ZM40.9416 27.2321L42.6933 25.9683C42.8782 25.8349 43.0301 25.6661 43.1491 25.4619C43.2708 25.2409 43.3435 25.0035 43.3673 24.7495C43.4009 24.4885 43.3877 24.2243 43.3277 23.9568C43.2705 23.6726 43.1505 23.404 42.9678 23.1511C42.7641 22.869 42.5301 22.6679 42.2657 22.5478C41.9944 22.4181 41.7303 22.3496 41.4736 22.3425C41.2195 22.3187 40.9838 22.3408 40.7665 22.4088C40.5519 22.46 40.3959 22.5208 40.2986 22.591L38.5177 23.8759L40.9416 27.2321Z" fill="#211D21"/>
<path d="M49.8496 28.0811L43.7644 17.1509L46.0139 15.8998L50.847 24.581L53.5055 23.1024L54.7576 25.3514L49.8496 28.0811Z" fill="#211D21"/>
<path d="M57.689 24.003L55.3531 25.0842L50.0939 13.7334L52.4298 12.6522L57.689 24.003Z" fill="#211D21"/>
<path d="M70.0991 19.6088L67.6477 20.3938L58.0554 14.4688L60.6707 22.6279L58.2193 23.4129L54.4008 11.4999L56.8521 10.7149L66.4445 16.6399L63.8292 8.48081L66.2806 7.69584L70.0991 19.6088Z" fill="#211D21"/>
<path d="M75.937 9.47261L81.4083 8.83745L81.721 9.34478C82.142 10.057 82.4024 10.8422 82.5021 11.7004C82.6018 12.5586 82.5351 13.3879 82.3019 14.1881C82.0792 14.975 81.721 15.6871 81.2273 16.3243C80.7322 16.9495 80.1285 17.4726 79.4163 17.8936C78.7147 18.3012 77.9355 18.5608 77.0786 18.6723C76.2204 18.772 75.3911 18.7052 74.5908 18.4719C73.7906 18.2386 73.0718 17.8751 72.4345 17.3813C71.8092 16.8861 71.286 16.2824 70.865 15.5702C70.4559 14.8566 70.2015 14.0707 70.1017 13.2125C70.002 12.3542 70.0635 11.5317 70.2861 10.7447C70.5207 9.95643 70.8855 9.24964 71.3807 8.62437C71.8744 7.98718 72.4774 7.45812 73.1896 7.03719C73.9137 6.61487 74.7048 6.3539 75.5631 6.25427L75.8643 8.84682C74.8392 8.96583 74.0225 9.42305 73.4143 10.2185C72.7927 11.0034 72.5408 11.9025 72.6586 12.9156C72.7167 13.4163 72.8668 13.876 73.1088 14.2949C73.3507 14.7138 73.6647 15.076 74.0505 15.3816C74.4364 15.6871 74.8542 15.9044 75.3041 16.0334C75.7659 16.161 76.2412 16.1964 76.7299 16.1397C77.253 16.0668 77.7247 15.9154 78.145 15.6855C78.5652 15.4555 78.9162 15.1489 79.1978 14.7659C79.5034 14.3801 79.7199 13.9563 79.8474 13.4945C79.975 13.0327 80.0097 12.5515 79.9515 12.0509C79.9349 11.9078 79.9056 11.7602 79.8638 11.608L76.2342 12.0294L75.937 9.47261Z" fill="#211D21"/>
<path d="M92.3187 12.9091C92.3516 12.6592 92.4305 12.4276 92.5555 12.214C92.6805 12.0005 92.8372 11.8215 93.0258 11.6768C93.2158 11.5203 93.4302 11.4094 93.6688 11.3439C93.9074 11.2785 94.1516 11.2623 94.4014 11.2952C94.6513 11.3281 94.883 11.407 95.0965 11.532C95.31 11.6569 95.4882 11.8196 95.6313 12.02C95.7878 12.21 95.8987 12.4243 95.9641 12.6629C96.0295 12.9015 96.0457 13.1457 96.0128 13.3955C95.9798 13.6454 95.9009 13.877 95.7759 14.0906C95.6509 14.3041 95.4882 14.4824 95.2878 14.6254C95.0993 14.77 94.8857 14.8751 94.6471 14.9405C94.4085 15.0059 94.1643 15.0221 93.9145 14.9892C93.6646 14.9563 93.433 14.8774 93.2195 14.7525C93.006 14.6275 92.8269 14.4708 92.6823 14.2823C92.5377 14.0938 92.4327 13.8803 92.3673 13.6417C92.3019 13.4031 92.2857 13.1589 92.3187 12.9091Z" fill="#211D21"/>
<path d="M112.799 13.4891C111.83 13.134 110.895 13.1747 109.994 13.6111C109.085 14.0322 108.455 14.7215 108.104 15.6791C107.93 16.1522 107.857 16.6303 107.884 17.1132C107.912 17.5961 108.029 18.0608 108.236 18.5072C108.443 18.9537 108.718 19.3357 109.061 19.6534C109.416 19.9752 109.825 20.2207 110.287 20.39L113.143 21.4368L112.263 23.8364L109.406 22.7896C108.629 22.5047 107.936 22.078 107.326 21.5095C106.717 20.9411 106.238 20.293 105.892 19.5653C105.557 18.8417 105.361 18.0673 105.306 17.2419C105.262 16.4207 105.389 15.6045 105.687 14.7933C105.984 13.9822 106.41 13.2754 106.963 12.6731C107.528 12.0748 108.172 11.608 108.896 11.2726C109.624 10.9259 110.401 10.7249 111.226 10.6696C112.063 10.6184 112.887 10.7415 113.698 11.0388L116.571 12.0918L115.672 14.5421L112.799 13.4891Z" fill="#211D21"/>
<path d="M114.335 19.8324L118.11 12.7473L120.382 13.9567L116.59 21.0736C116.483 21.2748 116.418 21.4986 116.396 21.7449C116.389 21.9863 116.429 22.2315 116.514 22.4806C116.604 22.7191 116.732 22.9504 116.898 23.1748C117.081 23.3941 117.309 23.5771 117.585 23.7237C117.892 23.8872 118.191 23.9646 118.481 23.9559C118.782 23.9528 119.046 23.9032 119.274 23.8071C119.518 23.706 119.72 23.5823 119.88 23.4361C120.055 23.2849 120.171 23.1564 120.228 23.0505L124.036 15.9018L126.309 17.1112L122.534 24.1963C122.184 24.8529 121.776 25.3766 121.309 25.7672C120.853 26.1635 120.355 26.4352 119.814 26.5824C119.279 26.7191 118.718 26.7396 118.13 26.644C117.558 26.5436 116.975 26.3354 116.382 26.0197C115.789 25.704 115.277 25.3367 114.848 24.9178C114.435 24.4939 114.122 24.0216 113.91 23.501C113.714 22.9753 113.643 22.4072 113.696 21.7967C113.755 21.1756 113.968 20.5208 114.335 19.8324Z" fill="#211D21"/>
<path d="M124.35 27.0368L122.463 29.6488L120.376 28.1428L127.7 18.0011L131.51 20.7499C132.113 21.1852 132.577 21.6603 132.901 22.1751C133.232 22.6802 133.429 23.207 133.491 23.7554C133.564 24.3108 133.508 24.8698 133.324 25.4324C133.156 25.9922 132.876 26.5445 132.482 27.0893C132.089 27.6341 131.651 28.0873 131.167 28.4489C130.701 28.8079 130.191 29.0536 129.636 29.1862C129.263 29.2722 128.872 29.301 128.463 29.2724L128.929 32.0718L127.864 33.5456L126.39 32.4819L125.663 27.9847L124.35 27.0368ZM125.857 24.9501L127.608 26.2139C127.793 26.3473 128.001 26.4383 128.233 26.4868C128.481 26.5327 128.729 26.5269 128.978 26.4696C129.236 26.4193 129.483 26.3235 129.718 26.1824C129.97 26.0386 130.187 25.8403 130.37 25.5873C130.574 25.3052 130.691 25.0199 130.722 24.7313C130.759 24.4331 130.741 24.161 130.667 23.9152C130.61 23.6666 130.515 23.45 130.382 23.2652C130.265 23.0778 130.159 22.949 130.061 22.8787L128.28 21.5939L125.857 24.9501Z" fill="#211D21"/>
<path d="M127.835 33.6352L136.289 24.4142L138.187 26.1527L131.472 33.4765L133.715 35.5311L131.976 37.4284L127.835 33.6352Z" fill="#211D21"/>
<path d="M134.445 40.0517L132.685 38.1735L141.817 29.6238L143.577 31.502L134.445 40.0517Z" fill="#211D21"/>
<path d="M142.416 50.2886L140.894 48.213L143.473 37.2417L136.561 42.3054L135.039 40.2298L145.131 32.8363L146.653 34.912L144.074 45.8833L150.985 40.8195L152.508 42.8952L142.416 50.2886Z" fill="#211D21"/>
<path d="M153.949 52.7387L156.283 57.7277L155.901 58.1846C155.359 58.8091 154.696 59.3042 153.913 59.67C153.13 60.0359 152.323 60.2346 151.49 60.2664C150.672 60.3039 149.883 60.1891 149.123 59.9222C148.373 59.6501 147.685 59.2429 147.061 58.7004C146.452 58.1637 145.959 57.5066 145.582 56.7291C145.216 55.9465 145.017 55.1388 144.985 54.3059C144.953 53.4731 145.07 52.6764 145.337 51.9159C145.609 51.1663 146.016 50.4792 146.559 49.8548C147.106 49.2412 147.772 48.7515 148.554 48.3856C149.337 48.0198 150.137 47.8181 150.954 47.7806C151.776 47.754 152.562 47.8767 153.312 48.1487C154.073 48.4157 154.766 48.8204 155.391 49.3629C156.02 49.9163 156.518 50.5843 156.885 51.3669L154.52 52.472C154.083 51.5372 153.39 50.9071 152.443 50.5815C151.502 50.24 150.569 50.2852 149.645 50.7171C149.188 50.9305 148.8 51.2182 148.479 51.5801C148.158 51.942 147.914 52.3542 147.746 52.8168C147.578 53.2793 147.504 53.7443 147.524 54.2119C147.549 54.6902 147.666 55.1522 147.875 55.5979C148.109 56.071 148.402 56.4706 148.753 56.7965C149.104 57.1225 149.506 57.3585 149.959 57.5046C150.422 57.6725 150.892 57.744 151.371 57.719C151.849 57.694 152.317 57.5749 152.773 57.3614C152.904 57.3005 153.035 57.2261 153.166 57.1383L151.617 53.8286L153.949 52.7387Z" fill="#211D21"/>
<path d="M155.753 69.0272C156 68.979 156.245 68.9803 156.487 69.031C156.729 69.0816 156.949 69.1734 157.146 69.3062C157.354 69.4367 157.528 69.6047 157.666 69.8101C157.803 70.0156 157.896 70.242 157.945 70.4894C157.993 70.7367 157.992 70.9814 157.941 71.2236C157.89 71.4657 157.793 71.6864 157.648 71.8857C157.518 72.0945 157.35 72.2677 157.144 72.4055C156.939 72.5433 156.712 72.6363 156.465 72.6844C156.218 72.7325 155.973 72.7313 155.731 72.6806C155.489 72.6299 155.268 72.5323 155.068 72.3877C154.871 72.2549 154.704 72.0858 154.566 71.8803C154.428 71.6748 154.335 71.4484 154.287 71.2011C154.239 70.9537 154.24 70.709 154.291 70.4669C154.341 70.2247 154.433 70.0052 154.566 69.8082C154.699 69.6112 154.868 69.4438 155.073 69.306C155.279 69.1682 155.505 69.0753 155.753 69.0272Z" fill="#211D21"/>
<path d="M121.475 67.6517C122.176 60.2752 114.335 58.1726 106.832 57.4242C105.772 57.3192 105.533 55.8789 106.499 55.4347C111.646 53.0764 115.923 49.66 112.682 44.6337C109.867 40.2671 100.255 39.7717 90.6185 40.0705C79.2809 40.4205 69.6044 40.7974 65.115 47.579C59.41 56.1966 53.2005 59.0745 49.8086 62.4882C47.7209 64.5881 49.6691 66.6556 45.5607 68.6452C42.0615 70.3358 39.2573 73.5099 37.666 76.8536C33.3323 85.9773 31.6148 100.604 39.4934 110.557C52.0225 126.387 68.7296 123.851 88.2651 123.851C102.41 123.851 118.746 122.569 126.587 115.152C141.854 100.712 137.225 73.5072 122.192 68.7609C121.722 68.6102 121.43 68.1471 121.475 67.6517Z" fill="#F7FFEB"/>
<path d="M82.9519 120.545C68.1446 120.545 57.875 118.884 50.6324 115.319C41.9541 111.049 37.7357 104.09 37.7357 94.0484C37.7357 83.9393 41.133 76.1267 47.0553 72.6107C48.2146 71.9215 49.5429 71.5581 50.8927 71.5581C51.5796 71.5581 52.2612 71.6523 52.9214 71.838C62.5147 74.5302 73.0499 75.8951 84.2292 75.8951C95.4728 75.8951 106.743 74.4791 116.82 71.7977C117.493 71.6173 118.186 71.5284 118.881 71.5284C120.289 71.5284 121.666 71.9053 122.86 72.6161C130.983 77.4512 131.316 84.6204 131.536 89.3667C131.571 90.1313 131.605 90.8555 131.67 91.4612C132.502 99.3089 130.83 105.625 126.695 110.239C117.456 120.545 97.5122 120.545 82.9519 120.545Z" fill="#211D21"/>
<path d="M118.881 72.8745C120.029 72.8745 121.17 73.1734 122.173 73.7737C130.983 79.0181 129.872 87.2426 130.334 91.6039C133.229 118.892 104.54 119.201 82.9492 119.201C56.8393 119.201 39.0775 114.019 39.0775 94.0511C39.0775 83.4763 42.7807 76.7136 47.7397 73.7737C48.703 73.203 49.7925 72.9095 50.8927 72.9095C51.4509 72.9095 52.0117 72.9849 52.5591 73.1384C62.665 75.9732 73.541 77.2439 84.2292 77.2439C95.8539 77.2439 107.253 75.7363 117.163 73.1007C117.729 72.9499 118.306 72.8745 118.881 72.8745ZM118.881 70.1824C118.07 70.1824 117.262 70.2874 116.476 70.4974C106.51 73.1491 95.3575 74.5491 84.2292 74.5491C73.1707 74.5491 62.7589 73.2003 53.2837 70.5431C52.5055 70.3251 51.7031 70.2147 50.8954 70.2147C49.3068 70.2147 48.6535 69.8109 46.3765 71.4558C44.0995 73.1007 40.8217 76.1913 39.1124 79.928C37.3091 83.8693 36.3967 88.621 36.3967 94.0538C36.3967 104.516 40.9881 112.078 50.0421 116.533C57.4752 120.192 67.9326 121.896 82.9519 121.896C90.1301 121.896 99.066 121.896 107.21 120.572C116.688 119.029 123.389 115.944 127.693 111.144C132.094 106.233 133.881 99.5647 133.006 91.3239C132.947 90.7559 132.912 90.0532 132.877 89.3075C132.657 84.5801 132.29 76.6678 123.544 71.4639C122.144 70.6212 120.531 70.1824 118.881 70.1824Z" fill="#F7FFEB"/>
<path d="M38.7904 88.201C47.0527 90.4893 53.4635 90.9685 62.0237 92.11C85.6112 95.2545 108.147 94.5518 130.983 88.4487C130.17 86.6907 129.974 84.9785 130.537 83.1451C101.868 91.8246 70.8576 90.0424 39.9013 82.5151C39.6732 84.3781 38.6669 86.2438 38.7904 88.201Z" fill="#F7FFEB"/>
<path d="M39.0801 100.232C47.3424 102.521 53.509 103.425 62.0692 104.567C85.6567 107.711 108.147 106.726 130.983 100.623C130.17 98.8647 130.419 96.1617 130.983 94.3284C100.467 104.222 71.5418 104.015 38.7795 94.9368C38.5488 96.7998 38.9567 98.2751 39.0801 100.232Z" fill="#F7FFEB"/>
<path d="M85.5009 73.1923C69.4566 73.1923 59.0689 71.0063 54.6761 68.9522C53.6269 68.5376 52.9882 67.7191 52.9185 66.7042C52.6904 63.339 59.3239 58.6277 61.2211 57.5939C63.6335 56.2963 64.6773 54.5733 65.8903 52.5811C67.664 49.6628 69.6739 46.3568 76.2779 44.7308C81.9507 43.3362 88.391 42.6282 95.4189 42.6282C98.6874 42.6282 102.028 42.7789 105.635 43.0912C107.988 43.2931 109.727 44.8761 110.17 47.2183C110.656 49.7678 109.392 52.3496 107.097 53.4964C105.38 54.3499 103.475 54.4064 101.795 54.4575L101.4 54.471C95.5585 54.6648 85.7397 54.6864 81.7897 54.6864C77.0346 54.6864 74.8959 57.2924 74.8959 59.1419C74.8959 59.8742 75.2072 60.5176 75.7949 60.9995C76.557 61.6241 77.7323 61.9525 79.1975 61.9525C80.0803 61.9525 81.0651 61.8314 82.1197 61.5918L82.1734 61.581L82.2271 61.5729C88.4312 60.6926 94.3026 60.2457 99.6829 60.2457C103.598 60.2457 116.505 60.558 118.239 64.572C118.633 65.4846 118.432 66.4619 117.689 67.2588C113.605 71.6336 98.3841 73.1923 85.5009 73.1923Z" fill="#211D21"/>
<path d="M95.4163 43.974C99.5193 43.974 103.045 44.219 105.517 44.4317C109.622 44.7871 110.111 50.4864 106.496 52.2928C104.926 53.0735 103.104 53.0682 101.352 53.1274C95.9288 53.3078 87.0466 53.3428 81.787 53.3428C72.0864 53.3428 70.6132 63.3011 79.1948 63.3011C80.1421 63.3011 81.2155 63.1799 82.4123 62.908C88.9706 61.9765 94.7803 61.5942 99.6803 61.5942C112.217 61.5942 118.8 64.1006 116.707 66.3378C113.275 70.0126 99.4925 71.8433 85.4956 71.8433C73.3476 71.8433 61.0359 70.4622 55.1967 67.7108C51.6868 66.3809 58.8248 60.4258 61.8544 58.7755C68.4315 55.2327 66.223 48.5884 76.5892 46.0389C83.1368 44.429 89.8159 43.974 95.4163 43.974ZM95.4163 41.2819C88.281 41.2819 81.7334 42.0034 75.9559 43.4248C68.8126 45.1828 66.5558 48.8953 64.7418 51.8809C63.5879 53.7816 62.6755 55.2811 60.5905 56.4037C59.0234 57.2572 56.8739 58.8644 55.2316 60.407C52.6099 62.873 51.4507 64.9002 51.5795 66.7928C51.6841 68.3139 52.6367 69.5738 54.1422 70.1849C59.9974 72.9094 71.7053 74.5355 85.501 74.5355C92.8214 74.5355 99.9245 74.0347 105.498 73.1248C112.284 72.0183 116.594 70.4003 118.671 68.1766C119.779 66.9893 120.08 65.4413 119.473 64.036C118.671 62.1784 116.446 60.905 112.472 60.0301C109.11 59.2897 104.688 58.8994 99.6857 58.8994C94.2409 58.8994 88.3051 59.349 82.0393 60.2401L81.932 60.2562L81.8246 60.2805C80.8666 60.4985 79.9811 60.6062 79.1975 60.6062C77.6653 60.6062 76.9407 60.1997 76.6429 59.9547C76.3665 59.7286 76.2377 59.4701 76.2377 59.1417C76.2377 57.8871 78.0034 56.0322 81.7897 56.0322C85.7451 56.0322 95.58 56.0107 101.443 55.8142L101.835 55.8007C103.652 55.7442 105.713 55.6822 107.688 54.7023C110.524 53.2835 112.083 50.1041 111.487 46.9623C110.935 44.0467 108.681 41.998 105.748 41.7449C102.103 41.4353 98.7223 41.2819 95.4163 41.2819Z" fill="#F7FFEB"/>
<path d="M70.3288 53.709C70.2268 53.8166 70.0551 53.6928 70.1249 53.5609C71.3753 51.1864 73.7797 49.2938 76.863 48.295C79.8658 47.3232 83.0081 47.2666 86.0484 47.2101L104.798 46.8763C105.187 46.8682 105.509 47.1805 105.514 47.5708C105.522 47.9612 105.211 48.2843 104.822 48.2896L86.0726 48.6235C83.1369 48.6773 80.1261 48.82 77.295 49.6384C73.5248 50.7341 71.3056 52.6698 70.3288 53.709Z" fill="#F7FFEB"/>
<path d="M108.292 68.3976C108.114 68.438 108.039 68.1822 108.211 68.1203C110.65 67.2453 113.887 65.8777 111.753 65.4093C109.55 64.9247 93.9324 64.7416 87.4573 64.6851C87.3097 64.6851 87.3043 64.4643 87.4519 64.4536C111.128 62.7387 114.066 64.3136 114.115 65.5574C114.163 66.7984 110.728 67.8268 108.292 68.3976Z" fill="#F7FFEB"/>
</svg>
