<svg width="484" height="484" viewBox="0 0 484 484" fill="none" xmlns="http://www.w3.org/2000/svg">
<path d="M482 242L242.236 242.046L463.731 333.845L242.199 242.134L411.706 411.705L242.134 242.199L333.845 463.731L242.046 242.236L242 482L241.954 242.236L150.155 463.731L241.866 242.199L72.2948 411.705L241.801 242.134L20.269 333.845L241.764 242.046L2.00002 242L241.764 241.954L20.269 150.155L241.801 241.866L72.2949 72.2945L241.866 241.801L150.155 20.2689L241.954 241.764L242 2.00002L242.046 241.764L333.845 20.2689L242.134 241.801L411.706 72.2945L242.199 241.866L463.731 150.156L242.236 241.954L482 242Z" fill="#4D315A" stroke="#4D315A" stroke-width="4" stroke-linejoin="round"/>
</svg>
