<svg width="148" height="149" viewBox="0 0 148 149" fill="none" xmlns="http://www.w3.org/2000/svg">
<g filter="url(#filter0_d_59_379)">
<path fill-rule="evenodd" clip-rule="evenodd" d="M64.3338 39.3332L71.7262 11.8393L106.842 21.2348L99.4767 48.7362L126.998 41.3763L136.4 76.4666L108.886 83.8534L129.015 103.988L103.302 129.682L83.1531 109.568L75.7608 137.062L40.6453 127.666L48.0102 100.165L20.4891 107.525L11.0867 72.4346L38.6006 65.0479L18.4718 44.9134L44.1849 19.219L64.3338 39.3332Z" fill="#211D21"/>
<path d="M17.0574 46.3274L34.7388 64.0138L10.5681 70.503C9.50172 70.7893 8.86909 71.8857 9.15487 72.9522L18.5573 108.043C18.8431 109.109 19.9391 109.742 21.0058 109.457L45.1829 102.991L38.7134 127.149C38.5762 127.661 38.6482 128.207 38.9135 128.667C39.1789 129.126 39.6159 129.461 40.1284 129.598L75.2438 138.994C76.31 139.279 77.4057 138.647 77.6922 137.581L84.1869 113.426L101.889 131.098C102.67 131.877 103.935 131.877 104.716 131.097L130.429 105.402C130.804 105.027 131.015 104.519 131.015 103.988C131.015 103.458 130.805 102.949 130.429 102.574L112.748 84.8874L136.919 78.3982C137.985 78.1119 138.618 77.0156 138.332 75.949L128.93 40.8587C128.644 39.7921 127.548 39.1589 126.481 39.4442L102.304 45.9098L108.773 21.7522C108.911 21.2397 108.839 20.6937 108.573 20.2344C108.308 19.775 107.871 19.4399 107.358 19.3028L72.2431 9.90727C71.177 9.62202 70.0813 10.2542 69.7948 11.32L63.3001 35.4753L45.5979 17.8035C44.8168 17.0238 43.5518 17.0242 42.7712 17.8042L17.0581 43.4987C16.6828 43.8737 16.4719 44.3824 16.4718 44.9129C16.4717 45.4434 16.6823 45.9522 17.0574 46.3274Z" stroke="#A6C942" stroke-width="4" stroke-linejoin="round"/>
</g>
<path d="M48.2672 83.1736L48.2734 83.1968C48.5053 84.0623 48.5949 84.8913 48.5423 85.684C48.5051 86.4725 48.3096 87.1957 47.9558 87.8537C47.6175 88.5075 47.1245 89.0786 46.4768 89.5668C45.8292 90.0551 45.0262 90.4276 44.068 90.6844L37.9479 92.3242L37.0534 88.986L40.3453 88.104L40.6003 88.0356L43.2663 87.3213C43.4208 87.2799 43.617 87.1776 43.8549 87.0145C44.1041 86.8318 44.3234 86.5991 44.5127 86.3165C44.7174 86.0297 44.869 85.6992 44.9675 85.3249C45.066 84.9507 45.0532 84.5317 44.9289 84.0681C44.8088 83.6199 44.6126 83.2584 44.3402 82.9835C44.0636 82.6932 43.765 82.4751 43.4443 82.3291C43.139 82.179 42.8349 82.0949 42.5318 82.0767C42.2401 82.0389 42.017 82.0407 41.8624 82.0821L41.7697 82.1069L39.9847 82.5852C38.8101 82.9 37.7485 82.8945 36.7999 82.569C35.8472 82.2279 35.1677 81.5155 34.7613 80.4318L34.6201 79.9975C34.4545 79.3793 34.4156 78.8017 34.5036 78.2646C34.6071 77.7234 34.8106 77.2465 35.1141 76.8339C35.4177 76.4212 35.8115 76.0672 36.2955 75.7719C36.7909 75.457 37.3477 75.2167 37.9659 75.051L39.7509 74.5727L40.6454 77.911L39.9499 78.0973L38.8372 78.3955C38.4353 78.5031 38.2005 78.6158 38.1326 78.7333C38.0802 78.8468 38.0685 78.9576 38.0974 79.0658C38.1057 79.0967 38.1161 79.1353 38.1285 79.1817C38.1564 79.2239 38.1997 79.262 38.2585 79.2959C38.3327 79.3257 38.4281 79.3416 38.5446 79.3435C38.6765 79.3413 38.8506 79.3112 39.067 79.2532L40.1797 78.9551L40.8752 78.7687C41.8334 78.512 42.715 78.4331 43.5201 78.5321C44.3252 78.6311 45.0376 78.8792 45.6575 79.2762C46.2929 79.6692 46.8238 80.1978 47.2502 80.8621C47.6921 81.5222 48.0291 82.285 48.261 83.1504L48.2672 83.1736ZM54.1246 87.9897L50.8095 88.878L46.4924 72.7663L49.8075 71.8781L51.7579 79.1573L57.0867 69.9276L59.4281 69.3002L60.0555 71.6416L57.0177 76.9032L66.2474 82.2319L66.8748 84.5733L64.5334 85.2007L55.3037 79.8719L53.0127 83.8401L54.1246 87.9897ZM70.2441 79.223L71.356 83.3726L68.041 84.2608L63.7239 68.1492L69.7744 66.528C70.7326 66.2712 71.6142 66.1923 72.4193 66.2913C73.2202 66.3749 73.9306 66.6152 74.5505 67.0123C75.1859 67.4053 75.7168 67.9339 76.1432 68.5981C76.581 69.2428 76.9158 69.9979 77.1477 70.8633C77.3796 71.7288 77.4791 72.5635 77.446 73.3674C77.4243 74.1518 77.2484 74.8863 76.9184 75.5711C76.6932 76.029 76.3938 76.4571 76.0202 76.8553L79.3061 78.7329L79.9334 81.0743L77.592 81.7016L72.3305 78.6639L70.2441 79.223ZM69.3559 75.9079L72.1377 75.1625C72.4314 75.0838 72.7007 74.9454 72.9458 74.7472C73.2021 74.5294 73.4054 74.2679 73.5555 73.9627C73.7211 73.6533 73.8299 73.3177 73.882 72.9558C73.9455 72.5744 73.9234 72.1828 73.8157 71.781C73.6956 71.3328 73.4994 70.9713 73.2269 70.6964C72.9504 70.4061 72.6538 70.1957 72.3372 70.0652C72.032 69.9151 71.7278 69.8309 71.4248 69.8127C71.1331 69.7749 70.91 69.7768 70.7554 69.8182L67.9272 70.576L69.3559 75.9079ZM84.4642 62.5918C85.5769 62.2937 86.676 62.2228 87.7615 62.3792C88.8469 62.5356 89.8502 62.8797 90.7712 63.4114C91.7035 63.9235 92.5087 64.6105 93.1869 65.4724C93.8805 66.3301 94.3764 67.3153 94.6746 68.4281C94.9727 69.5408 95.0457 70.6476 94.8935 71.7486C94.7525 72.8299 94.4182 73.8388 93.8906 74.7752C93.3589 75.6962 92.6642 76.5036 91.8065 77.1972C90.9601 77.8712 89.9826 78.365 88.874 78.6786C87.7612 78.9768 86.6544 79.0498 85.5535 78.8975C84.4526 78.7453 83.4339 78.4053 82.4974 77.8777C81.5764 77.346 80.7691 76.6513 80.0755 75.7936C79.3973 74.9317 78.9091 73.9444 78.611 72.8317C78.3128 71.7189 78.2342 70.6219 78.3751 69.5406C78.5315 68.4551 78.8756 67.4519 79.4073 66.5309C79.9349 65.5944 80.6276 64.7794 81.4853 64.0857C82.3585 63.388 83.3514 62.89 84.4642 62.5918ZM90.9111 73.1138C91.2392 72.5455 91.4426 71.9444 91.5212 71.3104C91.5998 70.6765 91.5521 70.035 91.3782 69.3859C91.2042 68.7368 90.9248 68.1574 90.5397 67.6477C90.1505 67.1225 89.6563 66.7 89.0571 66.3802C87.9093 65.7436 86.6785 65.6013 85.3648 65.9533C84.0357 66.3094 83.0472 67.0712 82.3993 68.2387C81.7318 69.3948 81.574 70.6298 81.926 71.9434C82.1 72.5925 82.3872 73.1698 82.7877 73.6754C83.1882 74.181 83.6726 74.5978 84.2408 74.9259C84.8091 75.254 85.4025 75.4594 86.021 75.5422C86.6549 75.6208 87.2887 75.5752 87.9224 75.4054C88.5983 75.2077 89.191 74.9164 89.7008 74.5313C90.2105 74.1463 90.6139 73.6738 90.9111 73.1138ZM97.8537 76.2725L93.5366 60.1609L96.8516 59.2726L100.28 72.0692L104.198 71.0195L105.087 74.3345L97.8537 76.2725ZM106.207 74.0342L101.89 57.9225L105.205 57.0343L108.634 69.8308L112.552 68.7811L113.44 72.0961L106.207 74.0342Z" fill="#A6C942"/>
<defs>
<filter id="filter0_d_59_379" x="7.08572" y="7.83832" width="139.316" height="139.225" filterUnits="userSpaceOnUse" color-interpolation-filters="sRGB">
<feFlood flood-opacity="0" result="BackgroundImageFix"/>
<feColorMatrix in="SourceAlpha" type="matrix" values="0 0 0 0 0 0 0 0 0 0 0 0 0 0 0 0 0 0 127 0" result="hardAlpha"/>
<feOffset dx="6" dy="6"/>
<feComposite in2="hardAlpha" operator="out"/>
<feColorMatrix type="matrix" values="0 0 0 0 0.301961 0 0 0 0 0.192157 0 0 0 0 0.352941 0 0 0 1 0"/>
<feBlend mode="normal" in2="BackgroundImageFix" result="effect1_dropShadow_59_379"/>
<feBlend mode="normal" in="SourceGraphic" in2="effect1_dropShadow_59_379" result="shape"/>
</filter>
</defs>
</svg>
