<svg width="170" height="170" viewBox="0 0 170 170" fill="none" xmlns="http://www.w3.org/2000/svg">
<path d="M158 85C158 125.317 125.317 158 85 158C44.6832 158 12 125.317 12 85C12 44.6832 44.6832 12 85 12C125.317 12 158 44.6832 158 85Z" fill="#211D21" stroke="#A6C942" stroke-width="20"/>
<path d="M163.03 100.327L160.479 99.9806L160.922 96.7165L151.076 95.3799L151.422 92.8293L161.268 94.1658L161.727 90.7768L164.278 91.1231L163.03 100.327Z" fill="#211D21"/>
<path d="M161.324 106.872L160.536 109.435L148.883 110.949L147.146 110.413L147.749 108.452L151.252 108.025L152.861 102.795L150.2 100.487L150.804 98.5256L152.541 99.061L161.324 106.872ZM157.917 107.234L154.977 104.671L154.045 107.699L157.917 107.234Z" fill="#211D21"/>
<path d="M141.146 121.859L142.347 119.582L153.341 117.104L145.765 113.102L146.966 110.826L158.028 116.668L156.827 118.944L145.833 121.423L153.409 125.424L152.208 127.701L141.146 121.859Z" fill="#211D21"/>
<path d="M148.199 133.005L146.536 135.11L135.127 132.303L133.701 131.175L134.973 129.565L138.393 130.434L141.785 126.141L140.14 123.026L141.412 121.416L142.838 122.544L148.199 133.005ZM144.891 132.11L143.078 128.656L141.114 131.141L144.891 132.11Z" fill="#211D21"/>
<path d="M131.193 133.31L133.025 131.503L141.804 140.416L139.971 142.223L131.193 133.31Z" fill="#211D21"/>
<path d="M127.593 143.666C127.735 143.875 127.83 144.1 127.88 144.342C127.929 144.585 127.932 144.823 127.888 145.056C127.851 145.3 127.765 145.526 127.631 145.734C127.497 145.942 127.326 146.117 127.118 146.259C126.91 146.401 126.685 146.497 126.443 146.547C126.2 146.596 125.959 146.594 125.719 146.54C125.476 146.503 125.25 146.417 125.042 146.283C124.834 146.149 124.659 145.978 124.517 145.77C124.375 145.562 124.279 145.337 124.23 145.094C124.181 144.852 124.183 144.611 124.237 144.37C124.28 144.137 124.369 143.916 124.503 143.708C124.637 143.5 124.808 143.325 125.016 143.182C125.224 143.04 125.45 142.944 125.692 142.895C125.934 142.845 126.172 142.843 126.406 142.886C126.639 142.93 126.86 143.019 127.068 143.153C127.275 143.287 127.45 143.458 127.593 143.666Z" fill="#211D21"/>
<path d="M110.096 160.432L109.138 158.043L112.195 156.816L108.498 147.593L110.887 146.635L114.584 155.857L117.758 154.584L118.715 156.973L110.096 160.432Z" fill="#211D21"/>
<path d="M103.476 162.178L100.856 162.751L93.8086 153.348L93.4206 151.572L95.4252 151.133L97.5196 153.973L102.865 152.804L103.567 149.353L105.571 148.914L105.959 150.69L103.476 162.178ZM101.485 159.389L102.272 155.569L99.1767 156.246L101.485 159.389Z" fill="#211D21"/>
<path d="M80.5559 151.983L83.1287 151.903L90.7155 160.241L90.4512 151.677L93.024 151.598L93.4099 164.102L90.8372 164.181L83.2503 155.843L83.5147 164.407L80.9419 164.487L80.5559 151.983Z" fill="#211D21"/>
<path d="M74.0498 163.576L71.3996 163.165L68.2186 151.85L68.4973 150.054L70.525 150.369L71.454 153.774L76.8611 154.614L78.7602 151.648L80.7879 151.963L80.5092 153.76L74.0498 163.576ZM73.1987 160.256L75.3104 156.978L72.1799 156.491L73.1987 160.256Z" fill="#211D21"/>
<path d="M65.4631 148.91L67.9369 149.621L64.4842 161.645L62.0104 160.934L65.4631 148.91Z" fill="#211D21"/>
<path d="M54.7166 150.844C54.6048 151.07 54.4554 151.264 54.2683 151.425C54.0811 151.587 53.875 151.706 53.65 151.782C53.4196 151.869 53.181 151.905 52.9342 151.889C52.6873 151.874 52.4509 151.811 52.2251 151.699C51.9993 151.587 51.8055 151.437 51.6438 151.25C51.4821 151.063 51.3658 150.851 51.2951 150.615C51.2083 150.385 51.1725 150.146 51.1875 149.899C51.2026 149.652 51.266 149.416 51.3778 149.19C51.4895 148.964 51.639 148.77 51.8261 148.609C52.0132 148.447 52.2247 148.331 52.4605 148.26C52.6855 148.184 52.9215 148.154 53.1684 148.169C53.4152 148.184 53.6516 148.247 53.8774 148.359C54.1032 148.471 54.297 148.621 54.4587 148.808C54.6204 148.995 54.7393 149.201 54.8154 149.427C54.8914 149.652 54.9219 149.888 54.9068 150.135C54.8917 150.382 54.8283 150.618 54.7166 150.844Z" fill="#211D21"/>
<path d="M31.5331 143.745L33.1509 141.743L35.7117 143.815L41.9565 136.086L43.9576 137.705L37.7127 145.434L40.3714 147.585L38.7537 149.587L31.5331 143.745Z" fill="#211D21"/>
<path d="M26.8606 138.937L25.0709 136.939L29.7747 126.166L31.1279 124.952L32.4972 126.48L31.0598 129.705L34.7112 133.78L38.0584 132.688L39.4277 134.216L38.0744 135.43L26.8606 138.937ZM28.3045 135.828L32.0144 134.628L29.9005 132.268L28.3045 135.828Z" fill="#211D21"/>
<path d="M24.4361 113.93L25.769 116.132L22.2357 126.841L29.5628 122.399L30.8957 124.601L20.1975 131.086L18.8646 128.884L22.3979 118.176L15.0708 122.617L13.7379 120.415L24.4361 113.93Z" fill="#211D21"/>
<path d="M11.253 114.228L10.3113 111.717L18.6083 103.391L20.3103 102.752L21.0308 104.673L18.52 107.154L20.4413 112.278L23.9569 112.477L24.6774 114.398L22.9754 115.037L11.253 114.228ZM13.728 111.857L17.6207 112.087L16.5084 109.121L13.728 111.857Z" fill="#211D21"/>
<path d="M19.7861 99.5298L20.3832 102.034L8.21524 104.939L7.61816 102.435L19.7861 99.5298Z" fill="#211D21"/>
<path d="M12.8047 91.2553C12.5531 91.2699 12.3107 91.2359 12.0776 91.1532C11.8444 91.0706 11.6391 90.9503 11.4617 90.7923C11.2723 90.635 11.123 90.4453 11.014 90.2232C10.905 90.0012 10.8432 89.7644 10.8286 89.5128C10.8141 89.2612 10.8481 89.0188 10.9308 88.7857C11.0134 88.5525 11.1398 88.3468 11.3097 88.1687C11.4671 87.9793 11.6568 87.83 11.8788 87.721C12.1009 87.612 12.3377 87.5501 12.5893 87.5356C12.8409 87.521 13.0832 87.555 13.3164 87.6376C13.5496 87.7203 13.7552 87.8466 13.9333 88.0166C14.1108 88.1746 14.254 88.3646 14.363 88.5867C14.472 88.8087 14.5338 89.0455 14.5484 89.2971C14.563 89.5487 14.5289 89.7911 14.4463 90.0243C14.3636 90.2574 14.2433 90.4627 14.0853 90.6402C13.9273 90.8176 13.7372 90.9609 13.5151 91.0699C13.2931 91.1789 13.0563 91.2407 12.8047 91.2553Z" fill="#211D21"/>
<path d="M7.54238 67.1402L10.0812 67.5645L9.53878 70.8136L19.3388 72.4517L18.915 74.9905L9.11495 73.3524L8.55182 76.7258L6.01304 76.3014L7.54238 67.1402Z" fill="#211D21"/>
<path d="M9.4002 60.7892L10.266 58.2508L21.9589 57.0894L23.6793 57.677L23.0169 59.6191L19.503 59.9407L17.7365 65.1198L20.3266 67.5069L19.6642 69.4491L17.9438 68.8615L9.4002 60.7892ZM12.8169 60.5295L15.6784 63.1805L16.701 60.1821L12.8169 60.5295Z" fill="#211D21"/>
<path d="M29.9747 46.4484L28.7072 48.6887L17.6448 50.8415L25.0996 55.0648L23.8321 57.3051L12.9474 51.1387L14.215 48.8984L25.2774 46.7456L17.8226 42.5222L19.0901 40.282L29.9747 46.4484Z" fill="#211D21"/>
<path d="M23.4061 34.8735L25.1369 32.8248L36.448 36.0037L37.836 37.1778L36.5118 38.7453L33.1225 37.7645L29.5912 41.9445L31.1335 45.1116L29.8092 46.6791L28.4212 45.505L23.4061 34.8735ZM26.6823 35.8766L28.3811 39.3884L30.4255 36.9684L26.6823 35.8766Z" fill="#211D21"/>
<path d="M40.1444 35.3481L38.26 37.1015L29.7442 27.9373L31.6287 26.184L40.1444 35.3481Z" fill="#211D21"/>
<path d="M44.129 24.9992C43.993 24.7871 43.9039 24.5591 43.8616 24.3153C43.8194 24.0715 43.8236 23.8335 43.8743 23.6013C43.9185 23.359 44.0107 23.1359 44.1508 22.9319C44.2908 22.728 44.4669 22.5579 44.679 22.4218C44.8911 22.2857 45.1189 22.1964 45.3626 22.1541C45.6063 22.1118 45.8474 22.121 46.0859 22.1818C46.3281 22.226 46.5511 22.3181 46.7549 22.4582C46.9587 22.5983 47.1286 22.7745 47.2646 22.9866C47.4006 23.1988 47.4898 23.4267 47.532 23.6706C47.5743 23.9144 47.565 24.1556 47.5042 24.3943C47.4534 24.6264 47.3581 24.8445 47.218 25.0485C47.0779 25.2525 46.9018 25.4225 46.6898 25.5586C46.4777 25.6948 46.2498 25.784 46.0061 25.8263C45.7624 25.8687 45.5246 25.8645 45.2925 25.8138C45.0605 25.7631 44.8426 25.6677 44.6387 25.5276C44.4349 25.3875 44.265 25.2114 44.129 24.9992Z" fill="#211D21"/>
<path d="M61.9592 8.7904L62.8448 11.2072L59.7524 12.3419L63.1711 21.6712L60.7546 22.5579L57.3359 13.2285L54.1252 14.4066L53.2396 11.9898L61.9592 8.7904Z" fill="#211D21"/>
<path d="M68.7769 7.16639L71.4133 6.67366L78.1701 16.288L78.5037 18.0751L76.4866 18.4521L74.4799 15.5493L69.101 16.5546L68.2944 19.9832L66.2774 20.3602L65.9438 18.573L68.7769 7.16639ZM70.6819 10.0149L69.7788 13.8094L72.8929 13.2274L70.6819 10.0149Z" fill="#211D21"/>
<path d="M91.7549 18.0506L89.1809 18.0404L81.8872 9.44348L81.8549 18.0114L79.281 18.0012L79.328 5.49131L81.902 5.5015L89.1957 14.0984L89.228 5.5305L91.8019 5.54069L91.7549 18.0506Z" fill="#211D21"/>
<path d="M97.9254 6.5371L100.562 7.02983L103.395 18.4365L103.061 20.2236L101.044 19.8466L100.22 16.4148L94.8411 15.4095L92.8521 18.3155L90.835 17.9385L91.1686 16.1514L97.9254 6.5371ZM98.6745 9.88164L96.4635 13.0941L99.5775 13.6761L98.6745 9.88164Z" fill="#211D21"/>
<path d="M106.249 21.4569L103.798 20.6712L107.613 8.75691L110.064 9.5427L106.249 21.4569Z" fill="#211D21"/>
<path d="M117.097 19.8184C117.216 19.5959 117.371 19.4066 117.563 19.2505C117.755 19.0944 117.964 18.9817 118.191 18.9124C118.424 18.8325 118.664 18.8038 118.91 18.8262C119.156 18.8487 119.391 18.9192 119.613 19.0377C119.836 19.1562 120.025 19.3114 120.181 19.5034C120.337 19.6954 120.447 19.9103 120.511 20.1482C120.591 20.3812 120.619 20.6208 120.597 20.8673C120.575 21.1137 120.504 21.3481 120.386 21.5706C120.267 21.793 120.112 21.9823 119.92 22.1385C119.729 22.2946 119.514 22.4045 119.276 22.4682C119.049 22.5375 118.812 22.5609 118.566 22.5384C118.319 22.5159 118.085 22.4454 117.863 22.3269C117.64 22.2084 117.451 22.0532 117.295 21.8612C117.139 21.6693 117.026 21.4596 116.957 21.2323C116.887 21.005 116.864 20.7681 116.886 20.5217C116.909 20.2753 116.979 20.0409 117.097 19.8184Z" fill="#211D21"/>
<path d="M140.188 27.6447L138.512 29.5988L136.013 27.4532L129.546 34.9963L127.593 33.3197L134.06 25.7765L131.465 23.5489L133.14 21.5947L140.188 27.6447Z" fill="#211D21"/>
<path d="M144.82 32.6843L146.544 34.7393L141.49 45.3525L140.098 46.5215L138.779 44.9492L140.321 41.7739L136.805 37.5811L133.424 38.5634L132.106 36.9911L133.498 35.822L144.82 32.6843ZM143.276 35.7443L139.528 36.8224L141.564 39.2498L143.276 35.7443Z" fill="#211D21"/>
<path d="M146.391 57.5784L145.124 55.3382L148.971 44.7387L141.516 48.962L140.249 46.7217L151.133 40.5553L152.401 42.7956L148.554 53.3951L156.009 49.1718L157.276 51.412L146.391 57.5784Z" fill="#211D21"/>
<path d="M159.63 57.744L160.496 60.2824L151.952 68.3547L150.232 68.9422L149.57 67.0001L152.154 64.5959L150.387 59.4168L146.879 59.1123L146.217 57.1701L147.937 56.5826L159.63 57.744ZM157.085 60.0397L153.201 59.6923L154.224 62.6907L157.085 60.0397Z" fill="#211D21"/>
<path d="M150.686 72.2571L150.166 69.7363L162.416 67.2034L162.937 69.7242L150.686 72.2571Z" fill="#211D21"/>
<path d="M157.424 80.8268C157.676 80.82 157.917 80.8615 158.148 80.9513C158.378 81.0411 158.58 81.1677 158.752 81.3311C158.936 81.4942 159.08 81.6884 159.182 81.9137C159.284 82.139 159.338 82.3777 159.345 82.6296C159.352 82.8815 159.311 83.1227 159.221 83.3532C159.131 83.5837 158.998 83.7854 158.823 83.9582C158.66 84.1426 158.466 84.2859 158.24 84.3881C158.015 84.4902 157.776 84.5447 157.525 84.5515C157.273 84.5583 157.031 84.5168 156.801 84.427C156.57 84.3372 156.369 84.2046 156.196 84.0292C156.023 83.8658 155.886 83.6715 155.784 83.4461C155.682 83.2208 155.627 82.9822 155.621 82.7303C155.614 82.4784 155.655 82.2372 155.745 82.0067C155.835 81.7761 155.962 81.5746 156.125 81.4022C156.288 81.2297 156.483 81.0924 156.708 80.9903C156.933 80.8881 157.172 80.8337 157.424 80.8268Z" fill="#211D21"/>
<path d="M33.1645 37.3114C44.0859 58.479 55.1285 70.1093 66.0367 82.6425C68.5905 85.5779 73.8931 91.615 74.2131 95.8784C74.6769 102.048 66.6879 108.791 62.9868 113.755C56.5824 122.344 47.8399 129.768 44.4304 137.86C41.6059 144.564 50.5888 150.924 56.9572 149.064C60.7529 147.955 64.6528 142.129 68.5337 142.913C78.7641 144.978 83.5462 133.58 85.3106 123.495C85.5358 122.208 87.3778 122.18 87.641 123.461C89.7745 133.801 94.1041 144.678 104.206 144.309C110.771 144.069 115.065 152.838 122.927 149.049C128.926 146.157 128.953 138.975 127.253 134.787C123.209 124.825 115.021 118.548 108.117 109.277C104.891 104.945 100.565 98.8213 100.618 95.1757C100.671 91.5319 104.944 86.2579 108.098 81.8642C118.62 67.1965 136.692 43.8869 136.997 34.8048C137.205 28.5731 127.709 23.5995 121.551 25.343C115.735 26.9902 112.967 17.315 105.143 21.601C102.358 23.1273 99.3178 30.3431 98.3485 32.7666C95.3195 40.3338 91.2739 57.3664 87.6902 69.4387C87.2113 71.05 84.9376 71.0897 84.4019 69.4954C78.3476 51.5126 77.5033 24.034 64.7815 20.3335C56.4991 17.9251 57.2469 29.4062 52.2301 27.7307C44.1427 25.0276 27.4605 26.2554 33.1645 37.3114Z" fill="#F7FFEB"/>
<path d="M121.314 140.614L116.028 144.307L114.856 142.637L113.562 140.79L109.022 134.32L108.195 133.14L107.14 131.638L106.313 130.457L93.2711 111.874L90.3727 107.743L88.4001 104.93L87.3513 103.436L77.6263 89.5787L75.0138 85.8555L75.0119 85.8517L56.109 58.9172L47.6771 46.8997L46.3822 45.0561L45.5549 43.8755L44.2619 42.0319L43.4346 40.8513L42.0185 38.8358C40.9962 37.3794 41.3503 35.3714 42.8117 34.3533C43.3759 33.9604 44.0196 33.7715 44.6594 33.7715C45.676 33.7715 46.6775 34.2494 47.3041 35.1429L51.31 40.8513L52.1373 42.0319L53.4303 43.8755L54.2576 45.0561L55.5525 46.8997L63.9844 58.9172L80.1101 81.8982L82.91 85.8857L92.635 99.7431L93.6838 101.237L95.6564 104.05L98.5548 108.181L114.188 130.457L115.016 131.638L116.07 133.14L116.897 134.32L118.847 137.097L120.142 138.943L121.314 140.614Z" fill="#211D21"/>
<path d="M118.835 137.111L113.55 140.803L114.845 142.649L120.13 138.958L118.835 137.111Z" fill="#F7FFEB"/>
<path d="M116.897 134.322H109.022L108.195 133.142H116.07L116.897 134.322Z" fill="#F7FFEB"/>
<path d="M115.016 131.638H107.14L106.311 130.459H114.188L115.016 131.638Z" fill="#F7FFEB"/>
<path d="M52.1354 42.0337H44.26L43.4308 40.8531H51.3081L52.1354 42.0337Z" fill="#F7FFEB"/>
<path d="M54.2576 45.0579H46.3803L45.553 43.8773H53.4303L54.2576 45.0579Z" fill="#F7FFEB"/>
<path d="M63.9844 58.919H56.109L47.6752 46.9015H55.5525L63.9844 58.919Z" fill="#211D21"/>
<path d="M97.3186 134.653L66.4512 39.8616L68.0868 39.3308L98.9826 134.207L99.1114 137.577L97.3186 134.653Z" fill="#211D21"/>
<path d="M96.4496 129.271C94.7061 129.891 92.9436 131.878 93.0666 132.709C93.1367 132.945 93.3582 133.132 93.5986 133.185C96.7753 133.89 99.5279 132.987 101.154 130.728C101.394 130.393 101.253 129.957 100.883 129.8C99.1246 129.056 97.896 128.759 96.4496 129.271Z" fill="#211D21"/>
<path d="M62.3677 28.9056C63.2745 32.8479 64.416 36.7353 65.7848 40.5435C66.0896 41.8204 67.144 42.2246 68.3007 41.6485C69.0069 41.4407 69.9667 40.8381 69.6221 39.9938C69.4158 39.565 68.8724 39.4516 68.4427 39.2401C68.0149 39.0285 67.9448 38.4241 68.2818 38.0878C69.0088 37.3625 68.6699 36.7599 68.1038 36.6239C67.4564 36.469 66.8184 36.0666 66.9907 35.5207C67.1213 35.1071 67.7593 34.8521 67.7006 34.4214C67.6022 33.696 66.9945 33.9529 66.6196 33.6582C65.6333 32.88 66.9074 32.0998 66.7446 31.0005C66.6007 30.4621 65.7923 30.5226 65.5652 30.0144C65.2263 29.2532 66.578 28.9132 66.3413 28.2029C66.0006 27.1754 63.4676 28.0065 62.3677 28.9056Z" fill="#211D21"/>
<path d="M59.2706 44.5008C59.1248 44.5008 58.9809 44.4838 58.8351 44.4498C58.0343 44.2628 57.3755 43.5128 57.1995 42.5835C57.0556 41.8317 57.2089 41.0742 57.3945 40.3677C58.3448 36.7674 60.236 33.2143 63.017 29.8047L63.8065 28.8357L63.9674 30.0749C64.5732 34.7538 63.8387 39.0681 61.8414 42.5551C61.1201 43.8132 60.202 44.5008 59.2706 44.5008ZM63.036 31.5218C60.7964 34.4893 59.2516 37.5532 58.4357 40.6416C58.2918 41.1857 58.1479 41.8128 58.2558 42.3832C58.3354 42.8007 58.6269 43.2994 59.0794 43.4052C59.9294 43.6035 60.6942 42.3965 60.9081 42.0225C62.6006 39.0644 63.3275 35.4583 63.036 31.5218Z" fill="#211D21"/>
<path d="M51.0033 140.614L56.2889 144.307L57.4607 142.637L58.7556 140.79L63.2953 134.32L64.1226 133.14L65.1771 131.638L66.0044 130.457L79.0461 111.874L81.9445 107.743L83.9172 104.93L84.9659 103.436L94.6909 89.5787L97.3034 85.8555L97.3053 85.8517L116.208 58.9172L124.64 46.8997L125.935 45.0561L126.762 43.8755L128.055 42.0319L128.883 40.8513L130.299 38.8358C131.321 37.3794 130.967 35.3714 129.505 34.3533C128.941 33.9604 128.298 33.7715 127.658 33.7715C126.641 33.7715 125.64 34.2494 125.013 35.1429L121.007 40.8513L120.18 42.0319L118.887 43.8755L118.06 45.0561L116.765 46.8997L108.333 58.9172L92.2071 81.8982L89.4072 85.8857L79.6822 99.7431L78.6334 101.237L76.6608 104.05L73.7624 108.181L58.129 130.457L57.3017 131.638L56.2473 133.14L55.42 134.32L53.47 137.097L52.1751 138.943L51.0033 140.614Z" fill="#211D21"/>
<path d="M58.7713 140.796L53.486 137.104L52.1907 138.95L57.476 142.642L58.7713 140.796Z" fill="#F7FFEB"/>
<path d="M55.4181 134.322H63.2935L64.1227 133.142H56.2473L55.4181 134.322Z" fill="#F7FFEB"/>
<path d="M57.2998 131.638H65.1771L66.0044 130.459H58.129L57.2998 131.638Z" fill="#F7FFEB"/>
<path d="M120.18 42.0337H128.057L128.886 40.8531H121.009L120.18 42.0337Z" fill="#F7FFEB"/>
<path d="M118.06 45.0579H125.935L126.764 43.8773H118.887L118.06 45.0579Z" fill="#F7FFEB"/>
<path d="M108.333 58.919H116.208L124.642 46.9015H116.765L108.333 58.919Z" fill="#211D21"/>
<path d="M74.9986 134.653L105.866 39.8616L104.228 39.3308L73.3345 134.207L73.2058 137.577L74.9986 134.653Z" fill="#211D21"/>
<path d="M75.8657 129.271C77.6093 129.891 79.3718 131.878 79.2488 132.709C79.1787 132.945 78.9572 133.132 78.7168 133.185C75.5401 133.89 72.7875 132.987 71.1613 130.728C70.9209 130.393 71.0629 129.957 71.432 129.8C73.1926 129.056 74.4213 128.759 75.8657 129.271Z" fill="#211D21"/>
<path d="M109.948 28.9056C109.041 32.8479 107.899 36.7353 106.53 40.5435C106.226 41.8204 105.171 42.2246 104.014 41.6485C103.308 41.4407 102.349 40.8381 102.693 39.9938C102.899 39.565 103.443 39.4516 103.872 39.2401C104.3 39.0285 104.37 38.4241 104.033 38.0878C103.306 37.3625 103.645 36.7599 104.211 36.6239C104.859 36.469 105.497 36.0666 105.325 35.5207C105.194 35.1071 104.556 34.8521 104.615 34.4214C104.713 33.696 105.321 33.9529 105.696 33.6582C106.682 32.88 105.408 32.0998 105.571 31.0005C105.715 30.4621 106.523 30.5226 106.75 30.0144C107.089 29.2532 105.737 28.9132 105.974 28.2029C106.317 27.1754 108.85 28.0065 109.948 28.9056Z" fill="#211D21"/>
<path d="M113.047 44.5008C113.192 44.5008 113.336 44.4838 113.482 44.4498C114.283 44.2628 114.942 43.5128 115.118 42.5835C115.262 41.8317 115.108 41.0742 114.923 40.3677C113.972 36.7674 112.081 33.2143 109.3 29.8047L108.511 28.8357L108.35 30.0749C107.744 34.7538 108.479 39.0681 110.476 42.5551C111.197 43.8132 112.113 44.5008 113.047 44.5008ZM109.281 31.5218C111.521 34.4893 113.066 37.5532 113.882 40.6416C114.025 41.1857 114.169 41.8128 114.061 42.3832C113.982 42.8007 113.69 43.2994 113.238 43.4052C112.388 43.6035 111.623 42.3965 111.409 42.0225C109.715 39.0644 108.988 35.4583 109.281 31.5218Z" fill="#211D21"/>
</svg>
